<svg width="40" height="40" viewBox="0 0 40 40" fill="none" xmlns="http://www.w3.org/2000/svg">
<rect width="40" height="40" rx="10" fill="#F6F8FB"/>
<path d="M24.7502 11.56V10C24.7502 9.59 24.4102 9.25 24.0002 9.25C23.5902 9.25 23.2502 9.59 23.2502 10V11.5H16.7502V10C16.7502 9.59 16.4102 9.25 16.0002 9.25C15.5902 9.25 15.2502 9.59 15.2502 10V11.56C12.5502 11.81 11.2402 13.42 11.0402 15.81C11.0202 16.1 11.2602 16.34 11.5402 16.34H28.4602C28.7502 16.34 28.9902 16.09 28.9602 15.81C28.7602 13.42 27.4502 11.81 24.7502 11.56Z" fill="#E11D29"/>
<path d="M28 17.8398H12C11.45 17.8398 11 18.2898 11 18.8398V24.9998C11 27.9998 12.5 29.9998 16 29.9998H20.93C21.62 29.9998 22.1 29.3298 21.88 28.6798C21.68 28.0998 21.51 27.4598 21.51 26.9998C21.51 23.9698 23.98 21.4998 27.01 21.4998C27.3 21.4998 27.59 21.5198 27.87 21.5698C28.47 21.6598 29.01 21.1898 29.01 20.5898V18.8498C29 18.2898 28.55 17.8398 28 17.8398ZM17.21 25.7098C17.02 25.8898 16.76 25.9998 16.5 25.9998C16.37 25.9998 16.24 25.9698 16.12 25.9198C16 25.8698 15.89 25.7998 15.79 25.7098C15.61 25.5198 15.5 25.2698 15.5 24.9998C15.5 24.8698 15.53 24.7398 15.58 24.6198C15.63 24.4898 15.7 24.3898 15.79 24.2898C15.89 24.1998 16 24.1298 16.12 24.0798C16.48 23.9198 16.93 24.0098 17.21 24.2898C17.3 24.3898 17.37 24.4898 17.42 24.6198C17.47 24.7398 17.5 24.8698 17.5 24.9998C17.5 25.2698 17.39 25.5198 17.21 25.7098ZM17.21 22.2098C17.02 22.3898 16.76 22.4998 16.5 22.4998C16.37 22.4998 16.24 22.4798 16.12 22.4198C16 22.3698 15.89 22.2998 15.79 22.2098C15.61 22.0198 15.5 21.7598 15.5 21.4998C15.5 21.3698 15.53 21.2398 15.58 21.1198C15.63 20.9998 15.7 20.8898 15.79 20.7898C15.89 20.6998 16 20.6298 16.12 20.5798C16.48 20.4298 16.93 20.5098 17.21 20.7898C17.3 20.8898 17.37 20.9998 17.42 21.1198C17.47 21.2398 17.5 21.3698 17.5 21.4998C17.5 21.7598 17.39 22.0198 17.21 22.2098ZM20.92 21.8798C20.87 21.9998 20.8 22.1098 20.71 22.2098C20.61 22.2998 20.5 22.3698 20.38 22.4198C20.26 22.4798 20.13 22.4998 20 22.4998C19.74 22.4998 19.48 22.3898 19.29 22.2098C19.2 22.1098 19.13 21.9998 19.08 21.8798C19.03 21.7598 19 21.6298 19 21.4998C19 21.2398 19.11 20.9798 19.29 20.7898C19.57 20.5098 20.01 20.4198 20.38 20.5798C20.5 20.6298 20.61 20.6998 20.71 20.7898C20.89 20.9798 21 21.2398 21 21.4998C21 21.6298 20.98 21.7598 20.92 21.8798Z" fill="#E11D29"/>
<path d="M27 23C24.79 23 23 24.79 23 27C23 29.21 24.79 31 27 31C29.21 31 31 29.21 31 27C31 24.79 29.21 23 27 23ZM28.6 28.64C28.45 28.79 28.26 28.86 28.07 28.86C27.88 28.86 27.69 28.79 27.54 28.64L27.01 28.11L26.46 28.66C26.31 28.81 26.12 28.88 25.93 28.88C25.74 28.88 25.55 28.81 25.4 28.66C25.11 28.37 25.11 27.89 25.4 27.6L25.95 27.05L25.42 26.52C25.13 26.23 25.13 25.75 25.42 25.46C25.71 25.17 26.19 25.17 26.48 25.46L27.01 26L27.51 25.5C27.8 25.21 28.28 25.21 28.57 25.5C28.86 25.79 28.86 26.27 28.57 26.56L28.07 27.06L28.6 27.59C28.89 27.88 28.89 28.35 28.6 28.64Z" fill="#E11D29"/>
</svg>
