<svg width="40" height="40" viewBox="0 0 40 40" fill="none" xmlns="http://www.w3.org/2000/svg">
<rect width="40" height="40" rx="10" fill="#F6F8FB"/>
<path d="M24.7502 11.56V10C24.7502 9.59 24.4102 9.25 24.0002 9.25C23.5902 9.25 23.2502 9.59 23.2502 10V11.5H16.7502V10C16.7502 9.59 16.4102 9.25 16.0002 9.25C15.5902 9.25 15.2502 9.59 15.2502 10V11.56C12.5502 11.81 11.2402 13.42 11.0402 15.81C11.0202 16.1 11.2602 16.34 11.5402 16.34H28.4602C28.7502 16.34 28.9902 16.09 28.9602 15.81C28.7602 13.42 27.4502 11.81 24.7502 11.56Z" fill="#5678E9"/>
<path d="M27 23C24.796 23 23 24.796 23 27C23 29.204 24.796 31 27 31C29.204 31 31 29.204 31 27C31 24.796 29.204 23 27 23ZM28.74 28.428C28.684 28.524 28.584 28.576 28.48 28.576C28.428 28.576 28.376 28.564 28.328 28.532L27.088 27.792C26.78 27.608 26.552 27.204 26.552 26.848V25.208C26.552 25.044 26.688 24.908 26.852 24.908C27.016 24.908 27.152 25.044 27.152 25.208V26.848C27.152 26.992 27.272 27.204 27.396 27.276L28.636 28.016C28.78 28.1 28.828 28.284 28.74 28.428Z" fill="#5678E9"/>
<path d="M28 17.8398H12C11.45 17.8398 11 18.2898 11 18.8398V24.9998C11 27.9998 12.5 29.9998 16 29.9998H20.93C21.62 29.9998 22.1 29.3298 21.88 28.6798C21.68 28.0998 21.51 27.4598 21.51 26.9998C21.51 23.9698 23.98 21.4998 27.01 21.4998C27.3 21.4998 27.59 21.5198 27.87 21.5698C28.47 21.6598 29.01 21.1898 29.01 20.5898V18.8498C29 18.2898 28.55 17.8398 28 17.8398ZM17.21 26.2098C17.02 26.3898 16.76 26.4998 16.5 26.4998C16.24 26.4998 15.98 26.3898 15.79 26.2098C15.61 26.0198 15.5 25.7598 15.5 25.4998C15.5 25.2398 15.61 24.9798 15.79 24.7898C15.89 24.6998 15.99 24.6298 16.12 24.5798C16.49 24.4198 16.93 24.5098 17.21 24.7898C17.39 24.9798 17.5 25.2398 17.5 25.4998C17.5 25.7598 17.39 26.0198 17.21 26.2098ZM17.21 22.7098C17.16 22.7498 17.11 22.7898 17.06 22.8298C17 22.8698 16.94 22.8998 16.88 22.9198C16.82 22.9498 16.76 22.9698 16.7 22.9798C16.63 22.9898 16.56 22.9998 16.5 22.9998C16.24 22.9998 15.98 22.8898 15.79 22.7098C15.61 22.5198 15.5 22.2598 15.5 21.9998C15.5 21.7398 15.61 21.4798 15.79 21.2898C16.02 21.0598 16.37 20.9498 16.7 21.0198C16.76 21.0298 16.82 21.0498 16.88 21.0798C16.94 21.0998 17 21.1298 17.06 21.1698C17.11 21.2098 17.16 21.2498 17.21 21.2898C17.39 21.4798 17.5 21.7398 17.5 21.9998C17.5 22.2598 17.39 22.5198 17.21 22.7098ZM20.71 22.7098C20.52 22.8898 20.26 22.9998 20 22.9998C19.74 22.9998 19.48 22.8898 19.29 22.7098C19.11 22.5198 19 22.2598 19 21.9998C19 21.7398 19.11 21.4798 19.29 21.2898C19.67 20.9198 20.34 20.9198 20.71 21.2898C20.89 21.4798 21 21.7398 21 21.9998C21 22.2598 20.89 22.5198 20.71 22.7098Z" fill="#5678E9"/>
</svg>
