<svg width="26" height="26" viewBox="0 0 26 26" fill="none" xmlns="http://www.w3.org/2000/svg">
<path d="M16.4884 7.09766H6.26175C5.95842 7.09766 5.67675 7.10849 5.41675 7.11932C2.84925 7.27099 2.16675 8.21349 2.16675 11.1385V11.7668C2.16675 12.3627 2.65425 12.8502 3.25008 12.8502H19.5001C20.0959 12.8502 20.5834 12.3627 20.5834 11.7668V11.1385C20.5834 7.91016 19.7601 7.09766 16.4884 7.09766Z" fill="#0EABEB"/>
<path d="M3.25008 14.4727C2.65425 14.4727 2.16675 14.9602 2.16675 15.556V18.7085C2.16675 21.9368 2.99008 22.7493 6.26175 22.7493H16.4884C19.7059 22.7493 20.5509 21.9693 20.5834 18.8818V15.556C20.5834 14.9602 20.0959 14.4727 19.5001 14.4727H3.25008ZM7.54008 20.106H5.68758C5.24341 20.106 4.87508 19.7377 4.87508 19.2935C4.87508 18.8493 5.24341 18.481 5.68758 18.481H7.55091C7.99508 18.481 8.36341 18.8493 8.36341 19.2935C8.36341 19.7377 7.99508 20.106 7.54008 20.106ZM13.5959 20.106H9.86925C9.42508 20.106 9.05675 19.7377 9.05675 19.2935C9.05675 18.8493 9.42508 18.481 9.86925 18.481H13.5959C14.0401 18.481 14.4084 18.8493 14.4084 19.2935C14.4084 19.7377 14.0509 20.106 13.5959 20.106Z" fill="#0EABEB"/>
<path d="M23.8332 14.4393V8.7626C23.8332 5.37177 21.8941 3.89844 18.9691 3.89844H9.29491C8.47158 3.89844 7.73491 4.0176 7.08491 4.26677C6.57575 4.45094 6.12075 4.72177 5.75241 5.07927C5.55741 5.26344 5.70908 5.56677 5.99075 5.56677H17.7666C20.2041 5.56677 22.1757 7.53844 22.1757 9.97594V17.7434C22.1757 18.0143 22.4682 18.1659 22.6632 17.9709C23.4107 17.1801 23.8332 16.0209 23.8332 14.4393Z" fill="#0EABEB"/>
</svg>
