<svg width="26" height="26" viewBox="0 0 26 26" fill="none" xmlns="http://www.w3.org/2000/svg">
<g clip-path="url(#clip0_936_115352)">
<path d="M22.1924 3.80758C19.737 1.35225 16.4724 0 13 0C9.52758 0 6.263 1.35225 3.80758 3.80758C1.35225 6.263 0 9.52758 0 13C0 16.4724 1.35225 19.737 3.80758 22.1924C6.263 24.6477 9.52758 26 13 26C16.4724 26 19.737 24.6477 22.1924 22.1924C24.6477 19.737 26 16.4724 26 13C26 9.52758 24.6477 6.263 22.1924 3.80758ZM17.5665 8.50875H15.3644C15.7187 8.97278 15.9627 9.51141 16.0779 10.0838H17.5666V11.6072H16.0781C15.7234 13.3721 14.1616 14.7057 12.2938 14.7057H10.4424L15.5025 19.7658L14.4253 20.843L8.4336 14.8514V13.1823H12.2938C13.3157 13.1823 14.1858 12.5227 14.5024 11.6072H8.4335V10.0838H14.5023C14.1856 9.1683 13.3156 8.50875 12.2937 8.50875H8.4335V6.98532H17.5665V8.50875Z" fill="#A7A7A7"/>
</g>
<defs>
<clipPath id="clip0_936_115352">
<rect width="26" height="26" fill="white"/>
</clipPath>
</defs>
</svg>
