<svg width="22" height="14" viewBox="0 0 22 14" fill="none" xmlns="http://www.w3.org/2000/svg">
<path d="M6.85975 13.5359C10.4768 13.5359 13.4089 10.6037 13.4089 6.9867C13.4089 3.36968 10.4768 0.4375 6.85975 0.4375C3.24272 0.4375 0.310547 3.36968 0.310547 6.9867C0.310547 10.6037 3.24272 13.5359 6.85975 13.5359Z" fill="#E11D29"/>
<path d="M15.1093 13.5359C18.7263 13.5359 21.6585 10.6037 21.6585 6.9867C21.6585 3.36968 18.7263 0.4375 15.1093 0.4375C11.4922 0.4375 8.56006 3.36968 8.56006 6.9867C8.56006 10.6037 11.4922 13.5359 15.1093 13.5359Z" fill="#FFC313"/>
<path fill-rule="evenodd" clip-rule="evenodd" d="M10.9843 1.94945C11.7404 2.56042 12.3502 3.33275 12.7691 4.20989C13.188 5.08702 13.4054 6.04675 13.4054 7.01879C13.4054 7.99083 13.188 8.95055 12.7691 9.82769C12.3502 10.7048 11.7404 11.4772 10.9843 12.0881C10.2227 11.4774 9.60789 10.7034 9.18545 9.82327C8.76302 8.94312 8.5437 7.97932 8.5437 7.00304C8.5437 6.02677 8.76302 5.06297 9.18545 4.18282C9.60789 3.30267 10.2227 2.56015 10.9843 1.94945Z" fill="#E11D29"/>
<mask id="mask0_8754_11635" style="mask-type:luminance" maskUnits="userSpaceOnUse" x="8" y="1" width="6" height="12">
<path d="M10.9843 1.94945C11.7404 2.56042 12.3502 3.33275 12.7691 4.20989C13.188 5.08702 13.4054 6.04675 13.4054 7.01879C13.4054 7.99083 13.188 8.95055 12.7691 9.82769C12.3502 10.7048 11.7404 11.4772 10.9843 12.0881C10.2227 11.4774 9.60789 10.7034 9.18545 9.82327C8.76302 8.94312 8.5437 7.97932 8.5437 7.00304C8.5437 6.02677 8.76302 5.06297 9.18545 4.18282C9.60789 3.30267 10.2227 2.56015 10.9843 1.94945Z" fill="white"/>
</mask>
<g mask="url(#mask0_8754_11635)">
<path fill-rule="evenodd" clip-rule="evenodd" d="M7.36328 3.21094H15.1719V4.06107H7.36328V3.21094ZM7.36328 4.87972H15.1719V5.72986H7.36328V4.87972ZM7.36328 6.58H15.1719V7.43013H7.36328V6.58ZM7.36328 8.24878H15.1719V9.09892H7.36328V8.24878ZM7.36328 9.91757H15.1719V10.7677H7.36328V9.91757Z" fill="#FFC313"/>
</g>
</svg>
