<svg width="294" height="294" viewBox="0 0 294 294" fill="none" xmlns="http://www.w3.org/2000/svg">
<path d="M86.1416 109.427H34.0742V23.2848H86.1416V109.427Z" fill="#E0E0E0"/>
<path d="M84.4072 109.427H32.3398V23.2848H84.4072V109.427Z" fill="#EBEBEB"/>
<path d="M82.1728 107.692H34.5742V25.0194H82.1728V107.692Z" fill="#FAFAFA"/>
<path d="M72.9118 96.9318H43.6294V35.7798H72.9118V96.9318Z" fill="#EBEBEB"/>
<path d="M43.6294 75.2934C43.5706 69.5898 48.7156 64.0038 54.3604 63.21C57.0652 62.8278 59.917 63.357 62.4454 62.328C66.9436 60.4758 68.3842 54.5076 72.9118 52.7142L73.1176 96.9318H43.6294V75.2934Z" fill="#E0E0E0"/>
<path d="M277.771 78.5274H227.85V26.5188H277.771V78.5274Z" fill="#E0E0E0"/>
<path d="M274.39 78.5274H224.469V26.5188H274.39V78.5274Z" fill="#FAFAFA"/>
<path fill-rule="evenodd" clip-rule="evenodd" d="M274.419 78.5568H224.469V26.4894H274.419V78.5568ZM224.498 78.5274H274.39V26.5188H224.498V78.5274Z" fill="#E0E0E0"/>
<path d="M267.687 71.5302H231.201V33.4866H267.687V71.5302Z" fill="#FAFAFA"/>
<path d="M231.201 71.7948C231.231 71.8242 230.878 72.2358 230.29 72.8532C229.702 73.4706 228.879 74.2938 227.967 75.2052C227.056 76.0872 226.203 76.9104 225.586 77.469C224.969 78.057 224.557 78.3804 224.528 78.351C224.498 78.3216 224.851 77.9394 225.439 77.322C225.998 76.7046 226.821 75.852 227.762 74.97C228.673 74.0586 229.526 73.2354 230.143 72.6768C230.76 72.0888 231.172 71.7654 231.201 71.7948Z" fill="#E0E0E0"/>
<path d="M267.687 71.7065C267.716 71.6771 268.128 72.0299 268.745 72.5885C269.333 73.1765 270.186 73.9997 271.097 74.9111C271.979 75.8519 272.802 76.6751 273.361 77.3219C273.949 77.9393 274.272 78.3215 274.243 78.3509C274.214 78.3803 273.802 78.0569 273.214 77.4689C272.597 76.8809 271.744 76.0577 270.833 75.1463C269.951 74.2349 269.128 73.3823 268.569 72.7649C267.981 72.1181 267.658 71.7359 267.687 71.7065Z" fill="#E0E0E0"/>
<path d="M267.599 33.6042C267.569 33.5748 267.893 33.1632 268.481 32.5458C269.069 31.9284 269.892 31.1052 270.803 30.1938C271.715 29.3118 272.567 28.4886 273.185 27.93C273.802 27.342 274.214 27.0186 274.243 27.048C274.272 27.0774 273.92 27.4596 273.361 28.077C272.773 28.6944 271.95 29.547 271.009 30.429C270.098 31.3404 269.245 32.1636 268.628 32.7222C268.01 33.3102 267.599 33.6336 267.599 33.6042Z" fill="#E0E0E0"/>
<path d="M231.084 33.6924C231.055 33.7218 230.643 33.369 230.055 32.781C229.438 32.2224 228.585 31.3992 227.703 30.4878C226.792 29.547 225.968 28.7238 225.41 28.077C224.822 27.4596 224.498 27.0774 224.528 27.048C224.557 27.0186 224.969 27.342 225.586 27.93C226.174 28.518 227.027 29.3412 227.938 30.2526C228.85 31.164 229.643 32.0166 230.202 32.634C230.79 33.2808 231.113 33.663 231.084 33.6924Z" fill="#E0E0E0"/>
<path d="M267.599 71.5302C267.579 71.5302 267.569 71.4714 267.569 71.3538C267.569 71.2362 267.569 71.0598 267.569 70.8246C267.569 70.3542 267.559 69.6682 267.54 68.7666C267.54 66.9732 267.54 64.3566 267.51 61.0344C267.51 54.3606 267.481 44.8644 267.452 33.4866L267.599 33.6336C256.956 33.6336 244.49 33.663 231.201 33.663L231.348 33.4866C231.348 47.4516 231.348 60.5346 231.319 71.5302L231.201 71.4126C242.109 71.442 251.164 71.4714 257.544 71.4714C260.719 71.5008 263.218 71.5008 264.953 71.5008C265.795 71.5204 266.442 71.5302 266.893 71.5302C267.109 71.5302 267.285 71.5302 267.422 71.5302C267.52 71.5302 267.579 71.5302 267.599 71.5302C267.599 71.5498 267.54 71.5596 267.422 71.5596C267.305 71.5596 267.138 71.5596 266.922 71.5596C266.472 71.5596 265.835 71.5694 265.011 71.589C263.277 71.589 260.807 71.589 257.632 71.6184C251.252 71.6184 242.138 71.6478 231.201 71.6772H231.054V71.5302C231.054 60.5346 231.025 47.4516 231.025 33.4866V33.3396H231.201C244.49 33.3396 256.956 33.3396 267.599 33.369H267.716V33.4866C267.687 44.8938 267.657 54.4194 267.657 61.1226C267.628 64.4154 267.628 67.032 267.628 68.8254C267.608 69.7074 267.599 70.3836 267.599 70.854C267.599 71.0696 267.599 71.246 267.599 71.3832C267.599 71.5008 267.599 71.5498 267.599 71.5302Z" fill="#E0E0E0"/>
<path d="M255.515 58.6236H243.344V46.4226H255.515V58.6236Z" fill="#EBEBEB"/>
<path d="M202.39 270.333C201.361 269.451 199.038 266.629 200.832 263.336C201.478 262.16 202.86 261.542 204.124 261.013C205.389 260.484 206.712 260.043 207.741 259.132C209.71 257.485 210.24 254.692 211.563 252.487C213.062 249.929 215.855 247.989 218.795 248.136C222.176 248.283 224.998 251.047 226.263 254.192C227.556 257.338 227.586 260.837 227.615 264.218C227.615 266.099 227.556 268.216 226.174 269.48C224.881 270.656 222.97 270.686 221.265 270.627C215.11 270.431 208.956 270.245 202.801 270.068" fill="#F5F5F5"/>
<path fill-rule="evenodd" clip-rule="evenodd" d="M237.67 219.853L235.994 234.083H236.023L235.817 235.494L231.613 271.421C231.29 274.067 229.261 276.125 226.703 276.536C226.311 276.615 225.919 276.654 225.527 276.654H203.889L203.654 276.683C203.634 276.664 203.624 276.644 203.624 276.625C203.291 276.625 202.968 276.585 202.654 276.507C202.507 276.478 202.36 276.448 202.213 276.419C202.154 276.399 202.096 276.38 202.037 276.36C199.92 275.743 198.274 274.008 197.891 271.715L189.16 219.589H237.699L237.67 219.853ZM229.849 237.699H224.057L223.558 252.84H228.556L229.849 237.699ZM229.026 252.811H233.318L235.082 237.699H230.32L229.026 252.811ZM222.529 269.569L222.97 256.427H215.796L216.09 269.569H222.529ZM209.357 269.569H215.62L215.296 256.427H208.328L209.357 269.569ZM207.858 256.427H200.978C201.772 261.395 202.478 266.011 203.036 269.569H208.887L207.858 256.427ZM215.208 252.811L214.885 237.67H206.888L208.064 252.811H215.208ZM223.058 252.811L223.558 237.67H215.326L215.678 252.811H223.058ZM223.675 234.024L224.146 220.03H214.914L215.237 234.024H223.675ZM214.444 220.03H205.477L206.564 234.024H214.767L214.444 220.03ZM205.006 220.03H195.128C195.304 220.853 195.657 222.97 196.568 228.644C196.833 230.29 197.127 232.113 197.421 234.053H206.094L205.006 220.03ZM198.009 237.67C198.538 241.021 199.097 244.608 199.655 248.165C199.891 249.733 200.136 251.282 200.39 252.811H207.564L206.388 237.67H198.009ZM197.509 237.67H192.658L195.216 252.811H199.891C199.067 247.548 198.244 242.344 197.509 237.67ZM195.804 256.427L198.009 269.598H202.507C201.89 265.482 201.184 260.984 200.449 256.427H195.804ZM227.086 269.598L228.232 256.427H223.44L222.999 269.598H227.086ZM230.114 234.053L231.319 220.03H224.616L224.146 234.053H230.114ZM189.689 220.03L192.041 234.053H196.921C195.745 226.556 194.834 221.059 194.657 220.03H189.689ZM232.848 256.427H228.673L227.556 269.598H231.319L232.848 256.427ZM237.111 220H231.76L230.584 234.024H235.465L237.111 220Z" fill="#E0E0E0"/>
<path d="M265.335 277.183C265.335 277.271 208.916 277.33 139.356 277.33C69.7662 277.33 13.377 277.271 13.377 277.183C13.377 277.095 69.7662 277.036 139.356 277.036C208.916 277.036 265.335 277.095 265.335 277.183Z" fill="#263238"/>
<path d="M197.862 213.503L131.124 213.444C123.098 213.444 116.601 206.947 116.601 198.92L116.63 31.605C116.63 23.5494 123.157 17.052 131.183 17.052L197.921 17.1108C205.947 17.1108 212.445 23.6082 212.445 31.6344L212.415 198.95C212.415 206.976 205.888 213.503 197.862 213.503Z" fill="#4F4F4F"/>
<path d="M197.862 23.0201H184.897C183.162 23.0201 181.781 24.4901 181.781 26.2835L181.751 28.6355C181.751 30.4583 180.369 31.9283 178.635 31.9283L153.41 31.8989C151.675 31.8989 150.264 30.4289 150.264 28.6061V26.2835C150.264 24.4607 148.853 22.9907 147.118 22.9907H142.561H131.242C125.627 22.9613 121.07 27.5183 121.04 33.1631L121.011 196.48C121.011 202.096 125.568 206.653 131.183 206.653L197.804 206.682C203.419 206.711 207.976 202.154 208.005 196.51L208.035 33.1925C208.035 27.5771 203.478 23.0201 197.862 23.0201Z" fill="#FAFAFA"/>
<path d="M186.278 28.3121H185.543V29.3411H186.278V28.3121Z" fill="#263238"/>
<path d="M187.484 27.8418H186.749V29.3412H187.484V27.8418Z" fill="#263238"/>
<path d="M188.689 27.5183H187.954V29.3411H188.689V27.5183Z" fill="#263238"/>
<path d="M189.895 26.8422H189.16V29.3412H189.895V26.8422Z" fill="#263238"/>
<path fill-rule="evenodd" clip-rule="evenodd" d="M200.802 29.4H197.098C196.951 29.4 196.833 29.2824 196.833 29.1354V27.2832C196.833 27.1362 196.951 27.0186 197.098 27.0186H200.802C200.822 27.0186 200.841 27.0284 200.861 27.048C200.861 27.0676 200.861 27.0872 200.861 27.1068V27.6948H201.272C201.302 27.6948 201.331 27.7242 201.331 27.783V28.665C201.331 28.6944 201.302 28.7238 201.272 28.7238H200.861V29.3412C200.861 29.3706 200.831 29.4 200.802 29.4ZM200.743 27.1656H197.098C197.009 27.1656 196.951 27.2244 196.951 27.2832V29.1354C196.951 29.1942 197.009 29.253 197.098 29.253H200.743V28.665C200.743 28.6062 200.773 28.5768 200.802 28.5768H201.214V27.8418H200.802C200.773 27.8418 200.743 27.8124 200.743 27.783V27.1656Z" fill="#263238"/>
<path d="M197.274 28.959V27.4596H200.449V28.1358V28.2828V28.959H197.274Z" fill="#263238"/>
<path d="M193.423 29.253C193.423 29.106 193.305 28.9884 193.158 28.9884C193.011 28.9884 192.894 29.106 192.894 29.253C192.894 29.4 193.011 29.5176 193.158 29.5176C193.305 29.5176 193.423 29.4 193.423 29.253Z" fill="#263238"/>
<path d="M192.217 28.6062L192.57 28.959C192.717 28.812 192.923 28.7238 193.158 28.7238C193.393 28.7238 193.599 28.812 193.746 28.959L194.069 28.6062C193.834 28.371 193.511 28.224 193.158 28.224C192.805 28.224 192.482 28.371 192.217 28.6062Z" fill="#263238"/>
<path d="M193.158 27.4596C192.57 27.4596 192.07 27.6948 191.688 28.0476L192.041 28.4004C192.305 28.1064 192.717 27.93 193.158 27.93C193.599 27.93 193.981 28.1064 194.275 28.4004L194.628 28.0476C194.246 27.6948 193.717 27.4596 193.158 27.4596Z" fill="#263238"/>
<path d="M191.129 27.489L191.482 27.8418C191.894 27.4008 192.511 27.1362 193.158 27.1362C193.805 27.1362 194.422 27.4008 194.834 27.8418L195.187 27.489C194.657 26.9892 193.952 26.6658 193.158 26.6658C192.364 26.6658 191.629 26.9892 191.129 27.489Z" fill="#263238"/>
<path d="M168.991 47.481H164.493C164.199 47.481 163.935 47.2458 163.935 46.9518V43.8942C163.935 43.5708 164.199 43.3356 164.493 43.3356H168.991C169.285 43.3356 169.521 43.5708 169.521 43.8942V46.9518C169.521 47.2458 169.285 47.481 168.991 47.481Z" fill="#263238"/>
<path d="M165.17 43.6002H164.582V42.924C164.582 41.6598 165.522 40.7484 166.728 40.7484C167.963 40.7484 168.874 41.6598 168.874 42.924V43.365H168.286V42.924C168.286 41.9832 167.639 41.3364 166.728 41.3364C165.816 41.3364 165.17 41.9832 165.17 42.924V43.6002Z" fill="#263238"/>
<path d="M121.716 146.353C121.716 135.828 127.861 125.509 137.122 120.481C143.619 116.983 151.116 116.042 158.319 114.395C165.493 112.749 172.961 110.015 177.4 104.135C183.427 96.1674 182.28 84.8777 186.602 75.8813C190.512 67.7669 199.156 62.1515 208.152 61.8575V198.568C208.152 203.154 204.448 206.888 199.862 206.888H130.037C125.45 206.888 121.716 203.154 121.716 198.568V146.353Z" fill="#EBEBEB"/>
<path fill-rule="evenodd" clip-rule="evenodd" d="M136.416 75.1464C136.416 70.0602 139.091 67.0614 142.766 67.0614C146.441 67.0614 149.146 70.0602 149.146 75.1464C149.146 80.2032 146.441 83.2314 142.766 83.2314C139.091 83.2314 136.416 80.2032 136.416 75.1464ZM147.441 75.1464C147.441 70.8834 145.53 68.5608 142.766 68.5608C140.003 68.5608 138.092 70.8834 138.092 75.1464C138.092 79.38 140.003 81.732 142.766 81.732C145.53 81.732 147.441 79.38 147.441 75.1464Z" fill="#263238"/>
<path fill-rule="evenodd" clip-rule="evenodd" d="M162.964 74.9994C162.964 80.409 159.995 83.2314 155.673 83.2314C154.262 83.2314 152.91 82.9962 151.91 82.3788L152.557 81.0558C153.38 81.585 154.468 81.7908 155.673 81.7908C159.084 81.7908 161.289 79.5858 161.289 75.264C161.289 74.9112 161.289 74.4702 161.23 73.9704C160.436 75.7344 158.584 76.7046 156.379 76.7046C153.204 76.7046 150.999 74.8524 150.999 71.9418C150.999 68.943 153.351 67.0614 156.438 67.0614C160.671 67.0614 162.964 69.972 162.964 74.9994ZM160.701 71.8536C160.701 70.0896 159.26 68.4432 156.496 68.4432C154.203 68.4432 152.616 69.7662 152.616 71.883C152.616 73.9704 154.174 75.3228 156.614 75.3228C159.054 75.3228 160.701 73.8234 160.701 71.8536Z" fill="#263238"/>
<path d="M165.346 72.2652C165.346 71.5596 165.875 71.0598 166.551 71.0598C167.198 71.0598 167.786 71.5596 167.786 72.2652C167.786 72.9708 167.198 73.5294 166.551 73.5294C165.875 73.5294 165.346 72.9708 165.346 72.2652ZM165.346 81.9672C165.346 81.2616 165.875 80.7324 166.551 80.7324C167.198 80.7324 167.786 81.2616 167.786 81.9672C167.786 82.6728 167.198 83.202 166.551 83.202C165.875 83.202 165.346 82.6728 165.346 81.9672Z" fill="#263238"/>
<path d="M181.016 81.6438V83.0844H169.844V81.9378L176.459 75.4698C178.252 73.6764 178.605 72.618 178.605 71.5302C178.605 69.678 177.312 68.5608 174.871 68.5608C173.019 68.5608 171.579 69.1194 170.52 70.3248L169.374 69.3252C170.608 67.8552 172.578 67.0614 175.018 67.0614C178.223 67.0614 180.281 68.6784 180.281 71.3538C180.281 72.8826 179.811 74.235 177.664 76.3224L172.255 81.6438H181.016Z" fill="#263238"/>
<path fill-rule="evenodd" clip-rule="evenodd" d="M182.956 75.1464C182.956 70.0602 185.631 67.0614 189.306 67.0614C192.981 67.0614 195.657 70.0602 195.657 75.1464C195.657 80.2032 192.981 83.2314 189.306 83.2314C185.631 83.2314 182.956 80.2032 182.956 75.1464ZM193.981 75.1464C193.981 70.8834 192.07 68.5608 189.306 68.5608C186.543 68.5608 184.632 70.8834 184.632 75.1464C184.632 79.38 186.543 81.732 189.306 81.732C192.07 81.732 193.981 79.38 193.981 75.1464Z" fill="#263238"/>
<path d="M148.853 52.5084C148.853 58.8588 143.708 64.0038 137.387 64.0038C131.036 64.0038 125.891 58.8588 125.891 52.5084C125.891 46.1874 131.036 41.0424 137.387 41.0424C143.708 41.0424 148.853 46.1874 148.853 52.5084Z" fill="#E0E0E0"/>
<path d="M75.058 143.913C74.2348 143.325 73.2058 143.09 72.2944 142.649C71.3536 142.208 70.4716 141.443 70.3834 140.444C70.2658 138.944 71.9122 137.798 72.0004 136.298C72.1474 134.182 69.2662 133.006 68.8546 130.948C68.5018 129.213 69.9718 127.567 69.913 125.803C69.8542 124.068 68.3254 122.745 67.6492 121.128C66.0028 117.365 69.0016 112.543 66.7378 109.133C66.1204 108.221 65.209 107.575 64.4446 106.781C63.6802 106.016 63.004 104.987 63.0922 103.9L58.8292 101.959C57.418 99.7836 54.184 99.6954 51.7732 100.636C49.333 101.548 47.2162 103.223 44.6878 103.841C43.453 104.164 43.6294 102.341 42.3946 102.606C40.7776 102.929 38.7784 104.811 38.308 106.399C37.8376 108.074 37.4848 109.956 36.8674 111.602C36.2206 113.455 34.2508 114.719 34.0744 116.659C33.8686 118.923 36.1912 120.775 36.1912 123.039C36.1912 125.479 33.5158 127.655 34.3684 129.948C34.8682 131.242 36.3676 131.947 36.8968 133.241C37.6024 135.034 36.1618 137.004 36.3088 138.915C36.4264 140.826 38.0434 142.267 39.5428 143.413C45.3346 147.823 51.7438 151.528 58.6234 153.88C61.5928 154.909 64.7386 155.702 67.8844 155.408C71.0302 155.114 74.176 153.615 75.8224 150.94C77.1748 148.735 77.1748 145.442 75.058 143.913Z" fill="#263238"/>
<path d="M62.9158 102.841C62.1514 99.7542 59.623 97.1964 56.5948 96.3732C53.5372 95.55 50.068 96.4614 47.8336 98.7252C46.9222 99.6366 46.2166 100.754 45.1582 101.489C43.9234 102.312 43.747 102.047 42.3946 102.606C41.0422 103.135 38.5726 106.898 38.602 108.368L37.9258 114.748C37.9846 116.248 39.8956 117.071 41.3068 116.6C42.7474 116.101 43.6882 114.778 44.4232 113.484C45.1582 112.19 45.8638 110.779 47.0986 109.927C49.1272 108.486 51.8908 108.986 54.3016 109.486C56.7418 109.985 59.5642 110.338 61.4458 108.751C63.0922 107.369 63.445 104.899 62.9158 102.841Z" fill="#263238"/>
<path d="M64.2683 111.955C63.9743 107.78 61.2107 102.694 57.0653 103.135L44.1587 106.457C42.8945 106.575 41.9537 107.663 41.9831 108.927L43.4237 140.091C43.4041 140.11 43.3747 140.12 43.3355 140.12C43.3355 140.12 48.5981 151.263 57.1535 148.587C58.8293 148.029 57.3005 143.825 57.6533 141.943H57.7121C57.7415 141.708 57.7415 141.502 57.7415 141.296C58.0061 139.091 57.8003 137.004 57.8003 137.004C57.8003 134.505 57.8003 133.446 57.8003 133.476C57.8003 133.476 63.1217 132.594 64.2095 125.655C64.7387 122.216 64.5623 116.571 64.2683 111.955Z" fill="#FFBE9D"/>
<path d="M63.1801 117.277C63.2095 117.747 62.8273 118.159 62.3275 118.188C61.8277 118.217 61.4161 117.865 61.4161 117.394C61.3867 116.924 61.7689 116.512 62.2687 116.483C62.7685 116.453 63.1801 116.806 63.1801 117.277Z" fill="#263238"/>
<path d="M63.0333 114.895C62.9157 115.013 62.2395 114.513 61.2987 114.513C60.3285 114.513 59.6523 115.013 59.5347 114.895C59.4759 114.836 59.5935 114.631 59.8875 114.395C60.2109 114.19 60.7107 113.954 61.2987 113.954C61.9161 113.954 62.4159 114.19 62.6805 114.395C62.9745 114.631 63.0921 114.836 63.0333 114.895Z" fill="#263238"/>
<path d="M54.1547 117.6C54.1547 118.041 53.7726 118.453 53.3022 118.482C52.8024 118.511 52.3907 118.159 52.3907 117.688C52.3613 117.218 52.7436 116.806 53.2434 116.777C53.7138 116.747 54.1253 117.13 54.1547 117.6Z" fill="#263238"/>
<path d="M53.6255 115.101C53.5373 115.219 52.8611 114.719 51.8909 114.719C50.9501 114.719 50.2445 115.189 50.1269 115.072C50.0975 115.042 50.1857 114.807 50.5091 114.601C50.8031 114.366 51.3029 114.16 51.9203 114.16C52.5083 114.16 53.0081 114.366 53.3021 114.601C53.5961 114.836 53.6843 115.042 53.6255 115.101Z" fill="#263238"/>
<path d="M57.1238 122.186C57.1238 122.128 57.7118 122.01 58.682 121.892C58.9172 121.863 59.1524 121.804 59.1818 121.657C59.2406 121.481 59.1524 121.216 59.0348 120.922C58.7996 120.334 58.5546 119.717 58.2998 119.07C57.3002 116.424 56.5652 114.248 56.6828 114.219C56.771 114.16 57.6824 116.277 58.682 118.923C58.9368 119.57 59.172 120.197 59.3876 120.805C59.4758 121.069 59.6228 121.393 59.5052 121.745C59.4464 121.922 59.27 122.069 59.123 122.098C58.9466 122.157 58.829 122.157 58.7114 122.157C57.7412 122.216 57.1238 122.216 57.1238 122.186Z" fill="#263238"/>
<path d="M57.8001 133.476C57.8001 133.476 53.1549 133.799 48.5391 131.036C48.5391 131.036 50.7735 135.769 57.7119 135.122L57.8001 133.476Z" fill="#EB996E"/>
<path d="M56.7124 124.48C56.389 124.009 55.7716 123.774 55.1836 123.833C54.772 123.892 54.331 124.097 54.0958 124.421C53.8312 124.774 53.8018 125.244 54.0076 125.567C54.2722 125.92 54.8308 126.008 55.2718 125.891C55.7422 125.744 56.1244 125.45 56.5066 125.156C56.5948 125.068 56.7124 124.979 56.7712 124.862C56.83 124.744 56.8594 124.597 56.7712 124.509" fill="#EB996E"/>
<path d="M54.3015 122.833C54.4779 122.833 54.4779 123.862 55.3599 124.597C56.2419 125.332 57.3591 125.215 57.3591 125.362C57.3885 125.42 57.1239 125.567 56.6535 125.567C56.1831 125.597 55.5363 125.45 54.9777 125.009C54.4485 124.538 54.2133 123.95 54.1545 123.539C54.1251 123.098 54.2427 122.833 54.3015 122.833Z" fill="#263238"/>
<path d="M54.0663 113.425C53.9781 113.69 53.008 113.543 51.8908 113.69C50.7736 113.807 49.8622 114.131 49.7152 113.896C49.6564 113.807 49.8033 113.543 50.1855 113.308C50.5383 113.043 51.1264 112.808 51.7732 112.72C52.4494 112.661 53.0667 112.749 53.4783 112.925C53.8899 113.102 54.0957 113.278 54.0663 113.425Z" fill="#263238"/>
<path d="M62.6804 112.132C62.504 112.337 61.8572 112.132 61.0634 112.102C60.2696 112.073 59.5934 112.249 59.4464 112.043C59.3876 111.926 59.4758 111.691 59.7698 111.485C60.0638 111.279 60.5342 111.132 61.0928 111.132C61.622 111.161 62.0924 111.338 62.3864 111.573C62.651 111.808 62.7392 112.014 62.6804 112.132Z" fill="#263238"/>
<path d="M56.8595 101.371L56.2715 100.636C52.2731 101.077 48.3335 102.077 44.5997 103.606C43.1297 104.194 41.6009 104.929 40.6013 106.163C39.1901 107.898 38.9549 110.25 38.8079 112.455C38.1905 120.863 37.6907 129.507 40.3367 137.533C40.9835 136.504 42.2183 136.034 43.3943 135.799C44.5997 135.593 45.8345 135.505 46.8929 134.946C48.0689 134.358 48.9509 133.211 49.2743 131.918C49.5977 130.654 49.4213 129.242 48.8333 128.066C48.1865 126.743 47.0399 125.45 47.3339 123.98C47.6279 122.48 49.3625 121.598 49.7741 120.099C50.4797 117.541 46.8635 115.219 47.5985 112.631C47.8631 111.691 48.6863 110.985 49.5977 110.544C50.4797 110.103 51.4499 109.868 52.3319 109.456C55.3307 108.074 57.2417 104.664 56.8595 101.371Z" fill="#263238"/>
<path d="M91.816 154.203L83.731 166.786C83.731 166.786 84.613 168.285 86.5534 168.197C88.5232 168.138 91.1986 163.258 91.522 162.288C91.8454 161.288 91.4044 160.347 91.6984 159.671C91.9924 159.024 91.8748 157.231 91.8748 157.231C91.816 157.319 93.6094 154.938 91.816 154.203Z" fill="#FFBE9D"/>
<path d="M81.4668 166.786L85.7004 150.087C85.818 149.587 86.1414 149.176 86.6118 148.911L92.727 145.412C93.1092 145.207 93.5796 145.324 93.8442 145.648C93.9912 145.853 94.0206 146.118 93.9618 146.353L89.493 163.934L81.4668 166.786Z" fill="#263238"/>
<path d="M79.3502 179.722L89.1404 161.612L85.4654 156.849L71.6768 167.315L75.293 177.252L79.3502 179.722Z" fill="#D3D3D3"/>
<path d="M89.2581 165.551C89.2287 165.522 89.4051 165.287 89.4639 164.816C89.5227 164.316 89.4933 163.582 89.2581 162.7L89.2287 162.67L89.2581 162.641C89.4051 162.376 89.4933 162.023 89.3757 161.7C89.2875 161.377 89.0229 161.082 88.6995 160.847L88.5819 160.789L88.6701 160.671C89.0033 160.142 89.3659 159.583 89.7579 158.995C89.8755 158.878 89.9931 158.701 90.0225 158.584C90.0813 158.437 90.0519 158.29 89.9931 158.143C89.8755 157.849 89.5815 157.584 89.3169 157.378L89.1699 157.261L89.2875 157.143C89.5815 156.79 89.9049 156.467 90.2577 156.114C90.8457 155.497 91.4043 154.879 91.8747 154.232C92.1099 153.938 92.3157 153.615 92.4627 153.292C92.5509 153.115 92.6097 152.968 92.6097 152.792C92.6391 152.645 92.5509 152.557 92.4627 152.557H92.4333V152.527C92.2863 152.498 92.0805 152.556 91.8747 152.615C91.6787 152.694 91.4925 152.782 91.3161 152.88C90.9633 153.086 90.6105 153.262 90.3165 153.468C89.6991 153.88 89.1699 154.262 88.7289 154.556C88.3369 154.85 88.0037 155.095 87.7293 155.291C87.4941 155.467 87.3765 155.555 87.3765 155.526C87.3471 155.526 87.4647 155.408 87.6705 155.232C87.9057 155.026 88.2291 154.762 88.6407 154.438C89.0523 154.085 89.5815 153.703 90.1989 153.292C90.4929 153.086 90.8163 152.851 91.1985 152.645C91.3749 152.547 91.5709 152.459 91.7865 152.38C91.9923 152.292 92.2275 152.204 92.5215 152.292L92.4921 152.263C92.7861 152.292 92.9331 152.615 92.9037 152.821C92.8743 153.027 92.8155 153.233 92.7273 153.409C92.5803 153.762 92.3451 154.085 92.1099 154.409C91.6395 155.085 91.0515 155.702 90.4635 156.32C90.1401 156.673 89.8167 156.996 89.4933 157.349V157.114C89.8167 157.349 90.1107 157.643 90.2577 158.025C90.3459 158.231 90.3753 158.466 90.3165 158.672C90.2283 158.878 90.1107 158.995 90.0225 159.172C89.6109 159.74 89.2287 160.289 88.8759 160.818L88.8465 160.642C89.1993 160.906 89.4933 161.23 89.6109 161.641C89.7285 162.023 89.6403 162.435 89.4345 162.729L89.4639 162.67C89.6697 163.552 89.6697 164.316 89.5815 164.816C89.5227 165.081 89.4345 165.257 89.3757 165.375C89.3169 165.493 89.2777 165.551 89.2581 165.551Z" fill="#EB996E"/>
<path d="M93.8442 145.647C93.8442 145.677 93.6678 145.794 93.315 146C92.9916 146.235 92.4918 146.529 91.9038 146.882C91.257 147.264 90.5514 147.676 89.7576 148.146C89.346 148.382 88.9148 148.627 88.464 148.881C88.023 149.117 87.5526 149.381 87.1998 149.734C86.8176 150.057 86.6706 150.557 86.553 151.057C86.4158 151.547 86.2884 152.017 86.1708 152.468C85.9356 153.35 85.7298 154.173 85.524 154.879C85.3476 155.555 85.2006 156.114 85.083 156.496C84.9654 156.878 84.8772 157.084 84.8772 157.055C84.8478 157.055 84.8772 156.849 84.9654 156.467C85.0242 156.055 85.1712 155.496 85.3182 154.82C85.4946 154.115 85.7004 153.291 85.9062 152.409C86.0238 151.939 86.1414 151.459 86.259 150.969C86.3766 150.469 86.553 149.91 86.9646 149.499C87.4056 149.117 87.876 148.852 88.317 148.617C88.7678 148.362 89.199 148.127 89.6106 147.911C90.4044 147.47 91.1394 147.059 91.7862 146.706C92.4036 146.353 92.9034 146.088 93.2562 145.912C93.609 145.736 93.8148 145.647 93.8442 145.647Z" fill="#4F4F4F"/>
<path d="M89.7578 151.351C89.6108 151.733 89.6108 152.057 89.7284 152.116C89.846 152.174 90.0812 151.939 90.2282 151.557C90.4046 151.204 90.4046 150.851 90.287 150.793C90.14 150.763 89.9342 150.998 89.7578 151.351Z" fill="white"/>
<path d="M59.2407 141.238C63.5037 142.766 66.9729 145.942 68.8839 150.028L82.0551 178.046L93.4035 182.633L83.4075 185.514L74.5287 178.987L59.2407 141.238Z" fill="#D3D3D3"/>
<path d="M83.4079 185.514L78.6451 189.189L54.8016 164.669L41.1895 140.091L42.7771 135.505L53.3023 139.885L57.0655 145.471L57.9181 138.386L58.5943 139.356L59.6821 142.325C59.6821 142.325 70.0309 150.94 72.2653 157.76C74.1175 163.435 73.5294 175.195 74.6761 178.399L83.4079 185.514Z" fill="#FAFAFA"/>
<path d="M38.6314 139.767C38.4844 140.238 28.459 144.266 27.9886 147.764C27.4888 151.292 35.1916 178.428 35.1916 178.428L47.3632 189.189H78.6448L68.7076 170.608C66.5614 166.61 63.886 162.935 60.6814 159.701C57.7414 156.731 54.184 153.056 52.3612 150.851C50.3914 148.47 41.983 137.357 41.983 137.357L38.6314 139.767Z" fill="#D3D3D3"/>
<path d="M44.9228 140.885C44.9228 140.826 45.599 141.149 46.6868 141.678C47.7746 142.208 49.2446 142.943 50.8616 143.766C51.5084 144.119 52.1258 144.442 52.7138 144.736L52.508 144.883C52.4198 143.56 52.5374 142.384 52.6844 141.59C52.8314 140.796 53.0078 140.355 53.0372 140.355C53.0666 140.385 52.9784 140.826 52.8608 141.62C52.7726 142.413 52.6844 143.56 52.7726 144.854L52.802 145.118L52.5668 145.001C52.0082 144.707 51.3614 144.383 50.7146 144.06C49.0976 143.207 47.6276 142.443 46.5986 141.855C45.5402 141.296 44.8934 140.914 44.9228 140.885Z" fill="#263238"/>
<path d="M69.0312 165.64C69.0018 165.64 68.8254 165.346 68.5314 164.846C68.1786 164.258 67.767 163.523 67.2378 162.611C66.1794 160.73 64.68 158.172 63.0042 155.32C61.299 152.498 59.7408 149.969 58.6236 148.147C58.065 147.265 57.624 146.53 57.2712 145.971C56.9478 145.442 56.8008 145.148 56.8008 145.148C56.8302 145.118 57.036 145.383 57.3594 145.883C57.7122 146.383 58.212 147.118 58.8 148.029C59.976 149.822 61.5636 152.351 63.2688 155.173C64.9446 157.996 66.4146 160.612 67.4436 162.523C67.9434 163.464 68.355 164.228 68.6196 164.787C68.8842 165.316 69.0312 165.61 69.0312 165.64Z" fill="#263238"/>
<g opacity="0.3">
<path d="M64.2094 184.544C66.0322 184.867 67.8844 185.161 69.7072 184.808C71.5006 184.485 73.2646 183.338 73.8526 181.574C74.029 181.045 74.0878 180.398 74.5288 180.016C75.2344 179.369 76.3516 179.752 77.2924 179.663C78.3508 179.575 79.2622 178.811 79.7914 177.899C80.35 177.017 80.6146 175.959 80.8498 174.93C80.9674 174.401 81.1144 173.872 81.0556 173.372C80.9968 172.843 80.7028 172.313 80.2324 172.108C79.5268 171.784 78.7036 172.255 78.0568 172.696C72.9118 176.429 68.2078 180.722 63.5332 185.014" fill="black"/>
</g>
<path d="M75.8811 163.817C75.8811 163.817 77.6745 159.701 78.6447 159.142C79.5855 158.584 84.3483 155.791 84.3483 155.791L83.7309 158.054L88.3761 154.82C88.9641 154.438 92.2569 151.439 92.8449 152.615C93.2859 153.468 90.5811 155.702 90.1989 156.202C89.3169 157.437 89.6109 157.319 89.6109 157.319C89.6109 157.319 90.5811 157.907 90.0813 158.789C89.6109 159.671 88.7583 160.73 88.7583 160.73C88.7583 160.73 90.0519 161.2 89.3169 162.876C89.3169 162.876 89.6403 163.787 89.4345 165.052C89.2287 166.286 86.9649 168.668 86.9649 168.668L75.6459 174.077L71.0889 166.316L75.8811 163.817Z" fill="#FFBE9D"/>
<path d="M49.5387 156.085L56.8005 171.578L72.8823 164.581C72.8823 164.581 79.5561 168.491 78.6447 172.754L64.1505 184.661C61.3869 186.896 57.8589 187.925 54.3309 187.513C50.5383 187.043 47.1573 184.926 45.0405 181.751L34.5741 165.787L28.6941 156.202C26.8125 153.115 26.8125 149.176 28.9293 146.265C29.5173 145.471 30.2229 144.824 31.0167 144.325C33.6333 142.737 41.4243 142.031 49.5387 156.085Z" fill="#D3D3D3"/>
<path d="M85.2304 156.996C85.2598 157.055 84.2014 157.79 82.849 158.613C81.526 159.436 80.3794 160.054 80.35 159.995C80.2912 159.936 81.3496 159.201 82.702 158.378C84.0544 157.525 85.1716 156.908 85.2304 156.996Z" fill="#EB996E"/>
<path d="M89.7579 156.849C89.8166 156.908 88.8759 157.937 87.6411 159.113C86.4357 160.318 85.3773 161.259 85.3185 161.2C85.2597 161.141 86.2299 160.112 87.4353 158.907C88.6701 157.701 89.699 156.79 89.7579 156.849Z" fill="#EB996E"/>
<path d="M89.1404 160.347C89.1992 160.377 88.7582 160.994 88.1702 161.729C87.5528 162.435 87.0236 162.964 86.9354 162.905C86.8766 162.876 87.3176 162.258 87.935 161.523C88.5524 160.818 89.0816 160.289 89.1404 160.347Z" fill="#EB996E"/>
<path d="M89.3465 162.7C89.4053 162.729 89.1701 163.111 88.8467 163.582C88.5233 164.023 88.2587 164.405 88.1999 164.346C88.1117 164.317 88.2881 163.876 88.6115 163.405C88.9349 162.935 89.2877 162.641 89.3465 162.7Z" fill="#EB996E"/>
<path d="M61.6811 186.19C61.6615 186.19 61.6811 186.161 61.7399 186.102C61.7987 186.063 61.8771 186.004 61.9751 185.925C62.1907 185.749 62.4945 185.504 62.8865 185.19C63.7097 184.544 64.8857 183.603 66.3557 182.427C69.3839 180.075 73.6469 176.723 78.7625 172.695L78.7037 172.813C78.7037 172.019 78.5861 171.196 78.2627 170.432C77.9099 169.667 77.4689 168.932 76.9103 168.256C75.7931 166.904 74.3819 165.698 72.7943 164.728H72.9413C70.2659 165.875 67.4729 167.109 64.6211 168.344C61.9457 169.491 59.3585 170.637 56.8595 171.725L56.7125 171.784L56.6537 171.637C54.5369 167.433 52.5671 163.493 50.5679 160.053C49.5683 158.348 48.5687 156.731 47.6573 155.261C46.7165 153.762 45.8639 152.38 45.0113 151.204C43.3355 148.793 41.4245 147.323 40.0133 146.559C39.6605 146.353 39.3371 146.206 39.0431 146.059C38.7687 145.922 38.5335 145.814 38.3375 145.736C38.1611 145.657 38.0141 145.589 37.8965 145.53C37.7985 145.491 37.7495 145.471 37.7495 145.471C37.7495 145.471 38.6021 145.706 40.0427 146.471C40.7777 146.853 41.6303 147.382 42.5123 148.146C43.3943 148.911 44.3057 149.91 45.1583 151.086C46.0403 152.292 46.9223 153.644 47.8337 155.144C48.7745 156.614 49.7741 158.201 50.7737 159.936C52.8023 163.376 54.7721 167.315 56.9183 171.519L56.7419 171.431C59.2409 170.343 61.8281 169.226 64.5035 168.08C67.3553 166.815 70.1483 165.61 72.8237 164.463L72.8825 164.434L72.9707 164.463C74.5877 165.463 75.9989 166.698 77.1455 168.08C77.7041 168.785 78.1745 169.52 78.5273 170.314C78.8507 171.137 78.9977 171.99 78.9683 172.813V172.872L78.9389 172.931C73.7939 176.9 69.5015 180.222 66.4439 182.544C64.9445 183.72 63.7685 184.602 62.9453 185.249C62.5337 185.543 62.2201 185.778 62.0045 185.955C61.9065 186.033 61.8183 186.092 61.7399 186.131C61.7007 186.17 61.6811 186.19 61.6811 186.19Z" fill="#263238"/>
<path d="M55.8303 176.459C55.7421 176.4 56.1831 175.312 56.4183 173.872C56.6829 172.431 56.6535 171.255 56.7711 171.255C56.8299 171.226 57.0063 172.46 56.7417 173.93C56.4771 175.4 55.8891 176.488 55.8303 176.459Z" fill="#263238"/>
<path d="M144.324 221.941L152.762 232.495C152.762 232.495 166.316 227.468 168.05 229.291L148.176 246.343L134.387 230.437L144.324 221.941Z" fill="#4F4F4F"/>
<g opacity="0.6">
<path d="M145.883 236.905C145.589 237.346 145.677 238.022 146.118 238.316C146.53 238.64 147.206 238.522 147.5 238.111C147.794 237.67 147.706 236.876 147.235 236.611C146.794 236.347 146 236.523 145.824 236.993" fill="white"/>
</g>
<g opacity="0.6">
<path d="M148.176 246.343L146.853 244.696L166.404 228.938C166.404 228.938 167.639 228.556 168.05 229.291L148.176 246.343Z" fill="white"/>
</g>
<path d="M152.997 232.113C153.085 232.231 152.615 232.672 152.409 233.407C152.174 234.112 152.292 234.759 152.174 234.788C152.086 234.847 151.733 234.142 151.998 233.26C152.262 232.407 152.938 232.025 152.997 232.113Z" fill="#263238"/>
<path d="M155.82 231.202C155.908 231.26 155.643 231.79 155.673 232.495C155.673 233.171 155.967 233.701 155.878 233.789C155.79 233.877 155.232 233.348 155.232 232.495C155.202 231.643 155.731 231.113 155.82 231.202Z" fill="#263238"/>
<path d="M159.142 232.672C159.083 232.76 158.524 232.407 158.319 231.643C158.113 230.908 158.377 230.32 158.495 230.349C158.613 230.378 158.554 230.908 158.73 231.525C158.907 232.142 159.23 232.583 159.142 232.672Z" fill="#263238"/>
<path d="M150.793 229.937C150.851 230.055 150.293 230.29 149.764 230.819C149.234 231.319 148.97 231.848 148.852 231.819C148.735 231.79 148.852 231.084 149.47 230.496C150.058 229.879 150.793 229.82 150.793 229.937Z" fill="#263238"/>
<g opacity="0.3">
<path d="M146 224.028L147.499 225.91L137.65 234.23L136.239 232.583L146 224.028Z" fill="black"/>
</g>
<path d="M149.058 227.821C149.117 227.879 148.764 228.262 148.058 228.673C147.706 228.879 147.265 229.085 146.765 229.261C146.49 229.34 146.206 229.398 145.912 229.438C145.765 229.467 145.618 229.496 145.412 229.467C145.236 229.467 144.942 229.261 144.942 228.997C144.913 228.761 145.03 228.526 145.177 228.409C145.295 228.262 145.442 228.203 145.589 228.144C145.844 228.007 146.108 227.899 146.383 227.821C146.912 227.644 147.412 227.615 147.823 227.615C148.646 227.644 149.117 227.879 149.087 227.938C149.087 227.997 148.588 227.879 147.823 227.938C147.441 227.968 146.971 228.056 146.5 228.203C146.265 228.281 146.03 228.389 145.795 228.526C145.53 228.644 145.354 228.791 145.383 228.938C145.383 228.997 145.383 228.997 145.501 229.026C145.589 229.055 145.706 229.026 145.853 228.997C146.128 228.977 146.392 228.928 146.647 228.85C147.147 228.732 147.559 228.556 147.911 228.409C148.617 228.085 149.029 227.762 149.058 227.821Z" fill="#263238"/>
<path d="M149.058 228.085C149.029 228.115 148.558 227.938 147.97 227.35C147.676 227.056 147.382 226.645 147.176 226.145C147.059 225.89 146.971 225.616 146.912 225.322C146.853 225.028 146.765 224.645 147.118 224.263C147.294 224.087 147.588 224.116 147.764 224.175C147.941 224.263 148.058 224.381 148.176 224.469C148.411 224.675 148.617 224.881 148.764 225.145C149.058 225.616 149.176 226.115 149.205 226.527C149.264 227.38 148.97 227.85 148.911 227.821C148.852 227.791 149.029 227.321 148.911 226.556C148.852 226.204 148.705 225.763 148.411 225.351C148.264 225.145 148.117 224.969 147.911 224.792C147.676 224.616 147.47 224.498 147.412 224.587C147.294 224.675 147.265 224.998 147.323 225.233C147.382 225.488 147.461 225.733 147.559 225.968C147.735 226.439 147.97 226.821 148.205 227.144C148.676 227.732 149.087 228.026 149.058 228.085Z" fill="#263238"/>
<path d="M135.181 254.486L134.652 268.275C134.652 268.275 148.5 273.449 148.676 276.007L121.863 275.978L121.775 254.427L135.181 254.486Z" fill="#4F4F4F"/>
<g opacity="0.6">
<path d="M126.361 267.099C125.832 267.246 125.479 267.834 125.597 268.363C125.714 268.892 126.302 269.245 126.832 269.127C127.361 268.98 127.802 268.304 127.625 267.804C127.449 267.275 126.743 266.893 126.273 267.128" fill="white"/>
</g>
<g opacity="0.6">
<path d="M121.863 275.978L121.922 273.802L147.618 274.655C147.618 274.655 148.794 275.184 148.676 276.007L121.863 275.978Z" fill="white"/>
</g>
<path d="M135.093 268.157C135.093 268.275 134.417 268.334 133.77 268.775C133.123 269.157 132.8 269.716 132.682 269.686C132.565 269.657 132.741 268.863 133.535 268.363C134.329 267.863 135.123 268.04 135.093 268.157Z" fill="#263238"/>
<path d="M137.886 269.333C137.915 269.451 137.357 269.657 136.916 270.215C136.445 270.774 136.328 271.362 136.21 271.362C136.093 271.362 136.004 270.597 136.563 269.921C137.122 269.245 137.886 269.186 137.886 269.333Z" fill="#263238"/>
<path d="M139.474 272.685C139.356 272.714 139.18 272.067 139.533 271.332C139.856 270.627 140.473 270.333 140.532 270.45C140.591 270.568 140.209 270.95 139.944 271.538C139.65 272.126 139.621 272.685 139.474 272.685Z" fill="#263238"/>
<path d="M134.858 264.982C134.799 265.1 134.211 264.923 133.447 264.982C132.712 265.011 132.153 265.247 132.065 265.158C132.006 265.041 132.565 264.57 133.447 264.512C134.299 264.482 134.917 264.894 134.858 264.982Z" fill="#263238"/>
<g opacity="0.3">
<path d="M135.064 257.22L134.976 259.661L121.804 259.514L121.775 257.309L135.064 257.22Z" fill="black"/>
</g>
<path d="M134.917 262.189C134.917 262.248 134.387 262.336 133.564 262.189C133.153 262.13 132.682 261.983 132.153 261.748C131.898 261.65 131.643 261.513 131.389 261.336C131.271 261.278 131.124 261.189 130.977 261.042C130.83 260.895 130.771 260.543 130.918 260.337C131.065 260.131 131.3 260.043 131.506 260.043C131.712 260.043 131.859 260.072 132.006 260.102C132.3 260.18 132.574 260.278 132.829 260.396C133.358 260.631 133.77 260.925 134.093 261.219C134.711 261.777 134.917 262.277 134.858 262.307C134.799 262.336 134.505 261.924 133.888 261.454C133.564 261.219 133.153 260.984 132.682 260.778C132.447 260.68 132.192 260.601 131.918 260.543C131.624 260.454 131.389 260.454 131.3 260.601C131.271 260.631 131.271 260.66 131.33 260.748C131.389 260.807 131.506 260.895 131.624 260.984C131.879 261.14 132.114 261.268 132.329 261.366C132.8 261.601 133.27 261.777 133.652 261.866C134.417 262.101 134.917 262.13 134.917 262.189Z" fill="#263238"/>
<path d="M134.741 262.395C134.682 262.424 134.447 261.954 134.388 261.101C134.358 260.66 134.417 260.16 134.564 259.631C134.662 259.357 134.78 259.082 134.917 258.808C135.064 258.543 135.27 258.191 135.77 258.132C136.034 258.132 136.269 258.338 136.328 258.514C136.416 258.69 136.446 258.837 136.475 259.014C136.534 259.308 136.505 259.631 136.475 259.896C136.387 260.484 136.152 260.954 135.887 261.278C135.358 261.983 134.829 262.13 134.799 262.101C134.77 262.042 135.24 261.777 135.623 261.101C135.828 260.778 136.005 260.337 136.064 259.837C136.093 259.602 136.093 259.337 136.034 259.073C136.005 258.779 135.887 258.573 135.77 258.602C135.652 258.573 135.417 258.808 135.299 259.014C135.162 259.269 135.054 259.514 134.976 259.749C134.799 260.249 134.741 260.69 134.711 261.101C134.682 261.895 134.799 262.365 134.741 262.395Z" fill="#263238"/>
<path d="M121.569 189.189L148.117 224.44L135.71 235.112L122.921 218.413L121.569 189.189Z" fill="#202224"/>
<path d="M65.415 190.865C65.415 190.865 108.104 177.87 112.014 178.046C115.924 178.193 123.333 192.305 123.333 192.305L111.338 191.894C108.28 199.42 102.606 207.182 96.1968 215.002L71.7066 213.885L65.415 190.865Z" fill="#202224"/>
<path d="M100.283 180.604C100.313 180.692 95.9323 182.045 90.4933 183.662C85.0543 185.279 80.6443 186.543 80.6149 186.455C80.5855 186.367 84.9661 184.985 90.4051 183.368C95.8441 181.751 100.283 180.516 100.283 180.604Z" fill="#263238"/>
<path d="M110.221 191.659H122.187C128.184 191.659 133.506 195.422 135.505 201.067C136.416 203.713 136.828 206.535 136.71 209.357L135.769 258.103H119.629L119.335 242.521L117.306 212.915L103.341 213.503L95.4326 213.003L110.221 191.659Z" fill="#202224"/>
<path d="M110.573 191.423C110.603 191.423 110.515 191.776 110.338 192.452C110.191 193.099 109.897 194.04 109.486 195.187C109.074 196.333 108.515 197.686 107.722 199.067C106.928 200.479 105.958 201.978 104.811 203.419C102.459 206.3 100.019 208.622 98.2842 210.298C97.4316 211.121 96.726 211.798 96.2262 212.297C95.7264 212.768 95.4324 213.003 95.4324 213.003C95.403 212.974 95.6676 212.709 96.138 212.209C96.579 211.709 97.2846 211.004 98.1372 210.151C99.813 208.417 102.253 206.094 104.546 203.213C106.869 200.361 108.427 197.362 109.309 195.128C109.721 193.981 110.044 193.07 110.221 192.423C110.426 191.776 110.544 191.394 110.573 191.423Z" fill="#4F4F4F"/>
<path d="M125.244 191.982C125.215 192.041 124.391 191.953 123.039 191.864C121.716 191.806 119.864 191.747 117.806 191.776C115.748 191.835 113.896 191.953 112.543 192.041C111.22 192.129 110.397 192.188 110.368 192.158C110.368 192.129 110.573 192.1 110.956 192.041C111.338 191.982 111.867 191.894 112.543 191.835C113.866 191.688 115.748 191.512 117.806 191.482C119.864 191.453 121.716 191.541 123.068 191.659C123.745 191.717 124.274 191.806 124.656 191.864C125.038 191.923 125.244 191.953 125.244 191.982Z" fill="#4F4F4F"/>
<path d="M119.57 249.194C119.55 249.194 119.531 249.057 119.511 248.783C119.511 248.489 119.491 248.107 119.452 247.636C119.423 246.578 119.335 245.108 119.276 243.344C119.1 239.698 118.894 234.7 118.541 229.173C118.188 223.675 117.777 218.677 117.483 215.061C117.336 213.268 117.218 211.827 117.13 210.769C117.11 210.298 117.091 209.916 117.071 209.622C117.051 209.348 117.042 209.21 117.042 209.21C117.061 209.21 117.091 209.338 117.13 209.593C117.149 209.887 117.188 210.279 117.247 210.769C117.365 211.798 117.512 213.268 117.718 215.032C118.071 218.648 118.511 223.646 118.864 229.173C119.188 234.7 119.394 239.698 119.482 243.314C119.511 245.108 119.57 246.578 119.57 247.607C119.57 248.097 119.58 248.489 119.599 248.783C119.599 249.057 119.59 249.194 119.57 249.194Z" fill="#263238"/>
<path d="M136.74 207.476C136.828 207.476 136.769 218.648 136.593 232.407C136.446 246.196 136.24 257.368 136.181 257.368C136.093 257.368 136.152 246.196 136.299 232.407C136.446 218.648 136.651 207.476 136.74 207.476Z" fill="#4F4F4F"/>
<path d="M123.568 205.653C123.597 205.741 121.922 206.153 120.128 207.27C118.335 208.358 117.188 209.681 117.129 209.593C117.1 209.593 117.335 209.21 117.835 208.711C118.305 208.211 119.04 207.564 119.952 207.005C120.893 206.447 121.775 206.065 122.451 205.888C123.127 205.682 123.568 205.624 123.568 205.653Z" fill="#263238"/>
<g opacity="0.3">
<path d="M95.4326 213.003C98.696 213.591 102.253 212.621 105.046 210.857C107.839 209.122 109.897 206.329 110.691 203.213C111.044 201.802 111.162 200.332 111.514 198.92C111.867 197.539 112.514 196.127 113.69 195.245C115.042 194.216 118.423 193.57 119.423 192.217C119.423 192.011 115.425 192.482 114.102 192.541C112.632 192.629 110.191 193.011 110.25 192.835C110.25 192.835 109.28 196.245 108.839 196.98C105.928 201.978 99.5486 209.299 95.4326 213.003Z" fill="black"/>
</g>
<path d="M28.8999 247.519L33.4275 277.183H37.9551L35.7207 247.636L28.8999 247.519Z" fill="#263238"/>
<path d="M108.75 247.636V277.183H113.513L115.277 247.519L108.75 247.636Z" fill="#263238"/>
<path d="M28.1063 155.791C28.1063 155.791 21.7559 156.055 19.7861 158.731C16.3757 163.405 18.2867 167.492 18.1103 168.874C17.9045 170.255 28.9001 247.519 28.9001 247.519H33.4277L115.277 248.283L119.187 238.728L117.306 212.915L95.4323 213.003C95.4323 213.003 86.4653 187.278 78.6449 185.573C73.3235 184.397 60.8579 184.808 53.3609 185.191C49.6271 185.396 46.0697 183.574 44.0411 180.428L28.1063 155.791Z" fill="#4F4F4F"/>
<path d="M100.636 244.49C100.636 244.49 100.195 244.549 99.3133 244.578C98.4313 244.608 97.1671 244.637 95.4913 244.667C92.1691 244.696 87.3769 244.725 81.3793 244.725C69.3547 244.696 52.6261 244.608 33.7219 244.461L33.6043 244.431L33.5749 244.314C33.2417 242.707 32.8987 241.05 32.5459 239.345C32.1931 237.66 31.8501 235.945 31.5169 234.2C27.4009 213.267 24.9901 194.069 23.6965 180.163C23.0497 173.195 22.6675 167.55 22.4029 163.64C22.3147 161.7 22.2265 160.2 22.1677 159.142C22.1481 158.652 22.1285 158.27 22.1089 157.995C22.0893 157.721 22.0893 157.584 22.1089 157.584C22.1089 157.584 22.1187 157.721 22.1383 157.995C22.1579 158.27 22.1873 158.652 22.2265 159.142C22.2853 160.2 22.4029 161.7 22.5205 163.64C22.8145 167.55 23.2261 173.166 23.9023 180.134C25.2547 194.04 27.6949 213.209 31.8109 234.141C32.1637 235.886 32.5067 237.601 32.8399 239.286C33.1927 240.992 33.5357 242.648 33.8689 244.255L33.7219 244.137C52.6261 244.284 69.3547 244.431 81.3793 244.52C87.3475 244.52 92.1691 244.549 95.4913 244.549C97.1377 244.549 98.4313 244.52 99.3133 244.52C99.7543 244.52 100.078 244.49 100.284 244.49C100.519 244.49 100.636 244.49 100.636 244.49Z" fill="#263238"/>
<path d="M99.7835 248.136C99.7639 248.136 99.7737 248.009 99.8129 247.754C99.8521 247.479 99.9011 247.136 99.9599 246.725C100.048 246.254 100.136 245.725 100.195 245.078C100.254 244.432 100.371 243.697 100.43 242.873C100.518 242.05 100.607 241.168 100.636 240.198C100.695 239.257 100.695 238.228 100.724 237.14C100.695 234.994 100.577 232.613 100.313 230.143C100.019 227.674 99.5777 225.322 99.0779 223.234C98.6075 221.117 98.0783 219.236 97.5491 217.678C97.3139 216.913 97.0493 216.208 96.8435 215.59C96.6377 214.973 96.4319 214.473 96.2849 214.032C96.1281 213.64 96.0007 213.317 95.9027 213.062C95.8243 212.827 95.7949 212.709 95.8145 212.709C95.8145 212.689 95.8635 212.797 95.9615 213.032C96.0791 213.287 96.2261 213.611 96.4025 214.003C96.5789 214.414 96.7847 214.943 97.0199 215.531C97.2257 216.149 97.5197 216.854 97.7549 217.619C98.2841 219.177 98.8427 221.059 99.3719 223.146C99.8717 225.263 100.313 227.615 100.607 230.114C100.901 232.583 100.989 234.965 100.989 237.14C100.959 238.228 100.959 239.257 100.871 240.227C100.842 241.198 100.754 242.08 100.665 242.903C100.577 243.726 100.46 244.461 100.371 245.078C100.283 245.725 100.166 246.284 100.077 246.725C99.9991 247.156 99.9305 247.509 99.8717 247.783C99.8129 248.018 99.7835 248.136 99.7835 248.136Z" fill="#263238"/>
<path d="M39.8076 192.776C39.8076 192.776 39.9154 192.688 40.131 192.511C40.3858 192.315 40.719 192.06 41.1306 191.747C41.3462 191.59 41.5814 191.414 41.8362 191.218C42.1008 191.041 42.4242 190.865 42.7476 190.659C43.4238 190.277 44.1294 189.777 45.0408 189.395C45.472 189.179 45.9228 188.954 46.3932 188.719C46.8636 188.483 47.3928 188.307 47.922 188.101C48.4512 187.895 48.9804 187.66 49.5684 187.484C50.1368 187.288 50.7248 187.102 51.3324 186.925C53.802 186.22 56.5362 185.573 59.4762 185.22C62.3868 184.867 65.1798 184.691 67.7376 184.72C69.0312 184.691 70.2366 184.808 71.3832 184.838C72.5004 184.955 73.5588 185.014 74.4996 185.161C76.4106 185.396 77.9688 185.72 78.9978 185.984C79.5074 186.122 79.9092 186.229 80.2032 186.308C80.4776 186.386 80.6148 186.435 80.6148 186.455C80.6148 186.455 80.4678 186.425 80.1738 186.367C79.8798 186.308 79.478 186.22 78.9684 186.102C77.9394 185.867 76.3812 185.602 74.4702 185.367C73.5294 185.249 72.471 185.191 71.3538 185.102C70.2366 185.073 69.0312 184.985 67.7376 185.014C65.2092 184.985 62.4162 185.161 59.5056 185.514C56.595 185.867 53.8608 186.484 51.4206 187.19C50.813 187.366 50.225 187.543 49.6566 187.719C49.0686 187.895 48.5394 188.131 48.0102 188.336C47.481 188.542 46.9518 188.719 46.4814 188.954C46.011 189.169 45.5602 189.375 45.129 189.571C44.247 189.953 43.512 190.424 42.8358 190.806C42.5124 190.982 42.189 191.159 41.9244 191.335C41.65 191.531 41.405 191.708 41.1894 191.864C40.7582 192.139 40.4152 192.374 40.1604 192.57C39.9252 192.727 39.8076 192.795 39.8076 192.776Z" fill="#263238"/>
<path d="M88.4352 196.98C88.4352 196.98 88.4156 197.039 88.3764 197.156C88.347 197.274 88.2882 197.48 88.1706 197.715C87.9648 198.185 87.612 198.891 86.9652 199.655C86.3478 200.39 85.3777 201.184 84.1429 201.86C83.5255 202.184 82.8199 202.478 82.0555 202.742C81.291 202.948 80.4678 203.125 79.5858 203.242C77.8218 203.419 75.8521 203.272 73.8234 202.919C71.7654 202.537 69.6487 201.949 67.3848 201.419C65.1211 200.89 62.7102 200.39 60.1819 200.449C58.947 200.479 57.6534 200.655 56.4186 201.037C55.1838 201.419 54.0078 202.037 52.92 202.801C50.7738 204.359 49.1568 206.506 47.8338 208.622C46.4814 210.769 45.4231 212.974 44.2765 215.002C43.1593 217.031 41.9833 218.942 40.6015 220.529C39.2491 222.088 37.6908 223.352 36.0738 224.087C34.4568 224.822 32.8692 225.175 31.458 225.175C30.0468 225.204 28.812 224.91 27.93 224.528C27.4596 224.351 27.0774 224.087 26.754 223.881C26.46 223.675 26.1954 223.469 26.019 223.293C25.8426 223.117 25.7054 222.97 25.6074 222.852C25.5094 222.754 25.4604 222.705 25.4604 222.705C25.48 222.705 25.529 222.754 25.6074 222.852C25.725 222.95 25.872 223.077 26.0484 223.234C26.2542 223.411 26.5188 223.587 26.8128 223.822C27.1362 223.999 27.489 224.234 27.9594 224.41C28.8708 224.792 30.0469 225.057 31.4286 224.998C32.8398 224.969 34.3981 224.616 35.9857 223.881C37.5732 223.146 39.0726 221.911 40.425 220.353C41.748 218.795 42.9241 216.913 44.0413 214.855C45.1585 212.827 46.2169 210.622 47.5693 208.475C48.9216 206.329 50.5386 204.154 52.7436 202.566C53.8608 201.772 55.0663 201.125 56.3305 200.743C57.5947 200.361 58.9176 200.185 60.1819 200.155C62.7396 200.096 65.1798 200.596 67.4436 201.125C69.7074 201.684 71.8242 202.272 73.8529 202.654C75.8815 203.036 77.8218 203.183 79.5564 203.007C80.4384 202.919 81.2616 202.772 81.9966 202.537C82.761 202.301 83.4372 202.037 84.084 201.713C85.2894 201.067 86.2302 200.302 86.877 199.567C88.1706 198.068 88.3764 196.921 88.4352 196.98Z" fill="white"/>
<path d="M118.335 234.583C118.335 234.583 118.256 234.602 118.1 234.641C117.904 234.681 117.649 234.73 117.335 234.788C116.982 234.847 116.6 235.024 116.13 235.171C115.895 235.229 115.659 235.376 115.395 235.494C115.13 235.612 114.866 235.729 114.572 235.906C113.454 236.523 112.19 237.493 110.838 238.728C109.485 239.963 108.015 241.492 106.222 242.962C105.34 243.697 104.34 244.432 103.194 245.02C102.665 245.343 102.018 245.549 101.4 245.784C101.087 245.882 100.763 245.97 100.43 246.049C100.107 246.166 99.7834 246.166 99.4306 246.225C98.0782 246.401 96.6376 246.343 95.197 246.019C93.7564 245.696 92.3452 245.137 90.9634 244.461C88.2292 243.05 85.642 241.051 83.1724 238.816C80.7028 236.582 78.1744 234.2 75.2344 232.26C73.7644 231.319 72.2356 230.496 70.5892 229.967C68.9722 229.408 67.2964 229.173 65.65 229.261C64.0036 229.379 62.416 229.79 60.946 230.408C59.476 230.996 58.0942 231.76 56.8006 232.583C54.2134 234.171 51.832 235.906 49.4212 237.199C47.0104 238.493 44.5996 239.404 42.3652 239.933C37.8082 241.051 33.9862 240.904 31.4284 240.58C28.8412 240.257 27.4888 239.786 27.4888 239.786C27.4888 239.786 27.577 239.806 27.7534 239.845C27.9298 239.884 28.1748 239.933 28.4884 239.992C29.1646 240.139 30.1642 240.316 31.4284 240.463C33.9862 240.757 37.8082 240.874 42.3064 239.728C44.5408 239.169 46.9222 238.258 49.3036 236.993C51.685 235.67 54.037 233.965 56.6536 232.319C57.9472 231.525 59.329 230.761 60.8284 230.143C62.3278 229.526 63.9448 229.085 65.6206 228.967C67.3258 228.879 69.0604 229.114 70.7068 229.673C72.3532 230.202 73.9114 231.055 75.4108 232.025C78.3802 233.965 80.9086 236.347 83.3782 238.61C85.8184 240.845 88.4056 242.815 91.1104 244.196C92.4628 244.873 93.8446 245.461 95.2558 245.755C96.667 246.078 98.0782 246.137 99.4012 245.99C99.7246 245.931 100.077 245.902 100.401 245.813C100.714 245.735 101.028 245.657 101.342 245.578C101.93 245.314 102.547 245.137 103.106 244.814C104.223 244.255 105.193 243.52 106.075 242.785C107.868 241.345 109.338 239.845 110.72 238.61C112.102 237.376 113.366 236.405 114.513 235.788C114.807 235.612 115.101 235.523 115.365 235.406C115.63 235.288 115.865 235.141 116.1 235.082C116.571 234.935 116.982 234.788 117.306 234.73C117.639 234.69 117.894 234.651 118.07 234.612C118.247 234.592 118.335 234.583 118.335 234.583Z" fill="white"/>
<path d="M36.5145 170.344C36.5439 170.373 36.4851 170.637 36.3675 171.108C36.2205 171.578 35.9853 172.225 35.5737 173.019C34.7799 174.577 33.1923 176.547 30.7815 177.811C28.3707 179.075 25.8129 179.252 24.1077 179.017C23.2257 178.899 22.5201 178.722 22.0791 178.546C21.6087 178.399 21.3735 178.281 21.3735 178.252C21.4029 178.193 22.4025 178.634 24.1077 178.811C25.8129 178.958 28.2825 178.752 30.6345 177.547C32.9571 176.312 34.5447 174.401 35.3679 172.901C36.2205 171.402 36.4557 170.344 36.5145 170.344Z" fill="white"/>
<path d="M220.529 131.359H109.368C107.104 131.359 105.281 129.507 105.281 127.273V97.1669C105.281 94.9325 107.104 93.0803 109.368 93.0803H220.529C222.793 93.0803 224.616 94.9325 224.616 97.1669V127.273C224.616 129.507 222.793 131.359 220.529 131.359Z" fill="white"/>
<path d="M220.529 131.359C220.529 131.33 220.794 131.359 221.323 131.242C221.823 131.153 222.587 130.889 223.322 130.183C223.704 129.83 224.057 129.36 224.263 128.772C224.528 128.184 224.586 127.508 224.557 126.743C224.557 125.234 224.557 123.509 224.557 121.569C224.528 117.659 224.528 112.896 224.528 107.369C224.528 104.586 224.518 101.626 224.498 98.4899C224.498 97.6961 224.587 96.9023 224.381 96.1379C224.175 95.3735 223.734 94.668 223.117 94.1388C222.499 93.6096 221.705 93.2861 220.882 93.2273C220.059 93.1685 219.177 93.1979 218.295 93.1979C190.424 93.1979 151.91 93.2274 109.368 93.2568C108.721 93.2568 108.104 93.4038 107.516 93.6978C106.957 93.9918 106.487 94.4327 106.104 94.9619C105.752 95.4911 105.546 96.1085 105.458 96.7259C105.399 97.3433 105.458 98.049 105.428 98.6958C105.428 101.322 105.428 103.929 105.428 106.516C105.428 111.691 105.428 116.787 105.428 121.804C105.428 123.059 105.428 124.313 105.428 125.567C105.428 126.185 105.428 126.802 105.428 127.42C105.458 128.008 105.605 128.596 105.899 129.125C106.457 130.154 107.486 130.948 108.662 131.124C109.221 131.242 109.838 131.183 110.456 131.212C111.063 131.212 111.671 131.212 112.278 131.212C117.1 131.212 121.814 131.212 126.42 131.212C144.854 131.212 161.465 131.242 175.4 131.242C189.336 131.271 200.626 131.271 208.417 131.3C212.327 131.3 215.326 131.3 217.384 131.33C218.422 131.33 219.206 131.33 219.736 131.33C220.265 131.33 220.529 131.359 220.529 131.359C220.529 131.359 220.265 131.359 219.736 131.359C219.206 131.359 218.422 131.369 217.384 131.389C215.326 131.389 212.327 131.389 208.417 131.418C200.626 131.418 189.336 131.447 175.4 131.447C161.465 131.477 144.854 131.477 126.42 131.477C121.814 131.477 117.1 131.487 112.278 131.506C111.671 131.506 111.063 131.506 110.456 131.506C109.838 131.477 109.25 131.536 108.603 131.418C107.369 131.212 106.222 130.389 105.634 129.272C105.34 128.684 105.164 128.066 105.134 127.42C105.134 126.802 105.134 126.185 105.134 125.567C105.134 124.313 105.134 123.059 105.134 121.804C105.134 116.787 105.134 111.691 105.134 106.516C105.134 103.929 105.134 101.322 105.134 98.6958C105.134 98.0196 105.105 97.4021 105.164 96.6965C105.223 96.0203 105.487 95.3441 105.869 94.7855C106.252 94.2269 106.781 93.7565 107.398 93.4331C107.986 93.1097 108.692 92.9333 109.368 92.9333C151.91 92.9627 190.424 92.9627 218.295 92.9921C219.177 92.9921 220.03 92.9627 220.912 92.9921C221.764 93.0803 222.587 93.4332 223.234 93.9918C223.881 94.5504 224.351 95.2853 224.557 96.0791C224.675 96.4907 224.704 96.9023 224.704 97.3139C224.704 97.7059 224.704 98.0979 224.704 98.4899C224.704 101.626 224.704 104.586 224.704 107.369C224.675 112.896 224.675 117.659 224.675 121.569C224.655 123.509 224.645 125.234 224.645 126.743C224.675 127.508 224.586 128.213 224.351 128.801C224.116 129.389 223.763 129.86 223.381 130.213C222.617 130.948 221.823 131.183 221.323 131.271C221.068 131.33 220.872 131.359 220.735 131.359C220.598 131.359 220.529 131.359 220.529 131.359Z" fill="#263238"/>
<path d="M216.002 100.93C215.963 100.93 215.933 100.92 215.914 100.901C215.855 100.842 215.855 100.754 215.914 100.695L218.854 97.8726C218.913 97.8138 219.001 97.8138 219.06 97.8726C219.118 97.9314 219.118 98.0196 219.06 98.0784L216.12 100.901C216.08 100.92 216.041 100.93 216.002 100.93Z" fill="#263238"/>
<path d="M218.942 100.96C218.903 100.96 218.873 100.94 218.854 100.901L215.943 98.0784C215.884 98.0196 215.855 97.9314 215.914 97.8726C215.973 97.8138 216.09 97.8138 216.12 97.8726L219.06 100.695C219.089 100.754 219.118 100.842 219.06 100.901C219.02 100.94 218.981 100.96 218.942 100.96Z" fill="#263238"/>
<path d="M131.006 119.658L129.801 117.953C129.066 116.924 128.684 115.718 128.684 114.454V110.632C128.684 107.516 126.391 104.929 123.392 104.488V102.665C123.392 102.194 123.01 101.812 122.569 101.812C122.098 101.812 121.716 102.194 121.716 102.665V104.458C118.629 104.811 116.218 107.428 116.218 110.632V114.601C116.218 115.954 115.777 117.277 114.925 118.335L113.896 119.658H131.006Z" fill="#0EABEB"/>
<path d="M121.539 122.422C122.48 122.804 123.597 122.627 124.332 121.951C124.656 121.657 124.891 121.275 125.038 120.863L120.069 120.834C120.305 121.54 120.863 122.128 121.539 122.422Z" fill="#0EABEB"/>
<path d="M198.126 106.016C198.126 106.105 184.749 106.163 168.285 106.163C151.792 106.163 138.415 106.105 138.415 106.016C138.415 105.928 151.792 105.869 168.285 105.869C184.749 105.869 198.126 105.928 198.126 106.016Z" fill="#263238"/>
<path d="M212.209 113.249C212.209 113.337 195.686 113.396 175.312 113.396C154.938 113.396 138.415 113.337 138.415 113.249C138.415 113.161 154.938 113.102 175.312 113.102C195.686 113.102 212.209 113.161 212.209 113.249Z" fill="#E0E0E0"/>
<path d="M212.209 117.571C212.209 117.659 195.686 117.718 175.312 117.718C154.938 117.718 138.415 117.659 138.415 117.571C138.415 117.482 154.938 117.424 175.312 117.424C195.686 117.424 212.209 117.482 212.209 117.571Z" fill="#E0E0E0"/>
<path d="M201.449 163.611H127.625C125.361 163.611 123.539 161.788 123.539 159.524V141.414C123.539 139.15 125.361 137.327 127.625 137.327H201.449C203.683 137.327 205.506 139.15 205.506 141.414V159.524C205.506 161.788 203.683 163.611 201.449 163.611Z" fill="#FAFAFA"/>
<path d="M201.448 163.611C201.419 163.581 201.625 163.611 201.978 163.552C202.33 163.493 202.86 163.376 203.448 163.023C204.036 162.67 204.712 162.082 205.123 161.141C205.329 160.7 205.447 160.142 205.447 159.583C205.447 158.995 205.447 158.368 205.447 157.702C205.447 155.056 205.447 151.792 205.417 148.029C205.417 146.147 205.417 144.138 205.417 142.002C205.417 141.473 205.417 140.943 205.3 140.414C205.153 139.914 204.918 139.415 204.565 138.974C203.918 138.092 202.83 137.504 201.684 137.445C182.721 137.445 156.525 137.474 127.625 137.474C126.743 137.474 125.89 137.768 125.214 138.297C124.509 138.827 124.009 139.591 123.803 140.414C123.685 140.855 123.685 141.267 123.685 141.708V143.06C123.685 143.942 123.685 144.824 123.685 145.706C123.685 149.234 123.685 152.703 123.685 156.114C123.685 156.957 123.685 157.799 123.685 158.642C123.685 159.083 123.656 159.495 123.685 159.907C123.744 160.299 123.852 160.691 124.009 161.083C124.332 161.818 124.861 162.435 125.538 162.876C126.214 163.287 127.008 163.493 127.831 163.464C131.104 163.464 134.309 163.464 137.445 163.464C149.969 163.464 161.259 163.493 170.755 163.493C180.222 163.523 187.895 163.523 193.216 163.552C195.833 163.552 197.891 163.552 199.302 163.582C199.988 163.582 200.517 163.582 200.89 163.582C201.243 163.601 201.429 163.611 201.448 163.611C201.429 163.611 201.243 163.611 200.89 163.611C200.517 163.611 199.988 163.621 199.302 163.64C197.891 163.64 195.833 163.64 193.216 163.67C187.895 163.67 180.222 163.699 170.755 163.699C161.259 163.728 149.969 163.728 137.445 163.758C134.309 163.758 131.104 163.758 127.831 163.758C126.978 163.787 126.126 163.581 125.391 163.111C124.656 162.67 124.068 161.994 123.715 161.2C123.558 160.788 123.45 160.367 123.391 159.936C123.362 159.495 123.391 159.083 123.391 158.642C123.391 157.799 123.391 156.957 123.391 156.114C123.391 152.703 123.391 149.234 123.391 145.706C123.391 144.824 123.391 143.942 123.391 143.06V141.708C123.362 141.267 123.391 140.796 123.509 140.355C123.744 139.444 124.273 138.621 125.008 138.062C125.743 137.474 126.684 137.18 127.625 137.18C156.555 137.18 182.721 137.21 201.684 137.21C202.918 137.298 204.036 137.915 204.741 138.856C205.094 139.297 205.359 139.826 205.476 140.385C205.623 140.914 205.623 141.473 205.623 142.002C205.604 144.138 205.594 146.147 205.594 148.029C205.594 151.792 205.594 155.056 205.564 157.702C205.564 158.368 205.564 158.995 205.564 159.583C205.564 160.171 205.417 160.73 205.212 161.2C204.771 162.141 204.094 162.729 203.477 163.082C202.86 163.434 202.33 163.552 201.978 163.582C201.625 163.611 201.448 163.611 201.448 163.611Z" fill="#263238"/>
<path d="M199.626 142.766C199.586 142.766 199.547 142.747 199.508 142.708C199.449 142.649 199.449 142.561 199.508 142.502L201.537 140.561C201.595 140.503 201.684 140.532 201.742 140.591C201.801 140.65 201.801 140.738 201.742 140.797L199.714 142.708C199.694 142.747 199.665 142.766 199.626 142.766Z" fill="#263238"/>
<path d="M201.625 142.766C201.586 142.766 201.546 142.757 201.507 142.737L199.508 140.767C199.449 140.708 199.449 140.62 199.508 140.561C199.567 140.503 199.655 140.503 199.714 140.561L201.713 142.531C201.772 142.561 201.772 142.678 201.742 142.737C201.703 142.757 201.664 142.766 201.625 142.766Z" fill="#263238"/>
<path d="M141.208 155.555L140.385 154.409C139.885 153.703 139.62 152.851 139.62 151.998V149.381C139.62 147.235 138.033 145.442 135.975 145.148V143.884C135.975 143.56 135.71 143.325 135.387 143.325C135.093 143.325 134.828 143.56 134.828 143.884V145.118C132.711 145.383 131.035 147.176 131.035 149.381V152.086C131.035 153.027 130.741 153.938 130.153 154.673L129.448 155.585L141.208 155.555Z" fill="#4F4F4F"/>
<path d="M134.71 157.466C135.328 157.731 136.121 157.613 136.621 157.143C136.856 156.937 137.003 156.673 137.121 156.408L133.681 156.379C133.858 156.849 134.24 157.29 134.71 157.466Z" fill="#4F4F4F"/>
<path d="M187.336 146.206C187.336 146.294 178.134 146.353 166.815 146.353C155.496 146.353 146.294 146.294 146.294 146.206C146.294 146.118 155.496 146.059 166.815 146.059C178.134 146.059 187.336 146.118 187.336 146.206Z" fill="#263238"/>
<path d="M196.98 151.175C196.98 151.263 185.631 151.322 171.637 151.322C157.642 151.322 146.294 151.263 146.294 151.175C146.294 151.087 157.642 150.998 171.637 150.998C185.631 150.998 196.98 151.087 196.98 151.175Z" fill="#E0E0E0"/>
<path d="M196.98 154.144C196.98 154.232 185.631 154.291 171.637 154.291C157.642 154.291 146.294 154.232 146.294 154.144C146.294 154.056 157.642 153.997 171.637 153.997C185.631 153.997 196.98 154.056 196.98 154.144Z" fill="#E0E0E0"/>
<path d="M201.125 193.775H127.919C125.655 193.775 123.833 191.953 123.833 189.689V171.784C123.833 169.52 125.655 167.698 127.919 167.698H201.125C203.389 167.698 205.212 169.52 205.212 171.784V189.689C205.212 191.953 203.389 193.775 201.125 193.775Z" fill="#FAFAFA"/>
<path d="M201.125 193.775C201.125 193.775 201.302 193.775 201.654 193.717C202.007 193.687 202.536 193.57 203.124 193.217C203.712 192.864 204.389 192.276 204.8 191.365C205.006 190.894 205.124 190.365 205.153 189.806C205.153 189.218 205.153 188.601 205.153 187.954C205.153 185.308 205.124 182.104 205.124 178.37C205.124 176.488 205.114 174.489 205.094 172.372C205.124 171.843 205.124 171.314 204.977 170.785C204.859 170.285 204.624 169.785 204.271 169.344C203.624 168.491 202.566 167.874 201.419 167.815C182.603 167.815 156.614 167.845 127.919 167.845C126.185 167.815 124.538 169.079 124.127 170.755C124.009 171.167 123.98 171.608 123.98 172.049V173.372C123.98 174.234 123.98 175.106 123.98 175.988C123.98 179.477 123.98 182.917 123.98 186.308C123.98 187.151 123.98 187.993 123.98 188.836C123.98 189.248 123.98 189.689 124.009 190.071C124.048 190.483 124.146 190.875 124.303 191.247C124.626 191.982 125.156 192.599 125.832 193.04C126.508 193.452 127.302 193.658 128.096 193.628C131.349 193.628 134.534 193.628 137.651 193.628C150.087 193.658 161.259 193.658 170.667 193.658C180.075 193.687 187.689 193.717 192.952 193.717C195.569 193.746 197.627 193.746 199.008 193.746C199.694 193.746 200.224 193.756 200.596 193.775C200.949 193.775 201.125 193.775 201.125 193.775C201.125 193.775 200.949 193.785 200.596 193.805C200.224 193.805 199.694 193.805 199.008 193.805C197.627 193.805 195.569 193.834 192.952 193.834C187.689 193.864 180.075 193.864 170.667 193.893C161.259 193.893 150.087 193.922 137.651 193.922C134.534 193.922 131.349 193.922 128.096 193.922C127.272 193.952 126.39 193.746 125.685 193.276C124.95 192.835 124.362 192.158 124.038 191.365C123.862 190.953 123.754 190.532 123.715 190.1C123.686 189.659 123.686 189.248 123.686 188.836C123.686 187.993 123.686 187.151 123.686 186.308C123.686 182.917 123.686 179.477 123.686 175.988C123.686 175.106 123.686 174.234 123.686 173.372V172.049C123.686 171.608 123.715 171.108 123.833 170.696C124.274 168.874 126.038 167.521 127.919 167.551C156.614 167.551 182.603 167.58 201.419 167.609C202.625 167.668 203.742 168.315 204.447 169.226C204.8 169.697 205.035 170.197 205.182 170.755C205.329 171.284 205.3 171.843 205.3 172.372C205.3 174.489 205.3 176.488 205.3 178.37C205.271 182.104 205.271 185.308 205.271 187.954C205.271 188.601 205.261 189.218 205.241 189.806C205.241 190.394 205.094 190.924 204.888 191.394C204.447 192.335 203.771 192.923 203.154 193.276C202.536 193.599 202.007 193.717 201.654 193.746C201.302 193.805 201.125 193.775 201.125 193.775Z" fill="#263238"/>
<path d="M199.361 173.107C199.302 173.107 199.263 173.088 199.243 173.048C199.185 172.99 199.185 172.901 199.243 172.843L201.243 170.932C201.301 170.873 201.39 170.873 201.448 170.932C201.507 170.99 201.507 171.079 201.448 171.137L199.449 173.048C199.41 173.088 199.381 173.107 199.361 173.107Z" fill="#263238"/>
<path d="M201.331 173.107C201.292 173.107 201.262 173.088 201.243 173.048L199.243 171.137C199.185 171.079 199.185 170.961 199.243 170.932C199.302 170.873 199.39 170.843 199.449 170.902L201.448 172.843C201.507 172.901 201.507 172.99 201.448 173.048C201.409 173.088 201.37 173.107 201.331 173.107Z" fill="#263238"/>
<path d="M141.384 185.808L140.561 184.632C140.061 183.956 139.797 183.103 139.797 182.251V179.663C139.797 177.517 138.238 175.753 136.18 175.459V174.224C136.18 173.901 135.945 173.636 135.622 173.636C135.298 173.636 135.034 173.901 135.034 174.224V175.43C132.946 175.694 131.3 177.488 131.3 179.663V182.368C131.3 183.28 130.977 184.191 130.418 184.926L129.712 185.808H141.384Z" fill="#E0E0E0"/>
<path d="M134.916 187.69C135.563 187.954 136.327 187.837 136.827 187.366C137.062 187.16 137.209 186.925 137.327 186.631L133.917 186.602C134.093 187.102 134.446 187.513 134.916 187.69Z" fill="#E0E0E0"/>
<path d="M187.16 176.517C187.16 176.606 178.046 176.664 166.786 176.664C155.555 176.664 146.441 176.606 146.441 176.517C146.441 176.429 155.555 176.341 166.786 176.341C178.046 176.341 187.16 176.429 187.16 176.517Z" fill="#263238"/>
<path d="M196.744 181.427C196.744 181.515 185.484 181.574 171.578 181.574C157.701 181.574 146.441 181.515 146.441 181.427C146.441 181.339 157.701 181.28 171.578 181.28C185.484 181.28 196.744 181.339 196.744 181.427Z" fill="#E0E0E0"/>
<path d="M196.744 184.397C196.744 184.456 185.484 184.544 171.578 184.544C157.701 184.544 146.441 184.456 146.441 184.397C146.441 184.309 157.701 184.22 171.578 184.22C185.484 184.22 196.744 184.309 196.744 184.397Z" fill="#E0E0E0"/>
<path d="M261.336 160.377C255.251 163.523 250.576 168.962 247.224 174.93C243.873 180.898 241.697 187.454 239.58 193.981L237.699 227.556C244.784 215.502 250.458 201.331 251.987 187.454C250.419 187.317 248.851 187.18 247.283 187.043C250.458 186.543 253.104 184.25 254.78 181.545C256.485 178.84 257.338 175.694 258.191 172.607C256.27 172.901 254.349 173.186 252.428 173.46C256.956 170.461 260.219 165.669 261.336 160.377Z" fill="#4F4F4F"/>
<path d="M261.336 160.377C255.251 163.523 250.576 168.962 247.224 174.93C243.873 180.898 241.697 187.454 239.58 193.981L237.699 227.556C244.784 215.502 250.458 201.331 251.987 187.454C250.419 187.317 248.851 187.18 247.283 187.043C250.458 186.543 253.104 184.25 254.78 181.545C256.485 178.84 257.338 175.694 258.191 172.607C256.27 172.901 254.349 173.186 252.428 173.46C256.956 170.461 260.219 165.669 261.336 160.377Z" fill="#0EABEB"/>
<g opacity="0.3">
<path d="M261.336 160.377C255.251 163.523 250.576 168.962 247.224 174.93C243.873 180.898 241.697 187.454 239.58 193.981L237.699 227.556C244.784 215.502 250.458 201.331 251.987 187.454C250.419 187.317 248.851 187.18 247.283 187.043C250.458 186.543 253.104 184.25 254.78 181.545C256.485 178.84 257.338 175.694 258.191 172.607C256.27 172.901 254.349 173.186 252.428 173.46C256.956 170.461 260.219 165.669 261.336 160.377Z" fill="black"/>
</g>
<path d="M236.64 235.435C236.64 235.435 221.264 217.031 221.441 199.45H227.673C227.673 199.45 220.911 195.04 221.441 192.541C221.97 190.071 222.146 180.663 222.146 180.663L227.85 182.074C227.85 182.074 223.587 179.957 223.058 176.576C222.499 173.195 224.292 157.584 224.292 157.584C224.292 157.584 231.201 164.875 233.348 172.313C235.464 179.781 241.05 188.454 239.404 211.18C237.787 233.877 236.64 235.435 236.64 235.435Z" fill="#0EABEB"/>
<path d="M244.431 237.17C244.431 237.17 261.101 226.057 264.806 211.915L259.808 210.563C259.808 210.563 266.187 208.446 266.305 206.359C266.423 204.242 268.334 196.627 268.334 196.627L263.453 196.539C263.453 196.539 267.363 195.745 268.51 193.158C269.686 190.571 271.685 177.635 271.685 177.635C271.685 177.635 264.512 181.957 261.189 187.484C257.838 193.011 251.429 198.773 247.783 217.384C244.137 236.023 244.431 237.17 244.431 237.17Z" fill="#0EABEB"/>
<path d="M228.497 173.636C228.497 173.636 228.516 173.695 228.555 173.813C228.575 173.97 228.614 174.166 228.673 174.401C228.791 174.91 228.957 175.636 229.173 176.576C229.379 177.517 229.643 178.693 229.908 180.046C230.172 181.398 230.496 182.927 230.819 184.632C231.466 188.042 232.172 192.129 232.877 196.657C233.583 201.214 234.259 206.212 234.876 211.474C235.494 216.737 235.964 221.764 236.317 226.351C236.67 230.937 236.905 235.082 237.052 238.552C237.14 240.286 237.17 241.844 237.199 243.226C237.258 244.608 237.287 245.784 237.287 246.754C237.287 247.715 237.297 248.459 237.317 248.989C237.317 249.243 237.317 249.439 237.317 249.577C237.297 249.714 237.287 249.782 237.287 249.782C237.287 249.782 237.277 249.714 237.258 249.577C237.258 249.439 237.248 249.253 237.228 249.018C237.209 248.469 237.189 247.715 237.17 246.754C237.14 245.784 237.081 244.608 237.023 243.226C236.964 241.844 236.905 240.286 236.817 238.552C236.64 235.082 236.376 230.966 236.023 226.38C235.641 221.794 235.17 216.766 234.553 211.504C233.936 206.241 233.259 201.243 232.583 196.715C231.878 192.158 231.201 188.101 230.584 184.661C230.29 182.956 229.996 181.427 229.731 180.075C229.467 178.723 229.232 177.547 229.055 176.606C228.859 175.665 228.712 174.93 228.614 174.401C228.575 174.166 228.546 173.979 228.526 173.842C228.487 173.705 228.477 173.636 228.497 173.636Z" fill="#263238"/>
<path d="M234.524 246.695C234.524 246.695 220.441 230.731 216.09 221.088L219.383 219.677C216.972 220.059 214.532 219.03 212.68 217.472C210.827 215.914 209.475 213.885 208.123 211.856L212.474 211.121C208.534 210.004 205.036 207.299 202.978 203.771C208.123 204.595 212.738 207.417 216.56 210.945C219.677 213.797 222.293 217.09 224.792 220.471C226.027 222.117 227.115 223.881 227.997 225.733C230.349 230.614 234.524 240.845 234.524 246.695Z" fill="#0EABEB"/>
<path d="M265.012 186.925C265.012 186.925 264.992 186.974 264.953 187.072C264.894 187.19 264.825 187.347 264.747 187.543C264.531 187.974 264.247 188.562 263.894 189.307C263.13 190.835 262.072 193.07 260.778 195.833C258.191 201.39 254.78 209.093 251.429 217.795C248.077 226.498 245.402 234.494 243.579 240.316C242.668 243.226 241.962 245.608 241.492 247.254C241.256 248.058 241.07 248.685 240.933 249.136C240.874 249.332 240.815 249.488 240.757 249.606C240.737 249.724 240.717 249.782 240.698 249.782C240.698 249.782 240.708 249.724 240.727 249.606C240.766 249.488 240.815 249.322 240.874 249.106C240.992 248.655 241.158 248.028 241.374 247.225C241.815 245.549 242.491 243.167 243.344 240.257C245.108 234.406 247.754 226.38 251.105 217.678C254.486 208.975 257.926 201.243 260.572 195.745C261.895 192.982 262.983 190.777 263.777 189.248C264.169 188.503 264.473 187.925 264.688 187.513C264.786 187.337 264.865 187.19 264.923 187.072C264.982 186.955 265.012 186.906 265.012 186.925Z" fill="#263238"/>
<path d="M235.7 253.546C235.7 253.546 235.68 253.448 235.641 253.252C235.602 253.016 235.553 252.732 235.494 252.399C235.377 251.664 235.2 250.606 234.936 249.283C234.671 247.989 234.318 246.46 233.848 244.755C233.377 243.05 232.789 241.227 232.084 239.316C231.378 237.405 230.584 235.641 229.82 234.053C229.056 232.495 228.291 231.084 227.644 229.937C226.968 228.791 226.41 227.879 225.998 227.233C225.822 226.958 225.675 226.723 225.557 226.527C225.439 226.351 225.39 226.262 225.41 226.262C225.41 226.243 225.469 226.311 225.586 226.468C225.724 226.664 225.9 226.899 226.116 227.174C226.557 227.791 227.145 228.673 227.821 229.82C228.526 230.966 229.291 232.348 230.085 233.936C230.878 235.523 231.672 237.287 232.407 239.198C233.113 241.109 233.701 242.962 234.142 244.667C234.612 246.372 234.936 247.93 235.171 249.253C235.406 250.576 235.553 251.635 235.612 252.37C235.651 252.722 235.68 253.016 235.7 253.252C235.72 253.448 235.72 253.546 235.7 253.546Z" fill="#263238"/>
<path d="M254.28 256.074H223.469V249.782H254.28V256.074Z" fill="#4F4F4F"/>
<path d="M226.409 256.074L229.731 277.183H248.342L251.458 256.074H226.409Z" fill="#4F4F4F"/>
<path d="M252.37 256.074C252.37 256.162 246.548 256.221 239.375 256.221C232.201 256.221 226.351 256.162 226.351 256.074C226.351 255.986 232.201 255.898 239.375 255.898C246.548 255.898 252.37 255.986 252.37 256.074Z" fill="#263238"/>
<path d="M71.5011 100.019L72.1479 92.4042C69.5019 90.6696 67.2969 88.1706 65.8857 85.0836C61.7697 76.1754 65.6505 65.6502 74.5587 61.5342C83.4669 57.4476 93.9921 61.3284 98.1081 70.2366C102.195 79.1154 98.3139 89.67 89.4057 93.7566C85.7013 95.4618 81.7029 95.7852 77.9985 94.9326L71.5011 100.019Z" fill="white"/>
<path d="M71.5009 100.019C71.8243 99.7836 73.8823 98.196 78.0571 94.9914L78.1159 94.9326L78.0277 94.9032V94.8738L77.9983 94.9914C79.2331 95.2854 80.6737 95.4618 82.2319 95.4618C83.7901 95.4324 85.4953 95.2266 87.2299 94.668C88.0825 94.4034 88.9645 94.08 89.8465 93.639C90.2581 93.4038 90.6991 93.198 91.1401 92.9334C91.5517 92.659 91.9731 92.3846 92.4043 92.1102C94.0507 90.9048 95.6089 89.3466 96.8437 87.465C98.0785 85.5834 99.0193 83.3784 99.4897 80.997C99.9601 78.6156 99.9601 76.0284 99.3427 73.5294C98.7253 71.001 97.5493 68.5608 95.8441 66.444C94.1389 64.3272 91.9339 62.5338 89.3467 61.4166L88.3471 60.9756C88.0237 60.8286 87.6709 60.7698 87.3181 60.6522C86.9947 60.5346 86.6419 60.417 86.3185 60.3582L85.2601 60.123C84.9367 60.0348 84.5839 60.0054 84.2311 59.976C83.8783 59.9368 83.5255 59.8878 83.1727 59.829C82.8199 59.829 82.4671 59.829 82.1143 59.829C81.7909 59.829 81.4381 59.7996 81.0853 59.829C78.3217 59.976 75.6463 60.7992 73.3531 62.0634C71.0305 63.3276 69.0901 65.0622 67.6201 67.0614C66.1501 69.0606 65.1799 71.295 64.6507 73.5294C64.1215 75.7344 64.0627 77.9688 64.3273 80.0268C64.5919 82.0848 65.2681 83.937 66.0325 85.5834C66.8557 87.2004 67.8553 88.6116 68.9137 89.7288C69.9721 90.8754 71.0893 91.7574 72.1183 92.463L72.0889 92.4042C71.7361 97.2552 71.5303 99.6366 71.5009 100.019C71.5597 99.6366 71.7655 97.2846 72.2065 92.4336V92.4042L72.1771 92.3748C71.1481 91.6692 70.0603 90.7872 69.0019 89.6406C67.9729 88.5234 66.9733 87.1416 66.1795 85.4952C65.4151 83.8782 64.7389 82.026 64.4743 79.9974C64.2391 77.9688 64.2979 75.7638 64.8271 73.5588C65.3563 71.3538 66.3265 69.1782 67.7965 67.179C69.2371 65.2092 71.1775 63.504 73.4413 62.2398C75.7345 60.9756 78.3511 60.2112 81.0853 60.0642C81.4381 60.0054 81.7909 60.0348 82.1143 60.0348C82.4671 60.0544 82.8199 60.0642 83.1727 60.0642C83.5059 60.1034 83.8489 60.1426 84.2017 60.1818C84.5251 60.2112 84.8779 60.2406 85.2307 60.3288L86.2597 60.564C86.6125 60.6228 86.9359 60.7698 87.2593 60.858C87.6121 60.9756 87.9355 61.0344 88.2589 61.1814L89.2585 61.593C91.8163 62.7102 93.9919 64.5036 95.6677 66.591C97.3729 68.649 98.5195 71.0892 99.1369 73.5588C99.7543 76.0578 99.7543 78.6156 99.2839 80.9676C98.8429 83.3196 97.9315 85.4952 96.6967 87.3768C95.4619 89.229 93.9331 90.7872 92.3161 91.9632C91.8849 92.2572 91.4635 92.5316 91.0519 92.7864C90.6109 93.051 90.1699 93.2568 89.7583 93.492C88.9057 93.933 88.0237 94.2564 87.1711 94.521C85.4659 95.0796 83.7607 95.2854 82.2319 95.3148C80.6737 95.3442 79.2625 95.1678 77.9983 94.8738L77.9689 94.9914V94.9032C73.8529 98.1666 71.8243 99.7836 71.5009 100.019Z" fill="#263238"/>
<path d="M79.4683 68.6196L80.0269 78.939C80.0563 79.7622 80.7325 80.4384 81.5851 80.4972C82.4671 80.5854 83.2609 79.9386 83.3491 79.0272L84.6133 68.6784C84.7015 67.914 84.0841 67.2084 83.2903 67.2084L80.7913 67.2378C80.0269 67.2378 79.4389 67.8552 79.4683 68.6196Z" fill="#0EABEB"/>
<path d="M84.2898 85.701C83.8488 87.024 82.4082 87.7296 81.0852 87.2886C79.7916 86.8476 79.0566 85.4364 79.4976 84.1134C79.9386 82.7904 81.3498 82.0848 82.6728 82.5258C83.9958 82.9668 84.7308 84.378 84.2898 85.701Z" fill="#0EABEB"/>
</svg>
