<svg width="410" height="389" viewBox="0 0 410 389" fill="none" xmlns="http://www.w3.org/2000/svg">
<path d="M388.178 281.78C418.049 211.071 421.829 111.14 370.351 49.0734C341.954 14.8327 297.273 3.45095 254.621 0.911072C216.392 -1.40342 175.483 -0.458553 140.748 17.6673C81.8906 48.2759 80.4339 121.161 36.3429 164.165C0.792628 198.839 -13.9477 248.25 16.4001 313.264C46.7478 378.278 103.108 393.014 158.601 372.21C214.094 351.406 239.24 347.071 306.005 357.474C336.691 362.259 358.957 339.27 372.423 314.434C378.189 303.798 383.487 292.893 388.178 281.78Z" fill="url(#paint0_linear_694_196746)"/>
<path opacity="0.9" d="M388.178 281.78C418.049 211.071 421.829 111.14 370.351 49.0734C341.954 14.8327 297.273 3.45095 254.621 0.911072C216.392 -1.40342 175.483 -0.458553 140.748 17.6673C81.8906 48.2759 80.4339 121.161 36.3429 164.165C0.792628 198.839 -13.9477 248.25 16.4001 313.264C46.7478 378.278 103.108 393.014 158.601 372.21C214.094 351.406 239.24 347.071 306.005 357.474C336.691 362.259 358.957 339.27 372.423 314.434C378.189 303.798 383.487 292.893 388.178 281.78Z" fill="white"/>
<g opacity="0.2">
<path d="M86.7286 2.22852H125.305V53.2428H77" stroke="black" stroke-width="0.520701" stroke-linecap="round" stroke-linejoin="round"/>
<path d="M71.954 53.2428H60.2051V2.22852H81.6827" stroke="black" stroke-width="0.520701" stroke-linecap="round" stroke-linejoin="round"/>
<path d="M72.2658 17.0352H65.1211V24.178H72.2658V17.0352Z" stroke="black" stroke-width="0.520701" stroke-linecap="round" stroke-linejoin="round"/>
<path d="M81.8908 17.0352H74.7461V24.178H81.8908V17.0352Z" stroke="black" stroke-width="0.520701" stroke-linecap="round" stroke-linejoin="round"/>
<path d="M91.5158 17.0352H84.3711V24.178H91.5158V17.0352Z" stroke="black" stroke-width="0.520701" stroke-linecap="round" stroke-linejoin="round"/>
<path d="M101.14 17.0352H93.9951V24.178H101.14V17.0352Z" stroke="black" stroke-width="0.520701" stroke-linecap="round" stroke-linejoin="round"/>
<path d="M110.773 17.0352H103.628V24.178H110.773V17.0352Z" stroke="black" stroke-width="0.520701" stroke-linecap="round" stroke-linejoin="round"/>
<path d="M120.398 17.0352H113.253V24.178H120.398V17.0352Z" stroke="black" stroke-width="0.520701" stroke-linecap="round" stroke-linejoin="round"/>
<path d="M72.2658 26.9688H65.1211V34.1116H72.2658V26.9688Z" stroke="black" stroke-width="0.520701" stroke-linecap="round" stroke-linejoin="round"/>
<path d="M81.8908 26.9688H74.7461V34.1116H81.8908V26.9688Z" stroke="black" stroke-width="0.520701" stroke-linecap="round" stroke-linejoin="round"/>
<path d="M91.5158 26.9688H84.3711V34.1116H91.5158V26.9688Z" stroke="black" stroke-width="0.520701" stroke-linecap="round" stroke-linejoin="round"/>
<path d="M101.14 26.9688H93.9951V34.1116H101.14V26.9688Z" stroke="black" stroke-width="0.520701" stroke-linecap="round" stroke-linejoin="round"/>
<path d="M110.773 26.9688H103.628V34.1116H110.773V26.9688Z" stroke="black" stroke-width="0.520701" stroke-linecap="round" stroke-linejoin="round"/>
<path d="M120.398 26.9688H113.253V34.1116H120.398V26.9688Z" stroke="black" stroke-width="0.520701" stroke-linecap="round" stroke-linejoin="round"/>
<path d="M72.2658 36.9023H65.1211V44.0452H72.2658V36.9023Z" stroke="black" stroke-width="0.520701" stroke-linecap="round" stroke-linejoin="round"/>
<path d="M81.8908 36.9023H74.7461V44.0452H81.8908V36.9023Z" stroke="black" stroke-width="0.520701" stroke-linecap="round" stroke-linejoin="round"/>
<path d="M91.5158 36.9023H84.3711V44.0452H91.5158V36.9023Z" stroke="black" stroke-width="0.520701" stroke-linecap="round" stroke-linejoin="round"/>
<path d="M101.14 36.9023H93.9951V44.0452H101.14V36.9023Z" stroke="black" stroke-width="0.520701" stroke-linecap="round" stroke-linejoin="round"/>
<path d="M110.773 36.9023H103.628V44.0452H110.773V36.9023Z" stroke="black" stroke-width="0.520701" stroke-linecap="round" stroke-linejoin="round"/>
<path d="M120.398 36.9023H113.253V44.0452H120.398V36.9023Z" stroke="black" stroke-width="0.520701" stroke-linecap="round" stroke-linejoin="round"/>
<path d="M120.667 9.26758H65.3906V11.7474H120.667V9.26758Z" stroke="black" stroke-width="0.520701" stroke-linecap="round" stroke-linejoin="round"/>
</g>
<g opacity="0.2">
<path d="M370.352 60.5332H394.69V111.556H388.369" stroke="black" stroke-width="0.520701" stroke-linecap="round" stroke-linejoin="round"/>
<path d="M384.042 111.556H329.581V60.5332H364.585" stroke="black" stroke-width="0.520701" stroke-linecap="round" stroke-linejoin="round"/>
<path d="M341.642 75.3398H334.497V82.4827H341.642V75.3398Z" stroke="black" stroke-width="0.520701" stroke-linecap="round" stroke-linejoin="round"/>
<path d="M351.276 75.3398H344.131V82.4827H351.276V75.3398Z" stroke="black" stroke-width="0.520701" stroke-linecap="round" stroke-linejoin="round"/>
<path d="M360.901 75.3398H353.756V82.4827H360.901V75.3398Z" stroke="black" stroke-width="0.520701" stroke-linecap="round" stroke-linejoin="round"/>
<path d="M370.525 75.3398H363.38V82.4827H370.525V75.3398Z" stroke="black" stroke-width="0.520701" stroke-linecap="round" stroke-linejoin="round"/>
<path d="M380.149 75.3398H373.004V82.4827H380.149V75.3398Z" stroke="black" stroke-width="0.520701" stroke-linecap="round" stroke-linejoin="round"/>
<path d="M389.774 75.3398H382.629V82.4827H389.774V75.3398Z" stroke="black" stroke-width="0.520701" stroke-linecap="round" stroke-linejoin="round"/>
<path d="M341.642 85.2734H334.497V92.4163H341.642V85.2734Z" stroke="black" stroke-width="0.520701" stroke-linecap="round" stroke-linejoin="round"/>
<path d="M351.276 85.2734H344.131V92.4163H351.276V85.2734Z" stroke="black" stroke-width="0.520701" stroke-linecap="round" stroke-linejoin="round"/>
<path d="M360.901 85.2734H353.756V92.4163H360.901V85.2734Z" stroke="black" stroke-width="0.520701" stroke-linecap="round" stroke-linejoin="round"/>
<path d="M370.525 85.2734H363.38V92.4163H370.525V85.2734Z" stroke="black" stroke-width="0.520701" stroke-linecap="round" stroke-linejoin="round"/>
<path d="M380.149 85.2734H373.004V92.4163H380.149V85.2734Z" stroke="black" stroke-width="0.520701" stroke-linecap="round" stroke-linejoin="round"/>
<path d="M389.774 85.2734H382.629V92.4163H389.774V85.2734Z" stroke="black" stroke-width="0.520701" stroke-linecap="round" stroke-linejoin="round"/>
<path d="M341.642 95.207H334.497V102.35H341.642V95.207Z" stroke="black" stroke-width="0.520701" stroke-linecap="round" stroke-linejoin="round"/>
<path d="M351.276 95.207H344.131V102.35H351.276V95.207Z" stroke="black" stroke-width="0.520701" stroke-linecap="round" stroke-linejoin="round"/>
<path d="M360.901 95.207H353.756V102.35H360.901V95.207Z" stroke="black" stroke-width="0.520701" stroke-linecap="round" stroke-linejoin="round"/>
<path d="M370.525 95.207H363.38V102.35H370.525V95.207Z" stroke="black" stroke-width="0.520701" stroke-linecap="round" stroke-linejoin="round"/>
<path d="M380.149 95.207H373.004V102.35H380.149V95.207Z" stroke="black" stroke-width="0.520701" stroke-linecap="round" stroke-linejoin="round"/>
<path d="M389.774 95.207H382.629V102.35H389.774V95.207Z" stroke="black" stroke-width="0.520701" stroke-linecap="round" stroke-linejoin="round"/>
<path d="M390.052 67.5801H334.775V70.0686H390.052V67.5801Z" stroke="black" stroke-width="0.520701" stroke-linecap="round" stroke-linejoin="round"/>
</g>
<g opacity="0.2">
<path d="M28.0187 142.121V115.5C28.0142 115.063 28.0964 114.628 28.2608 114.222C28.4252 113.817 28.6685 113.448 28.9765 113.136C29.2845 112.825 29.6512 112.578 30.0554 112.41C30.4595 112.241 30.8931 112.154 31.331 112.154H72.9508C73.8316 112.154 74.6763 112.504 75.299 113.127C75.9218 113.749 76.2717 114.594 76.2717 115.474V153.763H28.0187V147.886" stroke="black" stroke-width="0.520701" stroke-linecap="round" stroke-linejoin="round"/>
<path d="M28.6182 121.221H75.6399" stroke="black" stroke-width="0.520701" stroke-linecap="round" stroke-linejoin="round"/>
<path d="M39.8796 129.057H32.8389V134.474H71.4152V129.057H47.085" stroke="black" stroke-width="0.520701" stroke-linecap="round" stroke-linejoin="round"/>
<path d="M71.4152 140.51H32.8389V145.936H71.4152V140.51Z" stroke="black" stroke-width="0.520701" stroke-linecap="round" stroke-linejoin="round"/>
</g>
<g opacity="0.2">
<path d="M227.292 335.803H268.912C269.79 335.803 270.633 336.152 271.254 336.773C271.875 337.394 272.224 338.236 272.224 339.114V377.412H223.98V339.149C223.975 338.711 224.057 338.277 224.222 337.871C224.386 337.465 224.629 337.096 224.937 336.785C225.245 336.474 225.612 336.227 226.016 336.058C226.42 335.889 226.854 335.803 227.292 335.803V335.803Z" stroke="black" stroke-width="0.520701" stroke-linecap="round" stroke-linejoin="round"/>
<path d="M224.578 344.869H271.6" stroke="black" stroke-width="0.520701" stroke-linecap="round" stroke-linejoin="round"/>
<path d="M267.377 352.705H228.801V358.132H267.377V352.705Z" stroke="black" stroke-width="0.520701" stroke-linecap="round" stroke-linejoin="round"/>
<path d="M267.377 364.156H228.801V369.583H267.377V364.156Z" stroke="black" stroke-width="0.520701" stroke-linecap="round" stroke-linejoin="round"/>
</g>
<g opacity="0.2">
<path d="M236.639 11.3489C231.465 6.42434 224.546 3.7564 217.404 3.93198C210.262 4.10755 203.483 7.11225 198.557 12.2851C193.631 17.4579 190.962 24.3751 191.138 31.5151C191.314 38.655 194.319 45.4327 199.493 50.3572" stroke="black" stroke-width="0.520701" stroke-linecap="round" stroke-linejoin="round"/>
<path d="M202.527 52.9761C207.872 56.9306 214.492 58.7684 221.111 58.1355C227.731 57.5027 233.882 54.444 238.381 49.5484C242.879 44.6528 245.407 38.2664 245.478 31.6189C245.548 24.9714 243.156 18.5329 238.763 13.543" stroke="black" stroke-width="0.520701" stroke-linecap="round" stroke-linejoin="round"/>
<path d="M230.882 31.3379H218.561V52.255" stroke="black" stroke-width="0.520701" stroke-linecap="round" stroke-linejoin="round"/>
</g>
<g opacity="0.2">
<path d="M27.9412 49.9648C26.0723 50.2601 24.286 50.9436 22.6975 51.9713C21.109 52.999 19.7534 54.348 18.7183 55.9314C17.6832 57.5148 16.9914 59.2975 16.6875 61.1646C16.3836 63.0316 16.4745 64.9416 16.9541 66.7715C17.4337 68.6013 18.2916 70.3103 19.4723 71.7885C20.653 73.2666 22.1304 74.481 23.8093 75.3533C25.4881 76.2257 27.3312 76.7368 29.2197 76.8535C31.1082 76.9702 33.0002 76.6901 34.7738 76.0311" stroke="black" stroke-width="0.520701" stroke-linecap="round" stroke-linejoin="round"/>
<path d="M39.1789 73.3269C41.0783 71.5763 42.4376 69.3194 43.0966 66.8221C43.7557 64.3249 43.6871 61.6914 42.8989 59.2318C42.1108 56.7722 40.6359 54.5891 38.648 52.9397C36.6601 51.2903 34.242 50.2432 31.6787 49.9219" stroke="black" stroke-width="0.520701" stroke-linecap="round" stroke-linejoin="round"/>
<path d="M30.0225 56.4492V70.2408" stroke="black" stroke-width="0.520701" stroke-miterlimit="10"/>
<path d="M36.924 63.3496H23.1201" stroke="black" stroke-width="0.520701" stroke-miterlimit="10"/>
</g>
<g opacity="0.2">
<path d="M394.473 182.395C401.953 182.395 408.017 176.333 408.017 168.855C408.017 161.377 401.953 155.314 394.473 155.314C386.993 155.314 380.93 161.377 380.93 168.855C380.93 176.333 386.993 182.395 394.473 182.395Z" stroke="black" stroke-width="0.520701" stroke-linecap="round" stroke-linejoin="round"/>
<path d="M394.474 161.955V175.755" stroke="black" stroke-width="0.520701" stroke-miterlimit="10"/>
<path d="M401.367 168.855H387.571" stroke="black" stroke-width="0.520701" stroke-miterlimit="10"/>
</g>
<path d="M369.301 349.672H58.0195L58.3837 93.4908C58.3837 91.0239 59.3639 88.6581 61.1087 86.9138C62.8535 85.1694 65.22 84.1895 67.6875 84.1895H360.362C361.584 84.1883 362.794 84.4281 363.923 84.8952C365.053 85.3622 366.079 86.0473 366.943 86.9112C367.807 87.7751 368.492 88.801 368.959 89.93C369.427 91.059 369.666 92.269 369.665 93.4908L369.301 349.672Z" fill="white" stroke="#263238" stroke-width="0.520701" stroke-linecap="round" stroke-linejoin="round"/>
<path d="M134.323 106.953H99.6396V115.622H134.323V106.953Z" fill="#EAECF7" stroke="#232323" stroke-width="0.520701" stroke-linecap="round" stroke-linejoin="round"/>
<path d="M174.209 106.953H139.525V115.622H174.209V106.953Z" fill="#EAECF7" stroke="#232323" stroke-width="0.520701" stroke-linecap="round" stroke-linejoin="round"/>
<path d="M214.094 106.953H179.411V115.622H214.094V106.953Z" fill="#EAECF7" stroke="#232323" stroke-width="0.520701" stroke-linecap="round" stroke-linejoin="round"/>
<path d="M253.98 106.953H219.297V115.622H253.98V106.953Z" fill="#0EABEB" stroke="#232323" stroke-width="0.520701" stroke-linecap="round" stroke-linejoin="round"/>
<path d="M277.6 119.34H358.195" stroke="#263238" stroke-width="0.520701" stroke-linecap="round" stroke-linejoin="round"/>
<path d="M75.665 119.34H272.9" stroke="#263238" stroke-width="0.520701" stroke-linecap="round" stroke-linejoin="round"/>
<path d="M360.363 84.1895H67.6885C65.221 84.1895 62.8546 85.1694 61.1098 86.9138C59.365 88.6581 58.3848 91.0239 58.3848 93.4908V100.573H369.666V93.4908C369.668 92.269 369.428 91.059 368.961 89.93C368.493 88.801 367.808 87.7751 366.944 86.9112C366.08 86.0473 365.054 85.3622 363.924 84.8952C362.795 84.4281 361.585 84.1883 360.363 84.1895Z" fill="#263238" stroke="#263238" stroke-width="0.520701" stroke-linecap="round" stroke-linejoin="round"/>
<path d="M75.3618 93.2832C75.3618 92.7277 75.1971 92.1847 74.8884 91.7228C74.5797 91.261 74.1409 90.901 73.6276 90.6884C73.1143 90.4758 72.5494 90.4202 72.0044 90.5286C71.4595 90.6369 70.9589 90.9044 70.566 91.2972C70.1731 91.69 69.9055 92.1905 69.7971 92.7353C69.6887 93.2801 69.7444 93.8448 69.957 94.358C70.1696 94.8712 70.5297 95.3099 70.9917 95.6185C71.4537 95.9271 71.9969 96.0918 72.5525 96.0918C73.2976 96.0918 74.0122 95.7959 74.539 95.2692C75.0659 94.7425 75.3618 94.0281 75.3618 93.2832Z" fill="white" stroke="#263238" stroke-width="0.520701" stroke-linecap="round" stroke-linejoin="round"/>
<path d="M86.5728 93.2832C86.5728 92.7277 86.408 92.1847 86.0993 91.7228C85.7906 91.261 85.3519 90.901 84.8385 90.6884C84.3252 90.4758 83.7603 90.4202 83.2154 90.5286C82.6704 90.6369 82.1698 90.9044 81.7769 91.2972C81.384 91.69 81.1165 92.1905 81.0081 92.7353C80.8997 93.2801 80.9553 93.8448 81.168 94.358C81.3806 94.8712 81.7407 95.3099 82.2027 95.6185C82.6647 95.9271 83.2078 96.0918 83.7634 96.0918C84.5085 96.0918 85.2231 95.7959 85.7499 95.2692C86.2768 94.7425 86.5728 94.0281 86.5728 93.2832Z" fill="white" stroke="#263238" stroke-width="0.520701" stroke-linecap="round" stroke-linejoin="round"/>
<path d="M94.992 96.0918C96.5435 96.0918 97.8013 94.8344 97.8013 93.2832C97.8013 91.7321 96.5435 90.4746 94.992 90.4746C93.4404 90.4746 92.1826 91.7321 92.1826 93.2832C92.1826 94.8344 93.4404 96.0918 94.992 96.0918Z" fill="white" stroke="#263238" stroke-width="0.520701" stroke-linecap="round" stroke-linejoin="round"/>
<path d="M76.3496 107.49H89.668" stroke="#263238" stroke-width="0.520701" stroke-linecap="round" stroke-linejoin="round"/>
<path d="M76.3496 111.07H89.668" stroke="#263238" stroke-width="0.520701" stroke-linecap="round" stroke-linejoin="round"/>
<path d="M76.3496 114.643H89.668" stroke="#263238" stroke-width="0.520701" stroke-linecap="round" stroke-linejoin="round"/>
<path d="M356.946 144.229H288.421C286.16 144.229 284.328 146.06 284.328 148.32V167.686C284.328 169.945 286.16 171.777 288.421 171.777H356.946C359.206 171.777 361.039 169.945 361.039 167.686V148.32C361.039 146.06 359.206 144.229 356.946 144.229Z" fill="#0EABEB" stroke="#263238" stroke-width="0.520701" stroke-linecap="round" stroke-linejoin="round"/>
<path d="M295.002 34.2414C295.002 34.2414 284.926 38.6797 279.68 40.084C274.435 41.4883 268.799 43.7161 267.385 48.1457C265.972 52.5753 259.677 69.6176 259.269 73.2844C258.862 76.9512 265.339 83.4526 265.339 83.4526H349.203C349.203 83.4526 350.764 62.2407 347.33 54.9852C343.896 47.7296 333.457 41.5316 330.457 40.3267C327.457 39.1218 319.601 35.2469 316.41 34.6488C313.219 34.0507 298.635 32.8284 295.002 34.2414Z" fill="white" stroke="#263238" stroke-width="0.520701" stroke-linecap="round" stroke-linejoin="round"/>
<path d="M267.203 63.6113C268.818 63.1401 270.521 63.0516 272.177 63.3526C273.832 63.6536 275.395 64.3359 276.741 65.3454" fill="white"/>
<path d="M267.203 63.6113C268.818 63.1401 270.521 63.0516 272.177 63.3526C273.832 63.6536 275.395 64.3359 276.741 65.3454" stroke="#263238" stroke-width="0.520701" stroke-linecap="round" stroke-linejoin="round"/>
<path d="M273.923 65.3438C275.854 65.45 277.69 66.2151 279.125 67.5115L273.923 65.3438Z" fill="white"/>
<path d="M273.923 65.3438C275.854 65.45 277.69 66.2151 279.125 67.5115" stroke="#263238" stroke-width="0.520701" stroke-linecap="round" stroke-linejoin="round"/>
<path d="M282.49 55.6699C283.279 57.0205 283.62 58.5867 283.461 60.1429C283.208 63.1251 282.491 66.0497 281.337 68.8114" stroke="#263238" stroke-width="0.520701" stroke-linecap="round" stroke-linejoin="round"/>
<path d="M279.559 52.7305C280.354 53.2095 281.066 53.8156 281.665 54.5249" stroke="#263238" stroke-width="0.520701" stroke-linecap="round" stroke-linejoin="round"/>
<path d="M284.701 55.4199C284.701 55.4199 286.323 60.3003 285.412 64.2445" stroke="#263238" stroke-width="0.520701" stroke-linecap="round" stroke-linejoin="round"/>
<path d="M328.264 58.4102C328.264 58.4102 326.252 65.4663 326.451 67.6855" stroke="#263238" stroke-width="0.520701" stroke-linecap="round" stroke-linejoin="round"/>
<path d="M296.197 51.5354L299.9 58.1928L303.047 68.3696L307.487 59.1203L311.744 51.7261L303.411 50.4258L296.197 51.5354Z" fill="#0EABEB" stroke="#263238" stroke-width="0.520701" stroke-linecap="round" stroke-linejoin="round"/>
<path d="M299.9 58.2012L307.487 59.1203" stroke="#263238" stroke-width="0.520701" stroke-linecap="round" stroke-linejoin="round"/>
<path d="M295.808 39.6842C294.857 40.9735 294.109 42.3999 293.588 43.9144C292.782 46.333 291.377 54.5941 291.377 54.5941C291.377 54.5941 299.233 54.1953 301.253 54.1953C303.273 54.1953 306.455 54.3947 307.097 54.3947C307.739 54.3947 316.774 59.8385 316.774 59.8385C316.774 59.8385 318.387 50.5632 316.574 45.3274C314.762 40.0916 302.458 33.8416 295.808 39.6842Z" fill="white" stroke="#263238" stroke-width="0.520701" stroke-linecap="round" stroke-linejoin="round"/>
<path d="M300.04 51.1185L303.231 57.828L309.717 50.5117C309.717 50.5117 303.673 52.3408 300.04 51.1185Z" fill="white" stroke="#263238" stroke-width="0.520701" stroke-linecap="round" stroke-linejoin="round"/>
<path d="M327.075 126.777L323.962 132.525C323.962 132.525 320.113 133.331 319.714 134.137C318.726 135.977 317.565 137.719 316.245 139.338C315.24 140.344 313.228 141.757 315.04 142.563C316.852 143.369 320.078 139.745 320.078 139.745L321.89 138.731C322.019 140.341 321.822 141.959 321.309 143.49C320.121 146.897 318.751 151.041 318.925 151.474C319.792 153.641 321.222 152.115 321.222 152.115L323.928 145.796L324.405 145.493C324.405 145.493 323.858 152.714 323.858 152.74C323.754 154.066 324.925 155.618 325.948 154.257L328.367 146.602V153.485C328.36 153.736 328.41 153.985 328.514 154.213C328.617 154.442 328.771 154.644 328.964 154.804C329.157 154.964 329.384 155.079 329.627 155.138C329.871 155.198 330.125 155.202 330.37 155.149L330.587 155.063C331.393 154.664 331.671 146.256 331.671 146.256L333.353 152.323C333.392 152.482 333.464 152.631 333.564 152.76C333.664 152.889 333.79 152.996 333.933 153.073C334.077 153.151 334.236 153.197 334.398 153.21C334.561 153.223 334.725 153.201 334.879 153.147C334.956 153.124 335.027 153.082 335.086 153.027C335.145 152.971 335.19 152.902 335.217 152.826C335.425 152.228 334.818 142.554 334.818 142.554L334.411 132.473L335.018 129.049L327.075 126.777Z" fill="white" stroke="#263238" stroke-width="0.520701" stroke-linecap="round" stroke-linejoin="round"/>
<path d="M330.89 59.2767C330.89 59.2767 327.664 66.1335 328.063 68.552C328.462 70.9706 337.861 94.0895 337.861 94.0895L326.182 127.732L335.459 129.951C335.459 129.951 351.301 106.407 352.983 101.345C353.906 98.4835 354.314 95.4811 354.188 92.4772C354.188 91.2636 350.443 63.715 348.223 58.878C346.932 56.0278 345.235 53.3796 343.185 51.0156" fill="white"/>
<path d="M330.89 59.2767C330.89 59.2767 327.664 66.1335 328.063 68.552C328.462 70.9706 337.861 94.0895 337.861 94.0895L326.182 127.732L335.459 129.951C335.459 129.951 351.301 106.407 352.983 101.345C353.906 98.4835 354.314 95.4811 354.188 92.4772C354.188 91.2636 350.443 63.715 348.223 58.878C346.932 56.0278 345.235 53.3796 343.185 51.0156" stroke="#263238" stroke-width="0.520701" stroke-linecap="round" stroke-linejoin="round"/>
<path d="M339.274 93.2385C339.274 93.2385 342.899 88.1934 345.119 84.9688" stroke="#263238" stroke-width="0.520701" stroke-linecap="round" stroke-linejoin="round"/>
<path d="M344.512 83.1582L340.081 88.8014" stroke="#263238" stroke-width="0.520701" stroke-linecap="round" stroke-linejoin="round"/>
<path d="M326.988 124.463L336.864 126.882" stroke="#263238" stroke-width="0.520701" stroke-linecap="round" stroke-linejoin="round"/>
<path d="M262.417 67.5211C261.47 68.3439 260.634 69.2849 259.928 70.321C258.107 72.9216 259.122 78.5821 260.327 80.3939C261.532 82.2056 266.397 83.4192 266.397 83.4192H305.537L306.326 76.8051H304.895C304.895 76.8051 297.846 74.586 292.799 73.173C287.753 71.76 277.842 67.5731 274.859 66.9316C272.58 66.4431 270.233 66.3522 267.923 66.6629" fill="white"/>
<path d="M262.417 67.5211C261.47 68.3439 260.634 69.2849 259.928 70.321C258.107 72.9216 259.122 78.5821 260.327 80.3939C261.532 82.2056 266.397 83.4192 266.397 83.4192H305.537L306.326 76.8051H304.895C304.895 76.8051 297.846 74.586 292.799 73.173C287.753 71.76 277.842 67.5731 274.859 66.9316C272.58 66.4431 270.233 66.3522 267.923 66.6629" stroke="#263238" stroke-width="0.520701" stroke-linecap="round" stroke-linejoin="round"/>
<path d="M312.126 83.4188L311.927 83.1674C311.927 83.1674 315.993 82.7946 316.548 82.6126C317.28 82.4436 318.021 82.3191 318.768 82.2399L324.647 83.4188H330.482L329.875 82.4132L324.673 79.1885L320.173 76.9434C315.499 74.6029 309.889 77.4895 304.912 76.77L305.857 76.8914L305.068 83.4188H312.126Z" fill="white" stroke="#263238" stroke-width="0.520701" stroke-linecap="round" stroke-linejoin="round"/>
<path d="M320.251 78.9102L329.503 82.9844" stroke="#263238" stroke-width="0.520701" stroke-linecap="round" stroke-linejoin="round"/>
<path d="M302.301 76.5098L302.059 83.2192" stroke="#263238" stroke-width="0.520701" stroke-linecap="round" stroke-linejoin="round"/>
<path d="M294.602 28.1999C292.984 25.948 292.008 23.2998 291.776 20.5369C291.576 16.3067 293.588 15.5005 293.588 15.5005C293.588 15.5005 290.57 10.6635 297.221 7.83755C303.871 5.01161 313.956 3.40793 319.6 6.43325C325.245 9.45856 327.257 16.5061 327.057 21.3431C326.858 26.1801 324.031 31.8234 324.031 31.8234L319.6 37.2672C319.6 37.2672 316.774 38.2727 316.132 37.0678C315.49 35.8629 312.135 32.2308 310.34 32.2308C308.545 32.2308 303.889 32.2308 301.47 31.2166C299.05 30.2023 294.602 28.1999 294.602 28.1999Z" fill="#263238" stroke="#263238" stroke-width="0.520701" stroke-linecap="round" stroke-linejoin="round"/>
<path d="M294.195 22.1504C294.195 22.1504 293.995 34.4424 293.995 37.0689C293.995 39.6955 293.995 42.27 295.2 44.9226C296.406 47.5752 297.42 54.5967 302.865 55.0041C308.311 55.4115 316.166 49.803 317.606 46.743C319.045 43.683 319.799 38.4732 319.799 38.4732C319.799 38.4732 324.638 35.2485 325.444 31.4257C326.25 27.6029 324.638 25.7825 323.632 27.5942C322.626 29.4059 321.213 34.0436 320.606 34.4424C319.999 34.8411 319.192 32.0238 319.192 32.0238C319.192 32.0238 316.166 33.2374 315.768 32.0238C315.369 30.8102 317.38 24.9763 317.38 24.9763C317.38 24.9763 310.73 26.7881 309.316 26.7881C307.805 26.6143 306.316 26.2772 304.877 25.7825L310.73 29.4059C308.176 30.4651 305.35 30.6777 302.666 30.0127C298.634 28.7991 295.608 22.1504 295.608 22.1504H294.195Z" fill="white" stroke="#263238" stroke-width="0.520701" stroke-linecap="round" stroke-linejoin="round"/>
<path d="M300.247 35.0488V37.4673C300.247 37.4673 297.646 44.3241 298.027 45.5291C298.409 46.734 302.059 46.1359 302.866 45.7284" fill="white"/>
<path d="M300.247 35.0488V37.4673C300.247 37.4673 297.646 44.3241 298.027 45.5291C298.409 46.734 302.059 46.1359 302.866 45.7285" stroke="#263238" stroke-width="0.520701" stroke-linecap="round" stroke-linejoin="round"/>
<path d="M299.84 47.5488C301.028 48.2399 302.372 48.6204 303.747 48.6553C305.121 48.6902 306.482 48.3782 307.704 47.7483" fill="white"/>
<path d="M299.84 47.5488C301.028 48.2399 302.372 48.6204 303.747 48.6553C305.121 48.6902 306.482 48.3782 307.704 47.7483" stroke="#263238" stroke-width="0.520701" stroke-linecap="round" stroke-linejoin="round"/>
<path d="M305.685 38.4727C306.696 39.1904 307.864 39.6568 309.091 39.8332C310.318 40.0096 311.57 39.891 312.743 39.4871" fill="white"/>
<path d="M305.685 38.4727C306.696 39.1904 307.864 39.6568 309.091 39.8332C310.318 40.0096 311.57 39.891 312.743 39.4871" stroke="#263238" stroke-width="0.520701" stroke-linecap="round" stroke-linejoin="round"/>
<path d="M305.893 34.8476C305.893 34.8476 310.341 33.2695 313.15 36.2609L305.893 34.8476Z" fill="white"/>
<path d="M305.893 34.8476C305.893 34.8476 310.341 33.2695 313.15 36.2609" stroke="#263238" stroke-width="0.520701" stroke-linecap="round" stroke-linejoin="round"/>
<path d="M295.6 35.248C295.6 35.248 296.406 37.0689 300.239 37.4678L295.6 35.248Z" fill="white"/>
<path d="M295.6 35.248C295.6 35.248 296.406 37.0689 300.239 37.4678" stroke="#263238" stroke-width="0.520701" stroke-linecap="round" stroke-linejoin="round"/>
<path d="M299.44 33.271C299.44 33.271 298.027 30.8525 295.973 31.6587L299.44 33.271Z" fill="white"/>
<path d="M299.44 33.271C299.44 33.271 298.027 30.8525 295.973 31.6587" stroke="#263238" stroke-width="0.520701" stroke-linecap="round" stroke-linejoin="round"/>
<path d="M303.048 68.3691L297.308 119.609L304.712 129.968L311.554 119.609L303.048 68.3691Z" fill="#0EABEB" stroke="#263238" stroke-width="0.520701" stroke-linecap="round" stroke-linejoin="round"/>
<path d="M80.6426 193.188V201.622C80.6426 201.622 166.986 198.094 271.764 196.343L80.6426 193.188Z" fill="#263238" stroke="#263238" stroke-width="0.520701" stroke-linecap="round" stroke-linejoin="round"/>
<path d="M271.763 144.02H75.8809V196.343H271.763V144.02Z" fill="white" stroke="#263238" stroke-width="0.520701" stroke-linecap="round" stroke-linejoin="round"/>
<path d="M93.1533 204.908C93.1533 204.908 96.0494 197.375 96.6216 196.603C97.1939 195.832 98.165 193.899 99.9079 193.899C101.651 193.899 104.738 194.089 106.09 193.508C107.443 192.928 109.177 192.928 108.795 194.089C108.414 195.251 106.09 195.632 106.09 195.632L116.131 196.412C116.131 196.412 113.235 199.108 111.882 199.689C110.497 200.18 109.076 200.569 107.634 200.851C106.433 201.659 105.133 202.309 103.766 202.784C102.494 203.058 101.205 203.251 99.9079 203.365L97.7835 207.222L93.1533 204.908Z" fill="white" stroke="#263238" stroke-width="0.520701" stroke-linecap="round" stroke-linejoin="round"/>
<path d="M106.099 195.623L101.651 196.785" stroke="#263238" stroke-width="0.520701" stroke-linecap="round" stroke-linejoin="round"/>
<path d="M69.1964 171.48L65.9102 177.089L67.8437 181.527L73.2543 177.47L75.9596 175.537V163.947L69.1964 171.48Z" fill="white" stroke="#263238" stroke-width="0.520701" stroke-linecap="round" stroke-linejoin="round"/>
<path d="M68.4258 174.568C68.4258 174.568 69.9692 166.645 70.7409 165.683C71.5126 164.72 74.6081 162.397 75.5705 162.215C76.533 162.033 77.8943 162.597 77.1226 163.758C76.158 164.862 75.0532 165.836 73.8364 166.654C73.8364 166.654 75.189 170.52 74.2179 172.643C73.5495 173.981 72.4667 175.066 71.1311 175.738" fill="white"/>
<path d="M68.4258 174.568C68.4258 174.568 69.9692 166.645 70.7409 165.683C71.5126 164.72 74.6081 162.397 75.5705 162.215C76.533 162.033 77.8943 162.597 77.1226 163.758C76.158 164.862 75.0532 165.836 73.8364 166.654C73.8364 166.654 75.189 170.52 74.2179 172.643C73.5495 173.981 72.4667 175.066 71.1311 175.738" stroke="#263238" stroke-width="0.520701" stroke-linecap="round" stroke-linejoin="round"/>
<path d="M66.1102 175.539L69.3878 183.844L52.5838 196.595L48.916 183.462L66.1102 175.539Z" fill="#009688" stroke="#263238" stroke-width="0.520701" stroke-linecap="round" stroke-linejoin="round"/>
<path d="M58.4539 314.851L59.1042 323.086C59.1042 323.086 54.7688 332.188 55.2024 340.206C55.6359 348.224 56.503 371.413 56.503 372.713C56.503 374.013 54.3353 375.53 55.8527 380.948C56.2775 382.456 59.9713 381.382 63.6564 383.765C67.3415 386.149 71.8936 387.666 74.7116 387.666C77.5297 387.666 79.047 387.666 79.047 386.366C79.047 385.066 74.9284 383.332 73.1943 381.598C70.4709 378.504 67.9373 375.247 65.6073 371.846C65.1738 370.979 67.1247 358.193 68.4253 353.209C69.7259 348.224 73.411 336.305 74.9284 327.853C76.4458 319.402 77.0961 312.467 77.0961 312.467L58.4539 314.851Z" fill="white" stroke="#263238" stroke-width="0.520701" stroke-linecap="round" stroke-linejoin="round"/>
<path d="M55.8525 380.948L56.2861 386.799H59.3209L60.6215 382.032C60.6215 382.032 56.9364 380.731 55.8525 380.948Z" fill="#263238" stroke="#263238" stroke-width="0.520701" stroke-linecap="round" stroke-linejoin="round"/>
<path d="M74.7116 387.666C77.5122 387.389 79.047 387.666 79.047 386.366C79.047 385.066 74.9283 383.332 73.1942 381.598C70.8367 378.924 68.617 376.132 66.5437 373.233C65.6495 373.932 64.5705 374.353 63.4395 374.447C60.188 374.663 56.5029 372.713 56.5029 372.713C56.5029 374.013 54.3352 375.53 55.8526 380.948C56.2774 382.456 60.0926 382.188 63.0667 385.759C65.876 389.131 74.2867 387.709 74.7116 387.666Z" fill="#263238" stroke="#263238" stroke-width="0.520701" stroke-linecap="round" stroke-linejoin="round"/>
<path d="M33.0919 308.564L33.5254 320.7C33.5254 320.7 27.8894 328.285 26.8056 335.654C25.7217 343.022 22.0366 371.845 22.0366 374.662C22.0366 377.479 20.3025 386.581 21.1695 387.231C22.0366 387.881 32.008 387.231 32.008 387.231C32.36 386.261 32.5075 385.228 32.4416 384.197C32.4416 382.03 30.7074 374.879 31.141 373.145C31.5745 371.411 33.0919 365.993 33.0919 365.993C33.0919 365.993 39.8118 348.44 42.6298 343.022C45.4478 337.604 47.8322 329.802 49.3496 325.035C50.867 320.267 52.1676 313.549 52.1676 313.549L33.0919 308.564Z" fill="white" stroke="#263238" stroke-width="0.520701" stroke-linecap="round" stroke-linejoin="round"/>
<path d="M31.0889 373.476C28.0802 369.245 23.1725 371.829 22.21 372.392C22.0973 373.51 22.0366 374.308 22.0366 374.663C22.0366 377.48 20.3025 386.582 21.1695 387.233C22.0366 387.883 32.008 387.233 32.008 387.233C32.3599 386.262 32.5075 385.229 32.4416 384.199C32.4416 382.153 30.8895 375.677 31.0889 373.476Z" fill="#263238" stroke="#263238" stroke-width="0.520701" stroke-linecap="round" stroke-linejoin="round"/>
<path d="M358.028 205.775H78.833C77.3951 205.775 76.2295 206.941 76.2295 208.379V220.509C76.2295 221.947 77.3951 223.112 78.833 223.112H358.028C359.466 223.112 360.632 221.947 360.632 220.509V208.379C360.632 206.941 359.466 205.775 358.028 205.775Z" fill="white" stroke="#263238" stroke-width="0.520701" stroke-linecap="round" stroke-linejoin="round"/>
<rect x="80.5645" y="212.711" width="52.0248" height="4.33427" rx="2.16713" fill="#EAECF7"/>
<rect x="137.792" y="212.711" width="32.082" height="4.33427" rx="2.16713" fill="#EAECF7"/>
<rect x="175.076" y="212.711" width="32.082" height="4.33427" rx="2.16713" fill="#EAECF7"/>
<rect x="265.252" y="212.711" width="32.0819" height="4.33427" rx="2.16713" fill="#EAECF7"/>
<rect x="302.536" y="212.711" width="32.0819" height="4.33427" rx="2.16713" fill="#EAECF7"/>
<rect x="339.821" y="212.711" width="15.6075" height="4.33427" rx="2.16713" fill="#EAECF7"/>
<rect x="212.36" y="212.711" width="47.6894" height="4.33427" rx="2.16713" fill="#EAECF7"/>
<path d="M358.028 229.18H78.833C77.3951 229.18 76.2295 230.345 76.2295 231.783V243.913C76.2295 245.351 77.3951 246.517 78.833 246.517H358.028C359.466 246.517 360.632 245.351 360.632 243.913V231.783C360.632 230.345 359.466 229.18 358.028 229.18Z" fill="white" stroke="#263238" stroke-width="0.520701" stroke-linecap="round" stroke-linejoin="round"/>
<rect x="80.5654" y="236.115" width="52.0248" height="4.33427" rx="2.16713" fill="#EAECF7"/>
<rect x="137.793" y="236.115" width="32.082" height="4.33427" rx="2.16713" fill="#EAECF7"/>
<rect x="175.077" y="236.115" width="32.082" height="4.33427" rx="2.16713" fill="#EAECF7"/>
<rect x="265.254" y="236.115" width="32.0819" height="4.33427" rx="2.16713" fill="#EAECF7"/>
<rect x="302.537" y="236.115" width="32.0819" height="4.33427" rx="2.16713" fill="#EAECF7"/>
<rect x="339.822" y="236.115" width="15.6075" height="4.33427" rx="2.16713" fill="#EAECF7"/>
<rect x="212.361" y="236.115" width="47.6894" height="4.33427" rx="2.16713" fill="#EAECF7"/>
<path d="M358.028 252.586H78.833C77.3951 252.586 76.2295 253.752 76.2295 255.189V267.319C76.2295 268.757 77.3951 269.923 78.833 269.923H358.028C359.466 269.923 360.632 268.757 360.632 267.319V255.189C360.632 253.752 359.466 252.586 358.028 252.586Z" fill="white" stroke="#263238" stroke-width="0.520701" stroke-linecap="round" stroke-linejoin="round"/>
<rect x="80.5645" y="259.521" width="52.0248" height="4.33425" rx="2.16713" fill="#EAECF7"/>
<rect x="137.792" y="259.521" width="32.082" height="4.33425" rx="2.16713" fill="#EAECF7"/>
<rect x="175.076" y="259.521" width="32.082" height="4.33425" rx="2.16713" fill="#EAECF7"/>
<rect x="265.252" y="259.521" width="32.0819" height="4.33425" rx="2.16713" fill="#EAECF7"/>
<rect x="302.536" y="259.521" width="32.0819" height="4.33425" rx="2.16713" fill="#EAECF7"/>
<rect x="339.821" y="259.521" width="15.6075" height="4.33425" rx="2.16713" fill="#EAECF7"/>
<rect x="212.36" y="259.521" width="47.6894" height="4.33425" rx="2.16713" fill="#EAECF7"/>
<path d="M358.028 275.99H78.833C77.3951 275.99 76.2295 277.156 76.2295 278.594V290.724C76.2295 292.162 77.3951 293.327 78.833 293.327H358.028C359.466 293.327 360.632 292.162 360.632 290.724V278.594C360.632 277.156 359.466 275.99 358.028 275.99Z" fill="white" stroke="#263238" stroke-width="0.520701" stroke-linecap="round" stroke-linejoin="round"/>
<rect x="80.5654" y="282.926" width="52.0248" height="4.33428" rx="2.16714" fill="#EAECF7"/>
<rect x="137.793" y="282.926" width="32.082" height="4.33428" rx="2.16714" fill="#EAECF7"/>
<rect x="175.077" y="282.926" width="32.082" height="4.33428" rx="2.16714" fill="#EAECF7"/>
<rect x="265.254" y="282.926" width="32.0819" height="4.33428" rx="2.16714" fill="#EAECF7"/>
<rect x="302.537" y="282.926" width="32.0819" height="4.33428" rx="2.16714" fill="#EAECF7"/>
<rect x="339.822" y="282.926" width="15.6075" height="4.33428" rx="2.16714" fill="#EAECF7"/>
<rect x="212.361" y="282.926" width="47.6894" height="4.33428" rx="2.16714" fill="#EAECF7"/>
<path d="M358.028 299.395H78.833C77.3951 299.395 76.2295 300.56 76.2295 301.998V314.128C76.2295 315.566 77.3951 316.732 78.833 316.732H358.028C359.466 316.732 360.632 315.566 360.632 314.128V301.998C360.632 300.56 359.466 299.395 358.028 299.395Z" fill="white" stroke="#263238" stroke-width="0.520701" stroke-linecap="round" stroke-linejoin="round"/>
<rect x="80.5654" y="306.33" width="52.0248" height="4.33428" rx="2.16714" fill="#EAECF7"/>
<rect x="137.793" y="306.33" width="32.082" height="4.33425" rx="2.16713" fill="#EAECF7"/>
<rect x="175.077" y="306.33" width="32.082" height="4.33425" rx="2.16713" fill="#EAECF7"/>
<rect x="265.254" y="306.33" width="32.0819" height="4.33425" rx="2.16713" fill="#EAECF7"/>
<rect x="302.537" y="306.33" width="32.0819" height="4.33425" rx="2.16713" fill="#EAECF7"/>
<rect x="339.822" y="306.33" width="15.6075" height="4.33425" rx="2.16713" fill="#EAECF7"/>
<rect x="212.361" y="306.33" width="47.6894" height="4.33425" rx="2.16713" fill="#EAECF7"/>
<path d="M358.028 322.799H78.833C77.3951 322.799 76.2295 323.964 76.2295 325.402V337.532C76.2295 338.97 77.3951 340.136 78.833 340.136H358.028C359.466 340.136 360.632 338.97 360.632 337.532V325.402C360.632 323.964 359.466 322.799 358.028 322.799Z" fill="white" stroke="#263238" stroke-width="0.520701" stroke-linecap="round" stroke-linejoin="round"/>
<rect x="80.5654" y="329.734" width="52.0248" height="4.33425" rx="2.16713" fill="#EAECF7"/>
<rect x="137.793" y="329.734" width="32.082" height="4.33425" rx="2.16713" fill="#EAECF7"/>
<rect x="175.077" y="329.734" width="32.082" height="4.33425" rx="2.16713" fill="#EAECF7"/>
<rect x="265.254" y="329.734" width="32.0819" height="4.33425" rx="2.16713" fill="#EAECF7"/>
<rect x="302.537" y="329.734" width="32.0819" height="4.33425" rx="2.16713" fill="#EAECF7"/>
<rect x="339.822" y="329.734" width="15.6075" height="4.33425" rx="2.16713" fill="#EAECF7"/>
<rect x="212.361" y="329.734" width="47.6894" height="4.33425" rx="2.16713" fill="#EAECF7"/>
<path d="M32.0068 387.232C31.5733 385.932 28.5385 380.73 28.5385 380.73L22.9025 380.947C20.9515 383.114 21.1683 387.232 21.1683 387.232C22.0354 387.882 32.0068 387.232 32.0068 387.232Z" fill="white" stroke="#263238" stroke-width="0.520701" stroke-linecap="round" stroke-linejoin="round"/>
<path d="M28.5393 380.731C28.5393 380.731 26.5884 378.998 25.071 379.648C24.2789 379.953 23.5456 380.393 22.9033 380.948L23.1201 387.449H27.0219L28.5393 380.731Z" fill="#263238" stroke="#263238" stroke-width="0.520701" stroke-linecap="round" stroke-linejoin="round"/>
<path d="M28.3227 265.439C27.1633 268.642 26.5053 272.004 26.3718 275.408C26.155 281.042 27.6724 308.782 27.6724 308.782C27.6724 308.782 38.5109 316.15 56.7196 316.8C74.9282 317.45 83.3823 312.466 83.3823 312.466C83.3823 312.466 82.9487 279.092 80.781 271.074C78.6133 263.055 74.7115 259.805 74.7115 259.805C74.7115 259.805 66.0407 262.405 52.8177 262.188C45.303 262.132 37.8167 261.26 30.4904 259.588L28.3227 265.439Z" fill="#263238" stroke="#263238" stroke-width="0.520701" stroke-linecap="round" stroke-linejoin="round"/>
<path d="M34.0367 198.717C34.0367 198.717 28.6261 208.755 27.8544 216.098C27.0827 223.44 34.2274 245.839 34.2274 246.611C34.2274 247.382 26.7012 266.696 26.7012 266.696C32.6157 269.231 38.7441 271.236 45.0139 272.686C54.6732 274.81 64.5232 273.457 66.4568 272.876L68.9713 265.352L69.9338 271.724C69.9338 271.724 69.9338 271.914 73.0292 271.143C76.1247 270.371 79.9659 267.086 79.9659 267.086C79.9659 267.086 74.9455 255.305 72.431 252.02C69.9164 248.735 66.8296 241.21 66.8296 241.21L67.9828 231.554C67.9828 231.554 76.6536 238.696 77.4513 238.887C78.2491 239.078 90.2061 225.018 92.7119 220.926C95.2178 216.834 99.2844 206.441 99.2844 206.441L93.5704 203.546L91.2552 205.86L77.5381 220.735C77.5381 220.735 69.2314 211.269 65.1735 209.726C61.1156 208.183 53.3899 205.86 53.3899 205.86L37.7391 202.193L38.901 198.908C38.901 198.908 38.0773 196.593 34.0367 198.717Z" fill="#0EABEB" stroke="#263238" stroke-width="0.520701" stroke-linecap="round" stroke-linejoin="round"/>
<path d="M68.0431 231.555L59.3203 226.432L67.2628 236.028L68.0431 231.555Z" fill="#263238" stroke="#263238" stroke-width="0.520701" stroke-linecap="round" stroke-linejoin="round"/>
<path d="M49.7217 243.508C50.5335 244.462 51.4237 245.346 52.3829 246.152" stroke="#263238" stroke-width="0.520701" stroke-linecap="round" stroke-linejoin="round"/>
<path d="M39.0908 224.637C39.0908 224.637 42.8193 234.241 47.9524 241.263" stroke="#263238" stroke-width="0.520701" stroke-linecap="round" stroke-linejoin="round"/>
<path d="M43.21 239.191C45.2937 242.603 47.7321 245.784 50.4848 248.683" stroke="#263238" stroke-width="0.520701" stroke-linecap="round" stroke-linejoin="round"/>
<path d="M59.1557 168.397C59.923 169.932 60.5051 171.553 60.8899 173.225C61.6616 176.311 64.3582 177.863 65.338 177.663C66.3178 177.464 66.3005 179.787 65.7195 180.949C65.307 181.725 64.7874 182.44 64.1761 183.072C64.0576 185.788 63.8 188.497 63.4044 191.186C62.8235 194.654 62.6327 197.367 61.2801 197.367H54.3434C54.3434 197.367 53.7625 200.453 53.5631 202.967C53.3636 205.481 53.3723 205.862 53.3723 205.862L37.7215 202.195L39.4557 196.786C39.4557 196.786 29.6056 192.348 34.4353 184.234C39.2649 176.12 50.6497 165.9 59.1557 168.397Z" fill="white" stroke="#263238" stroke-width="0.520701" stroke-linecap="round" stroke-linejoin="round"/>
<path d="M54.3264 197.366L51.1182 197.105L53.65 201.535L54.3264 197.366Z" fill="#263238" stroke="#263238" stroke-width="0.520701" stroke-linecap="round" stroke-linejoin="round"/>
<path d="M63.7862 187.318C63.2121 187.674 62.5572 187.879 61.8826 187.914C61.208 187.949 60.5355 187.813 59.9277 187.518" stroke="#263238" stroke-width="0.520701" stroke-linecap="round" stroke-linejoin="round"/>
<path d="M57.8027 175.346C57.8027 175.346 58.1841 171.68 60.1172 171.879" stroke="#263238" stroke-width="0.520701" stroke-linecap="round" stroke-linejoin="round"/>
<path d="M60.8555 176.882C61.1849 177.896 61.1589 178.806 60.8035 178.928C60.4481 179.049 59.9367 178.304 59.5726 177.289C59.2085 176.275 59.2692 175.365 59.6246 175.244C59.98 175.122 60.5348 175.859 60.8555 176.882Z" fill="#263238"/>
<path d="M59.1564 162.597L59.2257 162.684C61.272 165.345 60.9599 168.309 59.3471 171.101C56.1302 176.779 46.3409 182.058 46.3409 186.747C46.3409 191.437 51.2833 191.194 51.2833 191.194C51.2833 191.194 53.2602 195.399 48.3179 199.1C43.3755 202.801 33.2307 203.79 26.8056 197.106C25.0389 195.206 23.7517 192.912 23.0512 190.414C21.1002 183.913 20.8228 176.683 23.6928 170.789C26.1033 165.848 28.8953 161.843 33.9157 159.355C37.8695 157.413 44.1125 156.928 48.526 157.188C50.6811 157.269 52.7981 157.782 54.7516 158.696C56.4672 159.687 57.9653 161.014 59.1564 162.597Z" fill="#263238" stroke="#263238" stroke-width="0.520701" stroke-linecap="round" stroke-linejoin="round"/>
<path d="M45.6465 195.183C46.6001 195.027 47.5334 194.765 48.4291 194.402" stroke="#757575" stroke-width="0.520701" stroke-linecap="round" stroke-linejoin="round"/>
<path d="M54.0837 173.51C52.7387 175.462 51.0562 177.159 49.1153 178.52C42.3001 183.288 34.8085 188.281 38.2161 192.815C38.8027 193.591 39.5576 194.224 40.4241 194.667C41.2906 195.11 42.2462 195.351 43.2192 195.372" stroke="#757575" stroke-width="0.520701" stroke-linecap="round" stroke-linejoin="round"/>
<path d="M57.0573 166.715C56.7835 168.059 56.3437 169.363 55.748 170.598" stroke="#757575" stroke-width="0.520701" stroke-linecap="round" stroke-linejoin="round"/>
<path d="M40.8081 180.072C39.6982 181.607 38.3022 183.41 36.6288 185.325C31.8598 190.778 32.5362 201.891 43.2099 200.989" stroke="#757575" stroke-width="0.520701" stroke-linecap="round" stroke-linejoin="round"/>
<path d="M43.8858 175.34C43.8858 175.34 43.383 176.302 42.4121 177.758" stroke="#757575" stroke-width="0.520701" stroke-linecap="round" stroke-linejoin="round"/>
<path d="M322.939 283.323C325.21 284.311 330.742 284.19 330.742 284.19C330.742 284.19 329.546 280.549 329.442 280.333C328.219 277.784 324.369 273.58 321.239 274.004C320.72 274.088 320.224 274.28 319.784 274.568C319.344 274.856 318.969 275.234 318.685 275.676C318.401 276.119 318.214 276.617 318.135 277.137C318.057 277.657 318.089 278.187 318.23 278.694C318.777 280.861 321.005 282.474 322.939 283.323Z" fill="#263238"/>
<path d="M395.678 264.426C392.53 264.087 388.793 268.396 387.648 270.979C387.544 271.196 386.391 274.862 386.452 274.862H386.521C385.923 275.539 385.29 276.267 384.622 277.082C383.391 278.59 382.021 280.315 380.642 282.283C379.139 284.39 377.761 286.584 376.515 288.853C375.106 291.386 373.928 294.041 372.995 296.785C372.995 296.785 372.995 296.854 372.995 296.88C372.995 295.953 372.995 293.361 372.951 293.17C372.587 290.37 370.237 285.169 367.125 284.589C366.604 284.506 366.071 284.535 365.562 284.672C365.053 284.809 364.578 285.052 364.169 285.385C363.76 285.718 363.426 286.133 363.188 286.604C362.95 287.075 362.814 287.59 362.789 288.117C362.607 290.336 364.22 292.564 365.798 293.968C367.532 295.554 372.501 297.089 372.891 297.21C372.002 300.023 371.307 302.893 370.81 305.8C370.506 307.491 370.255 309.207 370.021 310.932C370.021 310.126 370.021 309.415 370.021 309.311C369.657 306.511 367.307 301.31 364.194 300.738C363.673 300.654 363.141 300.682 362.632 300.818C362.123 300.954 361.648 301.196 361.239 301.528C360.83 301.861 360.495 302.275 360.257 302.746C360.019 303.216 359.884 303.731 359.859 304.257C359.676 306.485 361.289 308.713 362.867 310.117C364.445 311.522 368.633 312.935 369.743 313.29C369.665 313.949 369.57 314.608 369.492 315.266C369.119 318.448 368.755 321.612 368.295 324.706C368.139 325.799 367.94 326.874 367.749 327.94C367.749 327.229 367.749 326.631 367.749 326.536C367.385 323.736 365.035 318.543 361.922 317.962C361.402 317.88 360.87 317.908 360.362 318.045C359.853 318.182 359.379 318.424 358.97 318.756C358.561 319.088 358.227 319.502 357.988 319.972C357.75 320.441 357.613 320.956 357.587 321.482C357.405 323.71 359.017 325.937 360.596 327.342C362.174 328.746 365.954 330.02 367.272 330.454C367.047 331.537 366.813 332.629 366.544 333.678C366.336 334.389 366.188 335.083 365.945 335.785C365.703 336.487 365.503 337.18 365.278 337.865C364.801 339.174 364.324 340.527 363.83 341.783C363.492 342.65 363.145 343.517 362.807 344.384C362.98 343.3 363.275 341.168 363.275 340.986C363.239 338.503 362.568 336.071 361.324 333.921C361.335 333.631 361.317 333.341 361.272 333.054C361.207 332.533 361.033 332.031 360.761 331.581C360.488 331.131 360.124 330.744 359.692 330.445C359.26 330.145 358.77 329.94 358.253 329.843C357.736 329.746 357.205 329.759 356.694 329.882C353.642 330.696 351.699 336.062 351.561 338.879C351.561 339.044 351.656 340.856 351.743 342C351.587 341.341 351.448 340.691 351.283 340.006C350.962 338.654 350.598 337.319 350.217 335.88L349.584 333.782C349.393 333.08 349.098 332.369 348.847 331.65C348.24 329.994 347.555 328.347 346.818 326.709C347.997 326.423 352.185 325.357 353.867 324.065C355.549 322.773 357.335 320.684 357.335 318.448C357.349 317.923 357.252 317.401 357.051 316.916C356.85 316.431 356.55 315.994 356.169 315.632C355.788 315.271 355.335 314.994 354.84 314.819C354.345 314.644 353.818 314.575 353.295 314.616C350.147 314.954 347.416 319.965 346.844 322.73C346.844 322.903 346.627 324.932 346.549 326.05C346.098 325.071 345.682 324.082 345.162 323.103C343.757 320.277 342.248 317.451 340.757 314.634L339.395 312.033C339.82 311.929 344.823 310.776 346.705 309.328C348.378 308.046 350.173 305.939 350.173 303.711C350.188 303.186 350.093 302.664 349.892 302.178C349.692 301.692 349.391 301.254 349.009 300.893C348.628 300.531 348.175 300.254 347.679 300.079C347.183 299.905 346.656 299.837 346.133 299.88C342.985 300.218 340.263 305.228 339.69 307.994C339.69 308.202 339.378 311.123 339.352 311.868C338.364 309.961 337.392 308.054 336.508 306.138C335.309 303.549 334.278 300.885 333.421 298.163C333.621 298.12 338.849 296.933 340.774 295.45C342.456 294.167 344.242 292.069 344.242 289.833C344.256 289.308 344.159 288.786 343.958 288.301C343.757 287.816 343.457 287.379 343.076 287.018C342.695 286.656 342.242 286.379 341.747 286.204C341.252 286.029 340.725 285.96 340.202 286.001C337.054 286.34 334.332 291.35 333.759 294.115C333.716 294.332 333.43 297.479 333.421 298.051C333.369 297.895 333.3 297.739 333.257 297.583C332.477 294.826 331.94 292.007 331.652 289.157C331.479 287.588 331.401 286.08 331.358 284.606C332.346 284.484 336.898 283.878 338.78 282.742C340.661 281.607 342.586 279.751 342.812 277.541C342.884 277.021 342.845 276.491 342.699 275.987C342.553 275.482 342.301 275.014 341.962 274.614C341.622 274.213 341.202 273.888 340.728 273.66C340.255 273.433 339.739 273.308 339.213 273.293C336.049 273.293 332.788 277.966 331.913 280.653C331.869 280.792 331.548 282.335 331.34 283.462C331.34 282.794 331.34 282.109 331.34 281.468C331.34 279.075 331.496 276.891 331.644 274.949C331.739 273.848 331.843 272.851 331.956 271.924C332.875 271.3 336.534 268.716 337.653 266.87C338.771 265.024 339.656 262.466 338.832 260.395C338.656 259.9 338.378 259.447 338.016 259.066C337.654 258.686 337.216 258.386 336.73 258.185C336.244 257.985 335.722 257.889 335.197 257.904C334.671 257.919 334.155 258.044 333.681 258.271C330.872 259.727 330.126 265.379 330.595 268.17C330.638 268.413 331.696 272.106 331.748 272.071H331.8C331.678 272.938 331.557 273.918 331.444 274.966C331.245 276.908 331.045 279.093 330.993 281.494C330.906 284.081 330.967 286.672 331.176 289.252C331.401 292.141 331.883 295.004 332.615 297.808C332.615 297.808 332.615 297.877 332.615 297.912C332.112 297.132 330.647 294.991 330.517 294.835C328.67 292.702 323.84 289.634 320.979 290.899C320.501 291.118 320.075 291.434 319.727 291.828C319.38 292.222 319.119 292.684 318.962 293.185C318.805 293.686 318.755 294.215 318.816 294.737C318.877 295.258 319.046 295.761 319.314 296.213C320.389 298.172 322.964 299.143 325.054 299.446C327.412 299.784 332.363 298.345 332.762 298.233C333.574 301.068 334.577 303.845 335.762 306.546C336.447 308.124 337.184 309.693 337.939 311.253C337.488 310.594 337.072 310.005 337.011 309.927C335.164 307.794 330.334 304.725 327.421 305.991C326.944 306.21 326.519 306.527 326.172 306.922C325.826 307.316 325.566 307.778 325.41 308.279C325.254 308.78 325.205 309.309 325.266 309.83C325.327 310.351 325.497 310.854 325.765 311.305C326.84 313.264 329.415 314.235 331.505 314.538C333.595 314.842 337.869 313.671 338.997 313.385C339.291 313.983 339.578 314.582 339.864 315.18C341.294 318.032 342.742 320.875 344.069 323.71C344.546 324.706 344.936 325.712 345.396 326.709C344.997 326.119 344.65 325.634 344.589 325.565C342.742 323.424 337.913 320.364 335.008 321.62C334.53 321.839 334.104 322.155 333.757 322.549C333.409 322.943 333.149 323.405 332.992 323.907C332.835 324.408 332.785 324.936 332.845 325.458C332.906 325.979 333.076 326.482 333.343 326.934C334.418 328.893 336.994 329.864 339.083 330.168C341.173 330.471 345.04 329.439 346.367 329.075C346.783 330.107 347.234 331.147 347.537 332.17C347.763 332.872 348.032 333.54 348.214 334.259C348.396 334.979 348.604 335.663 348.803 336.357C349.124 337.709 349.471 339.105 349.748 340.431C349.956 341.35 350.13 342.234 350.312 343.118C349.852 342.122 348.925 340.18 348.829 340.032C347.321 337.64 343.011 333.904 339.95 334.684C339.445 334.827 338.975 335.075 338.572 335.412C338.168 335.748 337.841 336.167 337.61 336.639C337.379 337.111 337.25 337.626 337.232 338.151C337.214 338.676 337.307 339.199 337.505 339.686C338.268 341.783 340.67 343.153 342.708 343.751C344.936 344.427 349.852 343.803 350.511 343.751C350.806 345.225 351.075 346.655 351.309 348.007C351.673 350.045 351.968 351.934 352.22 353.651H349.098V387.813H362.711V353.573H360.908C361.445 352.342 362 351.033 362.581 349.628C363.162 348.224 363.752 346.707 364.315 345.147C364.905 345.268 369.778 346.256 372.05 345.745C374.105 345.277 376.602 344.115 377.521 342.078C377.76 341.606 377.895 341.088 377.919 340.559C377.942 340.03 377.853 339.502 377.657 339.011C377.461 338.519 377.163 338.074 376.782 337.707C376.402 337.339 375.947 337.056 375.449 336.877C372.457 335.872 367.879 339.27 366.197 341.541C366.102 341.679 365.191 343.274 364.627 344.254C364.87 343.621 365.104 342.997 365.347 342.338C365.824 341.029 366.266 339.738 366.743 338.307L367.367 336.21C367.593 335.516 367.74 334.753 367.931 334.016C368.339 332.283 368.668 330.549 368.963 328.815C370.107 329.231 374.165 330.653 376.298 330.497C378.431 330.341 381.05 329.578 382.264 327.706C382.567 327.276 382.775 326.787 382.876 326.271C382.977 325.755 382.968 325.224 382.849 324.711C382.73 324.199 382.505 323.718 382.188 323.299C381.87 322.88 381.468 322.532 381.007 322.279C378.197 320.832 373.151 323.502 371.157 325.495C371.027 325.625 369.752 327.229 369.067 328.096C369.232 327.03 369.405 325.963 369.544 324.88C369.934 321.742 370.229 318.56 370.541 315.344C370.636 314.374 370.74 313.403 370.844 312.432C371.243 312.588 376.047 314.382 378.431 314.209C380.53 314.061 383.174 313.29 384.388 311.418C384.691 310.988 384.9 310.499 385.001 309.983C385.101 309.467 385.092 308.935 384.974 308.423C384.855 307.911 384.629 307.43 384.312 307.011C383.994 306.591 383.592 306.244 383.131 305.991C380.322 304.543 375.284 307.213 373.281 309.207C373.134 309.363 371.295 311.652 370.862 312.258C371.087 310.117 371.33 307.994 371.659 305.904C372.083 303.085 372.691 300.296 373.48 297.557C373.671 297.626 378.683 299.516 381.111 299.351C383.218 299.204 385.854 298.423 387.076 296.56C387.376 296.129 387.583 295.64 387.682 295.125C387.781 294.609 387.772 294.079 387.653 293.567C387.535 293.056 387.31 292.575 386.994 292.156C386.678 291.737 386.278 291.388 385.819 291.133C383.001 289.677 377.963 292.356 375.96 294.349C375.804 294.505 373.836 296.95 373.506 297.444C373.558 297.279 373.584 297.115 373.636 296.959C374.5 294.229 375.609 291.583 376.949 289.053C377.668 287.649 378.431 286.34 379.203 285.083C380.07 285.533 384.232 287.536 386.435 287.631C388.637 287.727 391.273 287.258 392.712 285.525C393.06 285.131 393.321 284.668 393.479 284.167C393.636 283.665 393.685 283.136 393.624 282.614C393.562 282.092 393.392 281.589 393.122 281.138C392.853 280.686 392.492 280.297 392.062 279.994C389.461 278.26 384.119 280.35 381.917 282.109C381.796 282.205 380.677 283.314 379.879 284.129C380.244 283.566 380.599 282.985 380.955 282.456C382.273 280.462 383.608 278.72 384.804 277.186C385.489 276.319 386.131 275.547 386.729 274.836C387.848 274.836 392.322 274.68 394.282 273.762C396.241 272.843 398.374 271.161 398.834 269.003C398.955 268.493 398.967 267.963 398.871 267.448C398.774 266.933 398.57 266.444 398.273 266.013C397.976 265.581 397.591 265.217 397.144 264.944C396.697 264.67 396.197 264.494 395.678 264.426ZM360.847 348.909C360.119 350.599 359.408 352.151 358.74 353.581H353.988C353.694 351.77 353.338 349.767 352.905 347.591C352.61 346.1 352.263 344.514 351.899 342.884C353.382 342.29 354.83 341.61 356.234 340.847C357.856 342.581 362 344.653 362.538 344.913C361.966 346.3 361.402 347.643 360.847 348.909Z" fill="#263238"/>
<path d="M379.1 284.544C379.152 284.544 380.114 280.851 380.149 280.608C380.539 277.808 379.646 272.174 376.793 270.804C376.314 270.589 375.795 270.476 375.27 270.475C374.745 270.473 374.225 270.582 373.745 270.795C373.265 271.007 372.834 271.319 372.483 271.709C372.131 272.099 371.865 272.559 371.703 273.058C370.94 275.156 371.903 277.73 373.056 279.499C374.4 281.579 379.1 284.535 379.1 284.544Z" fill="#263238"/>
<path d="M397.638 387.57H408.632" stroke="#263238" stroke-width="0.520701" stroke-linecap="round" stroke-linejoin="round"/>
<path d="M388.247 387.57H392.582" stroke="#263238" stroke-width="0.520701" stroke-linecap="round" stroke-linejoin="round"/>
<path d="M5.44043 387.57H385.117" stroke="#263238" stroke-width="0.520701" stroke-linecap="round" stroke-linejoin="round"/>
<path d="M76.586 133.999V139.08H75.9226V133.999H76.586ZM81.7114 139.08H81.0481L78.38 135.034V139.08H77.7166V133.992H78.38L81.0481 138.03V133.992H81.7114V139.08ZM87.0412 133.999L85.124 139.08H84.3586L82.4413 133.999H83.1484L84.7449 138.38L86.3414 133.999H87.0412ZM90.0722 139.131C89.6008 139.131 89.1707 139.022 88.7819 138.803C88.3931 138.58 88.0845 138.271 87.8561 137.877C87.6325 137.479 87.5207 137.032 87.5207 136.536C87.5207 136.04 87.6325 135.596 87.8561 135.202C88.0845 134.803 88.3931 134.495 88.7819 134.276C89.1707 134.053 89.6008 133.941 90.0722 133.941C90.5484 133.941 90.981 134.053 91.3698 134.276C91.7586 134.495 92.0647 134.801 92.2883 135.195C92.5118 135.588 92.6236 136.035 92.6236 136.536C92.6236 137.036 92.5118 137.484 92.2883 137.877C92.0647 138.271 91.7586 138.58 91.3698 138.803C90.981 139.022 90.5484 139.131 90.0722 139.131ZM90.0722 138.555C90.4269 138.555 90.7453 138.473 91.0271 138.307C91.3139 138.142 91.5374 137.906 91.6978 137.6C91.863 137.294 91.9457 136.939 91.9457 136.536C91.9457 136.128 91.863 135.773 91.6978 135.472C91.5374 135.165 91.3163 134.93 91.0344 134.765C90.7526 134.599 90.4318 134.517 90.0722 134.517C89.7125 134.517 89.3918 134.599 89.1099 134.765C88.828 134.93 88.6045 135.165 88.4393 135.472C88.2789 135.773 88.1987 136.128 88.1987 136.536C88.1987 136.939 88.2789 137.294 88.4393 137.6C88.6045 137.906 88.828 138.142 89.1099 138.307C89.3967 138.473 89.7174 138.555 90.0722 138.555ZM94.1627 133.999V139.08H93.4994V133.999H94.1627ZM95.0455 136.536C95.0455 136.04 95.1573 135.596 95.3808 135.202C95.6044 134.803 95.9081 134.492 96.292 134.269C96.6808 134.045 97.1109 133.933 97.5823 133.933C98.1364 133.933 98.6199 134.067 99.033 134.334C99.4461 134.602 99.7474 134.981 99.9369 135.472H99.1424C99.0014 135.165 98.7973 134.93 98.53 134.765C98.2676 134.599 97.9517 134.517 97.5823 134.517C97.2276 134.517 96.9092 134.599 96.6274 134.765C96.3455 134.93 96.1244 135.165 95.964 135.472C95.8036 135.773 95.7234 136.128 95.7234 136.536C95.7234 136.939 95.8036 137.294 95.964 137.6C96.1244 137.902 96.3455 138.135 96.6274 138.3C96.9092 138.465 97.2276 138.548 97.5823 138.548C97.9517 138.548 98.2676 138.468 98.53 138.307C98.7973 138.142 99.0014 137.906 99.1424 137.6H99.9369C99.7474 138.086 99.4461 138.463 99.033 138.73C98.6199 138.993 98.1364 139.124 97.5823 139.124C97.1109 139.124 96.6808 139.014 96.292 138.796C95.9081 138.572 95.6044 138.264 95.3808 137.87C95.1573 137.476 95.0455 137.032 95.0455 136.536ZM101.588 134.539V136.237H103.439V136.784H101.588V138.533H103.658V139.08H100.924V133.992H103.658V134.539H101.588Z" fill="#232323"/>
<path d="M84.2729 159.613C84.2729 159.232 84.3588 158.891 84.5305 158.588C84.7021 158.282 84.9354 158.043 85.2302 157.872C85.5288 157.7 85.8591 157.614 86.2211 157.614C86.6465 157.614 87.0179 157.717 87.3351 157.922C87.6523 158.127 87.8837 158.418 88.0292 158.795H87.419C87.3108 158.56 87.1541 158.379 86.9488 158.252C86.7473 158.125 86.5047 158.062 86.2211 158.062C85.9486 158.062 85.7042 158.125 85.4877 158.252C85.2713 158.379 85.1015 158.56 84.9783 158.795C84.8551 159.027 84.7936 159.299 84.7936 159.613C84.7936 159.922 84.8551 160.195 84.9783 160.43C85.1015 160.661 85.2713 160.841 85.4877 160.967C85.7042 161.094 85.9486 161.158 86.2211 161.158C86.5047 161.158 86.7473 161.096 86.9488 160.973C87.1541 160.846 87.3108 160.665 87.419 160.43H88.0292C87.8837 160.803 87.6523 161.092 87.3351 161.298C87.0179 161.499 86.6465 161.6 86.2211 161.6C85.8591 161.6 85.5288 161.516 85.2302 161.348C84.9354 161.176 84.7021 160.939 84.5305 160.637C84.3588 160.335 84.2729 159.993 84.2729 159.613ZM90.3102 158.443C90.5416 158.443 90.7506 158.493 90.9372 158.594C91.1238 158.691 91.2694 158.838 91.3739 159.036C91.4821 159.234 91.5362 159.475 91.5362 159.758V161.566H91.0324V159.831C91.0324 159.525 90.9559 159.292 90.8029 159.131C90.6498 158.967 90.4408 158.885 90.1759 158.885C89.9072 158.885 89.6926 158.969 89.5321 159.137C89.3753 159.305 89.297 159.549 89.297 159.87V161.566H88.7876V157.424H89.297V158.935C89.3977 158.779 89.5358 158.657 89.7112 158.571C89.8904 158.486 90.09 158.443 90.3102 158.443ZM92.6314 158C92.5344 158 92.4523 157.967 92.3851 157.9C92.318 157.833 92.2844 157.75 92.2844 157.653C92.2844 157.556 92.318 157.474 92.3851 157.407C92.4523 157.34 92.5344 157.306 92.6314 157.306C92.7247 157.306 92.8031 157.34 92.8666 157.407C92.9337 157.474 92.9673 157.556 92.9673 157.653C92.9673 157.75 92.9337 157.833 92.8666 157.9C92.8031 157.967 92.7247 158 92.6314 158ZM92.8778 158.499V161.566H92.3683V158.499H92.8778ZM94.2554 157.424V161.566H93.746V157.424H94.2554ZM94.9333 160.021C94.9333 159.708 94.9967 159.434 95.1236 159.198C95.2505 158.96 95.4241 158.775 95.6443 158.644C95.8682 158.514 96.1182 158.448 96.3944 158.448C96.6332 158.448 96.8553 158.504 97.0606 158.616C97.2658 158.724 97.4226 158.868 97.5308 159.047V157.424H98.0458V161.566H97.5308V160.99C97.43 161.173 97.2807 161.324 97.083 161.443C96.8852 161.559 96.6538 161.617 96.3888 161.617C96.1164 161.617 95.8682 161.55 95.6443 161.415C95.4241 161.281 95.2505 161.092 95.1236 160.85C94.9967 160.607 94.9333 160.331 94.9333 160.021ZM97.5308 160.027C97.5308 159.796 97.4841 159.594 97.3908 159.422C97.2975 159.251 97.1707 159.12 97.0102 159.03C96.8534 158.937 96.6799 158.891 96.4896 158.891C96.2992 158.891 96.1257 158.935 95.9689 159.025C95.8122 159.114 95.6872 159.245 95.5939 159.417C95.5006 159.588 95.4539 159.79 95.4539 160.021C95.4539 160.256 95.5006 160.462 95.5939 160.637C95.6872 160.809 95.8122 160.941 95.9689 161.035C96.1257 161.124 96.2992 161.169 96.4896 161.169C96.6799 161.169 96.8534 161.124 97.0102 161.035C97.1707 160.941 97.2975 160.809 97.3908 160.637C97.4841 160.462 97.5308 160.258 97.5308 160.027Z" fill="#232323"/>
<rect x="84.2926" y="169.628" width="51.5041" height="15.0827" rx="7.54133" fill="white" stroke="#111827" stroke-width="0.520701"/>
<rect x="90.1016" y="175.434" width="25.1453" height="3.46831" rx="1.73416" fill="#EAECF7"/>
<path d="M146.9 158.807C146.9 159.131 146.788 159.402 146.564 159.618C146.344 159.831 146.006 159.937 145.551 159.937H144.801V161.566H144.291V157.665H145.551C145.991 157.665 146.325 157.771 146.553 157.984C146.784 158.196 146.9 158.471 146.9 158.807ZM145.551 159.518C145.835 159.518 146.044 159.456 146.178 159.333C146.312 159.21 146.379 159.034 146.379 158.807C146.379 158.325 146.103 158.084 145.551 158.084H144.801V159.518H145.551ZM147.343 160.021C147.343 159.708 147.406 159.434 147.533 159.198C147.66 158.96 147.834 158.775 148.054 158.644C148.278 158.514 148.526 158.448 148.798 158.448C149.067 158.448 149.3 158.506 149.498 158.622C149.696 158.738 149.843 158.883 149.94 159.058V158.499H150.455V161.566H149.94V160.995C149.84 161.175 149.688 161.324 149.487 161.443C149.289 161.559 149.058 161.617 148.793 161.617C148.52 161.617 148.274 161.55 148.054 161.415C147.834 161.281 147.66 161.092 147.533 160.85C147.406 160.607 147.343 160.331 147.343 160.021ZM149.94 160.027C149.94 159.796 149.894 159.594 149.8 159.422C149.707 159.251 149.58 159.12 149.42 159.03C149.263 158.937 149.09 158.891 148.899 158.891C148.709 158.891 148.535 158.935 148.379 159.025C148.222 159.114 148.097 159.245 148.003 159.417C147.91 159.588 147.864 159.79 147.864 160.021C147.864 160.256 147.91 160.462 148.003 160.637C148.097 160.809 148.222 160.941 148.379 161.035C148.535 161.124 148.709 161.169 148.899 161.169C149.09 161.169 149.263 161.124 149.42 161.035C149.58 160.941 149.707 160.809 149.8 160.637C149.894 160.462 149.94 160.258 149.94 160.027ZM153.959 158.499L152.111 163.011H151.585L152.19 161.533L150.952 158.499H151.518L152.481 160.984L153.432 158.499H153.959ZM157.27 159.915C157.27 160.012 157.264 160.115 157.253 160.223H154.801C154.82 160.525 154.922 160.762 155.109 160.934C155.299 161.102 155.529 161.186 155.797 161.186C156.018 161.186 156.2 161.135 156.346 161.035C156.495 160.93 156.6 160.792 156.66 160.62H157.208C157.126 160.915 156.962 161.156 156.715 161.342C156.469 161.525 156.163 161.617 155.797 161.617C155.506 161.617 155.245 161.551 155.014 161.421C154.786 161.29 154.607 161.105 154.476 160.867C154.346 160.624 154.28 160.344 154.28 160.027C154.28 159.71 154.344 159.432 154.471 159.193C154.598 158.954 154.775 158.771 155.002 158.644C155.234 158.514 155.499 158.448 155.797 158.448C156.089 158.448 156.346 158.512 156.57 158.639C156.794 158.766 156.966 158.941 157.085 159.165C157.208 159.385 157.27 159.635 157.27 159.915ZM156.743 159.809C156.743 159.615 156.701 159.448 156.615 159.31C156.529 159.169 156.411 159.062 156.262 158.991C156.117 158.917 155.954 158.879 155.775 158.879C155.518 158.879 155.297 158.961 155.114 159.126C154.935 159.29 154.833 159.518 154.807 159.809H156.743ZM160.741 159.915C160.741 160.012 160.736 160.115 160.724 160.223H158.272C158.291 160.525 158.394 160.762 158.58 160.934C158.771 161.102 159 161.186 159.269 161.186C159.489 161.186 159.672 161.135 159.817 161.035C159.967 160.93 160.071 160.792 160.131 160.62H160.68C160.597 160.915 160.433 161.156 160.187 161.342C159.941 161.525 159.635 161.617 159.269 161.617C158.978 161.617 158.717 161.551 158.485 161.421C158.257 161.29 158.078 161.105 157.948 160.867C157.817 160.624 157.752 160.344 157.752 160.027C157.752 159.71 157.815 159.432 157.942 159.193C158.069 158.954 158.246 158.771 158.474 158.644C158.705 158.514 158.97 158.448 159.269 158.448C159.56 158.448 159.817 158.512 160.041 158.639C160.265 158.766 160.437 158.941 160.556 159.165C160.68 159.385 160.741 159.635 160.741 159.915ZM160.215 159.809C160.215 159.615 160.172 159.448 160.086 159.31C160 159.169 159.883 159.062 159.734 158.991C159.588 158.917 159.426 158.879 159.246 158.879C158.989 158.879 158.769 158.961 158.586 159.126C158.407 159.29 158.304 159.518 158.278 159.809H160.215Z" fill="#232323"/>
<rect x="144.121" y="169.628" width="51.5041" height="15.0827" rx="7.54133" fill="white" stroke="#111827" stroke-width="0.520701"/>
<rect x="151.664" y="175.434" width="25.1453" height="3.46831" rx="1.73416" fill="#EAECF7"/>
<path d="M214.029 161.606C213.771 161.606 213.54 161.561 213.334 161.471C213.133 161.378 212.974 161.251 212.859 161.091C212.743 160.926 212.683 160.738 212.679 160.525H213.222C213.241 160.708 213.316 160.863 213.446 160.99C213.581 161.113 213.775 161.175 214.029 161.175C214.271 161.175 214.461 161.115 214.6 160.995C214.741 160.872 214.812 160.716 214.812 160.525C214.812 160.376 214.771 160.255 214.689 160.161C214.607 160.068 214.504 159.997 214.381 159.949C214.258 159.9 214.092 159.848 213.883 159.792C213.626 159.725 213.418 159.657 213.262 159.59C213.109 159.523 212.976 159.419 212.864 159.277C212.756 159.131 212.702 158.937 212.702 158.695C212.702 158.482 212.756 158.293 212.864 158.129C212.972 157.965 213.124 157.838 213.318 157.749C213.515 157.659 213.741 157.614 213.995 157.614C214.361 157.614 214.659 157.706 214.891 157.888C215.126 158.071 215.258 158.314 215.288 158.616H214.728C214.71 158.467 214.631 158.336 214.493 158.224C214.355 158.109 214.172 158.051 213.945 158.051C213.732 158.051 213.558 158.107 213.424 158.219C213.29 158.327 213.222 158.48 213.222 158.678C213.222 158.82 213.262 158.935 213.34 159.025C213.422 159.114 213.521 159.184 213.637 159.232C213.756 159.277 213.922 159.329 214.135 159.389C214.392 159.46 214.6 159.531 214.756 159.601C214.913 159.669 215.047 159.775 215.159 159.921C215.271 160.062 215.327 160.256 215.327 160.503C215.327 160.693 215.277 160.872 215.176 161.04C215.075 161.208 214.926 161.344 214.728 161.449C214.531 161.553 214.297 161.606 214.029 161.606ZM216.698 158.919V160.727C216.698 160.876 216.73 160.982 216.794 161.046C216.857 161.105 216.967 161.135 217.124 161.135H217.499V161.566H217.04C216.756 161.566 216.543 161.501 216.402 161.37C216.26 161.24 216.189 161.025 216.189 160.727V158.919H215.791V158.499H216.189V157.726H216.698V158.499H217.499V158.919H216.698ZM217.926 160.021C217.926 159.708 217.989 159.434 218.116 159.198C218.243 158.96 218.417 158.775 218.637 158.644C218.861 158.514 219.109 158.448 219.381 158.448C219.65 158.448 219.883 158.506 220.081 158.622C220.279 158.738 220.426 158.883 220.523 159.058V158.499H221.038V161.566H220.523V160.995C220.423 161.175 220.271 161.324 220.07 161.443C219.872 161.559 219.641 161.617 219.376 161.617C219.103 161.617 218.857 161.55 218.637 161.415C218.417 161.281 218.243 161.092 218.116 160.85C217.989 160.607 217.926 160.331 217.926 160.021ZM220.523 160.027C220.523 159.796 220.477 159.594 220.383 159.422C220.29 159.251 220.163 159.12 220.003 159.03C219.846 158.937 219.672 158.891 219.482 158.891C219.292 158.891 219.118 158.935 218.961 159.025C218.805 159.114 218.68 159.245 218.586 159.417C218.493 159.588 218.446 159.79 218.446 160.021C218.446 160.256 218.493 160.462 218.586 160.637C218.68 160.809 218.805 160.941 218.961 161.035C219.118 161.124 219.292 161.169 219.482 161.169C219.672 161.169 219.846 161.124 220.003 161.035C220.163 160.941 220.29 160.809 220.383 160.637C220.477 160.462 220.523 160.258 220.523 160.027ZM222.521 158.919V160.727C222.521 160.876 222.552 160.982 222.616 161.046C222.679 161.105 222.789 161.135 222.946 161.135H223.321V161.566H222.862C222.578 161.566 222.366 161.501 222.224 161.37C222.082 161.24 222.011 161.025 222.011 160.727V158.919H221.614V158.499H222.011V157.726H222.521V158.499H223.321V158.919H222.521ZM226.659 158.499V161.566H226.15V161.113C226.053 161.27 225.916 161.393 225.741 161.482C225.569 161.568 225.379 161.611 225.17 161.611C224.931 161.611 224.716 161.563 224.526 161.466C224.336 161.365 224.185 161.216 224.073 161.018C223.964 160.82 223.91 160.579 223.91 160.296V158.499H224.414V160.228C224.414 160.531 224.491 160.764 224.644 160.928C224.797 161.089 225.006 161.169 225.271 161.169C225.543 161.169 225.758 161.085 225.914 160.917C226.071 160.749 226.15 160.505 226.15 160.184V158.499H226.659ZM228.605 161.617C228.37 161.617 228.159 161.578 227.973 161.499C227.786 161.417 227.639 161.305 227.53 161.163C227.422 161.018 227.362 160.852 227.351 160.665H227.877C227.892 160.818 227.963 160.943 228.09 161.04C228.221 161.137 228.391 161.186 228.6 161.186C228.794 161.186 228.947 161.143 229.059 161.057C229.171 160.971 229.226 160.863 229.226 160.732C229.226 160.598 229.167 160.499 229.047 160.436C228.928 160.368 228.743 160.303 228.493 160.24C228.266 160.18 228.079 160.12 227.933 160.061C227.792 159.997 227.668 159.906 227.564 159.786C227.463 159.663 227.413 159.503 227.413 159.305C227.413 159.148 227.459 159.004 227.553 158.874C227.646 158.743 227.778 158.64 227.95 158.566C228.122 158.487 228.318 158.448 228.538 158.448C228.878 158.448 229.152 158.534 229.361 158.706C229.57 158.877 229.682 159.113 229.697 159.411H229.187C229.176 159.251 229.111 159.122 228.991 159.025C228.876 158.928 228.719 158.879 228.521 158.879C228.338 158.879 228.193 158.919 228.084 158.997C227.976 159.075 227.922 159.178 227.922 159.305C227.922 159.406 227.954 159.49 228.017 159.557C228.084 159.62 228.167 159.672 228.264 159.713C228.364 159.751 228.502 159.794 228.678 159.842C228.898 159.902 229.077 159.962 229.215 160.021C229.353 160.077 229.471 160.163 229.568 160.279C229.669 160.395 229.721 160.546 229.725 160.732C229.725 160.9 229.678 161.051 229.585 161.186C229.491 161.32 229.359 161.426 229.187 161.505C229.019 161.579 228.825 161.617 228.605 161.617Z" fill="#232323"/>
<path d="M311.226 160.881C310.89 160.881 310.589 160.823 310.322 160.706C310.059 160.585 309.853 160.419 309.702 160.21C309.551 159.997 309.474 159.751 309.469 159.474H310.176C310.2 159.712 310.297 159.914 310.467 160.079C310.642 160.24 310.895 160.32 311.226 160.32C311.541 160.32 311.789 160.242 311.969 160.087C312.154 159.926 312.246 159.722 312.246 159.474C312.246 159.28 312.193 159.122 312.086 159C311.979 158.879 311.845 158.786 311.685 158.723C311.524 158.66 311.308 158.592 311.036 158.519C310.701 158.432 310.431 158.344 310.227 158.257C310.028 158.169 309.855 158.033 309.709 157.849C309.568 157.659 309.498 157.406 309.498 157.09C309.498 156.813 309.568 156.568 309.709 156.354C309.85 156.14 310.047 155.975 310.3 155.858C310.557 155.742 310.851 155.683 311.182 155.683C311.658 155.683 312.047 155.803 312.348 156.041C312.654 156.279 312.827 156.595 312.866 156.988H312.137C312.112 156.794 312.01 156.624 311.831 156.478C311.651 156.327 311.413 156.252 311.116 156.252C310.839 156.252 310.613 156.325 310.438 156.471C310.263 156.612 310.176 156.811 310.176 157.069C310.176 157.253 310.227 157.404 310.329 157.521C310.436 157.637 310.565 157.727 310.715 157.79C310.871 157.849 311.087 157.917 311.364 157.994C311.699 158.087 311.969 158.179 312.173 158.271C312.377 158.359 312.552 158.497 312.698 158.687C312.844 158.872 312.917 159.124 312.917 159.445C312.917 159.693 312.851 159.926 312.72 160.145C312.589 160.364 312.394 160.541 312.137 160.677C311.879 160.813 311.575 160.881 311.226 160.881ZM317.538 158.68C317.538 158.806 317.531 158.94 317.516 159.081H314.323C314.347 159.474 314.481 159.783 314.724 160.006C314.972 160.225 315.271 160.334 315.621 160.334C315.907 160.334 316.146 160.269 316.335 160.138C316.529 160.001 316.666 159.822 316.743 159.598H317.458C317.351 159.982 317.137 160.295 316.816 160.538C316.495 160.777 316.097 160.896 315.621 160.896C315.242 160.896 314.901 160.811 314.6 160.641C314.304 160.47 314.07 160.23 313.9 159.919C313.73 159.603 313.645 159.238 313.645 158.825C313.645 158.412 313.728 158.05 313.893 157.739C314.058 157.428 314.289 157.19 314.586 157.025C314.887 156.855 315.232 156.77 315.621 156.77C316 156.77 316.335 156.852 316.627 157.018C316.918 157.183 317.142 157.411 317.297 157.703C317.458 157.989 317.538 158.315 317.538 158.68ZM316.853 158.541C316.853 158.288 316.797 158.072 316.685 157.892C316.573 157.708 316.42 157.569 316.226 157.477C316.036 157.38 315.825 157.331 315.592 157.331C315.256 157.331 314.969 157.438 314.731 157.652C314.498 157.866 314.364 158.162 314.33 158.541H316.853ZM318.166 158.818C318.166 158.41 318.248 158.053 318.414 157.746C318.579 157.435 318.805 157.195 319.091 157.025C319.383 156.855 319.706 156.77 320.061 156.77C320.411 156.77 320.715 156.845 320.972 156.996C321.23 157.146 321.422 157.336 321.548 157.564V156.835H322.219V160.83H321.548V160.087C321.417 160.32 321.22 160.514 320.958 160.67C320.7 160.82 320.399 160.896 320.054 160.896C319.699 160.896 319.378 160.808 319.091 160.633C318.805 160.458 318.579 160.213 318.414 159.897C318.248 159.581 318.166 159.221 318.166 158.818ZM321.548 158.825C321.548 158.524 321.487 158.262 321.366 158.038C321.244 157.815 321.079 157.644 320.87 157.528C320.666 157.406 320.44 157.346 320.192 157.346C319.944 157.346 319.718 157.404 319.514 157.521C319.31 157.637 319.147 157.807 319.026 158.031C318.904 158.254 318.844 158.517 318.844 158.818C318.844 159.124 318.904 159.392 319.026 159.62C319.147 159.844 319.31 160.016 319.514 160.138C319.718 160.254 319.944 160.313 320.192 160.313C320.44 160.313 320.666 160.254 320.87 160.138C321.079 160.016 321.244 159.844 321.366 159.62C321.487 159.392 321.548 159.127 321.548 158.825ZM324.003 157.484C324.12 157.256 324.285 157.078 324.499 156.952C324.718 156.826 324.982 156.762 325.294 156.762V157.448H325.119C324.375 157.448 324.003 157.851 324.003 158.658V160.83H323.34V156.835H324.003V157.484ZM325.811 158.825C325.811 158.412 325.894 158.053 326.059 157.746C326.225 157.435 326.453 157.195 326.745 157.025C327.041 156.855 327.379 156.77 327.758 156.77C328.249 156.77 328.652 156.889 328.968 157.127C329.289 157.365 329.5 157.695 329.602 158.118H328.888C328.82 157.875 328.686 157.683 328.487 157.542C328.292 157.401 328.049 157.331 327.758 157.331C327.379 157.331 327.073 157.462 326.839 157.725C326.606 157.982 326.489 158.349 326.489 158.825C326.489 159.307 326.606 159.678 326.839 159.941C327.073 160.203 327.379 160.334 327.758 160.334C328.049 160.334 328.292 160.266 328.487 160.13C328.681 159.994 328.815 159.8 328.888 159.547H329.602C329.495 159.955 329.281 160.283 328.961 160.531C328.64 160.774 328.239 160.896 327.758 160.896C327.379 160.896 327.041 160.811 326.745 160.641C326.453 160.47 326.225 160.23 326.059 159.919C325.894 159.608 325.811 159.243 325.811 158.825ZM332.47 156.762C332.771 156.762 333.044 156.828 333.287 156.959C333.53 157.086 333.719 157.278 333.855 157.535C333.996 157.793 334.067 158.106 334.067 158.475V160.83H333.411V158.57C333.411 158.172 333.311 157.868 333.112 157.659C332.912 157.445 332.64 157.338 332.295 157.338C331.945 157.338 331.666 157.448 331.457 157.666C331.253 157.885 331.151 158.203 331.151 158.621V160.83H330.487V155.436H331.151V157.404C331.282 157.2 331.462 157.042 331.69 156.93C331.923 156.818 332.183 156.762 332.47 156.762Z" fill="white"/>
<rect x="212.621" y="169.628" width="51.5041" height="15.0826" rx="7.54132" fill="white" stroke="#111827" stroke-width="0.520701"/>
<rect x="218.43" y="175.436" width="25.1453" height="3.46833" rx="1.73416" fill="#EAECF7"/>
<defs>
<linearGradient id="paint0_linear_694_196746" x1="14.0572" y1="-1.50301e-05" x2="490.702" y2="160.567" gradientUnits="userSpaceOnUse">
<stop stop-color="#4C49ED"/>
<stop offset="1" stop-color="#0A06F4"/>
</linearGradient>
</defs>
</svg>
