<svg width="394" height="494" viewBox="0 0 394 494" fill="none" xmlns="http://www.w3.org/2000/svg">
<path d="M238.139 0.0138782C193.602 -0.464622 149.038 11.4577 109.288 31.5467C69.537 51.6356 34.8528 83.2901 15.6494 123.476C-3.5539 163.663 -6.01577 212.571 13.4751 252.619C20.7813 267.63 31.8169 281.867 47.4245 287.794C67.3717 295.368 89.4923 287.876 110.815 287.083C139.713 286.008 167.579 297.458 193.218 310.835C218.856 324.211 243.644 339.842 271.297 348.298C298.951 356.754 330.857 357.077 354.893 341C377.578 325.827 389.609 298.358 392.484 271.22C395.358 244.082 390.279 216.801 385.222 189.984C379.941 161.99 354.302 1.26039 238.139 0.0138782Z" fill="#E7E7FE"/>
<g opacity="0.7">
<path d="M238.139 0.0138782C193.602 -0.464622 149.038 11.4577 109.288 31.5467C69.537 51.6356 34.8528 83.2901 15.6494 123.476C-3.5539 163.663 -6.01577 212.571 13.4751 252.619C20.7813 267.63 31.8169 281.867 47.4245 287.794C67.3717 295.368 89.4923 287.876 110.815 287.083C139.713 286.008 167.579 297.458 193.218 310.835C218.856 324.211 243.644 339.842 271.297 348.298C298.951 356.754 330.857 357.077 354.893 341C377.578 325.827 389.609 298.358 392.484 271.22C395.358 244.082 390.279 216.801 385.222 189.984C379.941 161.99 354.302 1.26039 238.139 0.0138782Z" fill="#E7E7FE"/>
</g>
<path d="M197.96 404.525C277.907 404.525 342.717 398.322 342.717 390.671C342.717 383.019 277.907 376.816 197.96 376.816C118.013 376.816 53.2036 383.019 53.2036 390.671C53.2036 398.322 118.013 404.525 197.96 404.525Z" fill="#0EABEB"/>
<path d="M197.96 404.525C277.907 404.525 342.717 398.322 342.717 390.671C342.717 383.019 277.907 376.816 197.96 376.816C118.013 376.816 53.2036 383.019 53.2036 390.671C53.2036 398.322 118.013 404.525 197.96 404.525Z" fill="#EAECF7"/>
<path d="M308.146 122.022C308.632 126.105 306.669 132.021 302.446 131.618C301.757 131.554 301.106 131.337 300.462 131.099C300.881 128.041 299.061 124.672 300.561 122.018C301.38 120.555 303.447 117.825 305.058 117.587C307.219 117.265 307.857 119.773 308.146 122.022Z" fill="#0EABEB"/>
<path d="M303.487 134.945C302.084 138.001 300.156 140.427 295.615 140.299C294.641 140.262 293.592 139.947 292.76 139.398C291.925 138.845 291.268 138.011 291.147 137.023C290.981 135.707 291.828 134.503 292.945 133.899C293.957 133.343 295.299 133.049 296.674 132.973C298.116 132.896 299.59 133.045 300.778 133.392C301.83 133.705 302.653 134.344 303.487 134.945Z" fill="#0EABEB"/>
<path d="M293.463 123.998C298.218 129.441 303.46 134.289 308.19 139.516" stroke="#0EABEB" stroke-width="2.31625" stroke-miterlimit="10"/>
<path d="M323.307 138.687C323.475 140.892 322.81 143.442 321.587 145.241C320.37 147.044 318.596 148.126 316.557 147.628C315.888 147.465 315.289 147.156 314.669 146.856C315.066 145.384 314.887 143.733 314.775 142.132C314.643 140.55 314.606 138.992 315.372 137.651C316.218 136.193 318.229 133.38 319.981 133.334C322.307 133.29 323.177 136.238 323.307 138.687Z" fill="#0EABEB"/>
<path d="M317.075 151.053C316.125 152.44 315.05 153.645 313.684 154.395C312.324 155.145 310.656 155.45 308.478 155.16C307.56 155.036 306.646 154.654 305.968 154.089C305.267 153.537 304.818 152.787 304.867 151.869C304.932 150.653 305.894 149.541 307.028 149.004C308.058 148.515 309.372 148.3 310.713 148.329C312.114 148.356 313.564 148.64 314.654 149.152C315.628 149.597 316.338 150.343 317.075 151.053Z" fill="#0EABEB"/>
<path d="M308.19 139.516C310.592 142.103 312.794 144.845 314.947 147.626C317.023 150.463 319.036 153.35 320.835 156.377" stroke="#0EABEB" stroke-width="2.31625" stroke-miterlimit="10"/>
<path d="M335.822 158.399C335.205 162.802 331.399 167.651 327.512 165.932C326.877 165.655 326.329 165.249 325.794 164.827C326.133 164.135 326.346 163.37 326.488 162.586C326.616 161.809 326.686 161.004 326.778 160.212C326.963 158.629 327.236 157.092 328.252 155.925C329.369 154.66 331.858 152.302 333.611 152.581C335.878 152.982 336.138 156.028 335.822 158.399Z" fill="#0EABEB"/>
<path d="M327.427 169.403C325.065 171.845 322.446 173.395 318.249 171.926C316.449 171.329 314.825 169.692 315.231 167.896C315.494 166.707 316.643 165.8 317.867 165.488C318.976 165.206 320.337 165.235 321.653 165.523C323.016 165.829 324.355 166.401 325.368 167.092C326.252 167.711 326.864 168.551 327.427 169.403Z" fill="#0EABEB"/>
<path d="M320.834 156.377C324.487 162.397 327.577 168.762 330.314 175.278" stroke="#0EABEB" stroke-width="2.31625" stroke-miterlimit="10"/>
<path d="M344.949 179.868C344.317 182.138 342.764 184.279 340.947 185.485C339.134 186.696 337.079 186.99 335.381 185.754C334.811 185.352 334.369 184.842 333.916 184.336C334.853 183.115 335.273 181.521 335.68 179.934C336.072 178.329 336.521 176.916 337.685 175.896C338.955 174.806 341.788 172.844 343.454 173.338C344.562 173.683 345.06 174.535 345.242 175.71C345.511 177.147 345.287 178.619 344.949 179.868Z" fill="#0EABEB"/>
<path d="M334.517 189.107C331.666 190.942 328.732 191.711 325.025 189.579C323.454 188.678 322.217 187.02 323.008 185.573C323.534 184.622 324.823 183.928 326.06 183.768C327.183 183.626 328.484 183.803 329.71 184.283C330.999 184.771 332.196 185.571 333.038 186.437C333.775 187.209 334.136 188.167 334.517 189.107Z" fill="#0EABEB"/>
<path d="M330.312 175.281L332.296 180.201C332.93 181.8 333.422 183.464 333.876 185.15C334.77 188.524 335.409 191.982 335.837 195.457" stroke="#0EABEB" stroke-width="2.31625" stroke-miterlimit="10"/>
<path d="M348.5 203.941C347.262 205.877 345.178 207.54 343.108 208.2C341.015 208.87 338.986 208.578 337.673 206.923C337.246 206.38 336.956 205.769 336.657 205.156C339.155 203.329 339.981 199.452 342.752 198.171C344.29 197.49 347.571 196.356 349.018 197.399C350.962 198.792 349.856 201.845 348.5 203.941Z" fill="#0EABEB"/>
<path d="M335.922 209.903C334.308 210.367 332.719 210.587 331.186 210.298C329.657 210.013 328.167 209.219 326.671 207.738C325.401 206.475 324.676 204.55 325.835 203.226C326.615 202.348 328.051 202.045 329.281 202.288C330.399 202.506 331.58 203.107 332.639 203.926C333.719 204.777 334.682 205.876 335.234 206.939C335.748 207.884 335.804 208.897 335.922 209.903Z" fill="#0EABEB"/>
<path d="M335.838 195.457C336.686 202.405 336.657 209.486 335.323 216.308" stroke="#0EABEB" stroke-width="2.31625" stroke-miterlimit="10"/>
<path d="M344.119 228.998C343.119 229.731 341.991 230.316 340.809 230.666C339.614 231.016 338.413 231.144 337.327 231.029C335.152 230.804 333.434 229.62 332.932 227.579C332.778 226.915 332.746 226.238 332.708 225.562C334.215 225.225 335.524 224.212 336.841 223.24C338.129 222.261 339.434 221.32 340.958 221.166C342.636 221.028 346.128 220.971 347.122 222.528C348.489 224.617 346.234 227.408 344.119 228.998Z" fill="#0EABEB"/>
<path d="M330.09 229.502C328.462 229.21 326.939 228.649 325.703 227.711C324.472 226.787 323.439 225.425 322.647 223.65C321.937 222.094 321.913 220.398 323.405 219.763C324.413 219.354 325.862 219.607 326.924 220.254C327.891 220.841 328.782 221.787 329.473 222.912C330.148 224.056 330.645 225.427 330.704 226.59C330.795 227.642 330.428 228.57 330.09 229.502Z" fill="#0EABEB"/>
<path d="M335.324 216.309C334.634 219.708 333.606 223.032 332.177 226.165C330.734 229.29 328.851 232.197 326.585 234.762" stroke="#0EABEB" stroke-width="2.31625" stroke-miterlimit="10"/>
<path d="M329.03 249.433C326.979 249.724 324.418 249.435 322.465 248.491C320.503 247.551 319.159 245.981 319.338 243.88C319.396 243.19 319.606 242.539 319.835 241.892C322.895 242.277 326.239 240.366 328.914 241.847C329.628 242.266 330.737 242.903 331.691 243.657C332.649 244.406 333.368 245.362 333.416 246.269C333.791 248.39 331.302 249.089 329.03 249.433Z" fill="#0EABEB"/>
<path d="M316.019 244.912C312.976 243.463 310.66 241.458 310.656 237.052C310.648 235.193 311.749 232.98 313.746 232.689C315.064 232.502 316.283 233.326 316.906 234.433C317.475 235.437 317.789 236.772 317.894 238.139C318.005 239.572 317.883 241.04 317.549 242.224C317.252 243.271 316.618 244.084 316.019 244.912Z" fill="#0EABEB"/>
<path d="M326.585 234.76C326.046 235.427 325.398 235.993 324.811 236.616L322.887 238.486L319.1 242.274C317.847 243.53 316.594 244.773 315.31 245.966C314.667 246.563 314.019 247.152 313.359 247.724C312.705 248.284 312.029 248.855 311.337 249.481" stroke="#0EABEB" stroke-width="2.31625" stroke-miterlimit="10"/>
<path d="M314.741 263.444C313.832 263.552 312.818 263.596 311.748 263.533C310.682 263.47 309.548 263.292 308.526 263.003C306.504 262.436 304.708 261.269 304.51 259.177C304.444 258.492 304.544 257.803 304.672 257.109C307.787 257.011 310.856 254.972 313.576 256.449C315.061 257.207 317.782 259.239 318.203 260.742C318.346 261.238 318.318 261.626 318.169 261.938C318.034 262.266 317.774 262.517 317.427 262.712C316.718 263.083 315.721 263.305 314.741 263.444Z" fill="#0EABEB"/>
<path d="M301.472 260.995C299.784 260.723 298.231 260.384 296.954 259.459C295.674 258.526 294.742 257.049 294.496 254.448C294.281 252.267 295.494 249.254 297.675 248.515C299.087 248.003 300.421 248.745 301.09 249.817C301.696 250.787 302.107 252.184 302.311 253.592C302.508 255.058 302.587 256.62 302.438 257.891C302.279 259 301.885 260.014 301.472 260.995Z" fill="#0EABEB"/>
<path d="M311.337 249.482C305.833 254.331 301.515 260.459 298.667 267.191" stroke="#0EABEB" stroke-width="2.31625" stroke-miterlimit="10"/>
<path d="M307.726 278.386C306.194 279.358 304.055 280.276 301.919 280.626C299.794 280.964 297.746 280.685 296.654 278.871C296.306 278.28 296.062 277.605 295.926 276.931C298.679 275.513 300.626 272.372 303.699 272.525C305.36 272.568 308.686 273.218 309.718 274.415C311.078 275.964 309.356 277.268 307.726 278.386Z" fill="#0EABEB"/>
<path d="M294.681 281.811C291.445 282.726 288.279 283.343 285.563 278.848C285.034 277.899 284.7 276.625 284.696 275.37C284.74 274.13 285.122 272.917 285.918 272.122C287.028 271.077 288.506 271.173 289.583 271.859C290.563 272.481 291.467 273.552 292.284 274.748C293.116 275.996 293.789 277.365 294.231 278.587C294.417 279.127 294.492 279.662 294.545 280.199C294.617 280.738 294.643 281.277 294.681 281.811Z" fill="#0EABEB"/>
<path d="M298.666 267.188C295.817 273.919 294.424 281.288 294.793 288.619" stroke="#0EABEB" stroke-width="2.31625" stroke-miterlimit="10"/>
<path d="M380.064 235.062C379.176 235.963 378.074 236.686 376.926 237.174C375.796 237.674 374.595 237.921 373.492 237.917C371.282 237.913 369.473 236.908 368.785 234.927C368.54 234.27 368.442 233.598 368.361 232.937C369.788 232.429 371.019 231.274 372.185 230.107C373.34 228.942 374.505 227.771 375.983 227.335C377.616 226.908 381.058 226.146 382.287 227.664C383.121 228.69 383.046 230.072 382.556 231.436C382.02 232.782 381.075 234.099 380.064 235.062Z" fill="#0EABEB"/>
<path d="M366.131 237.139C364.459 237.01 362.92 236.637 361.583 235.823C360.226 235.014 359.139 233.773 358.132 232.051C357.344 230.576 357.011 228.947 358.442 228.281C359.355 227.831 360.82 227.906 361.963 228.398C362.992 228.841 364.054 229.648 364.825 230.658C365.68 231.716 366.244 232.996 366.469 234.168C366.624 235.19 366.406 236.181 366.131 237.139Z" fill="#0EABEB"/>
<path d="M369.578 223.471C369.609 230.34 367.119 237.114 363.208 242.846" stroke="#0EABEB" stroke-width="2.31625" stroke-miterlimit="10"/>
<path d="M366.377 257.957C364.031 258.535 361.36 258.218 359.438 257.191C357.497 256.159 356.305 254.484 356.591 252.385C356.69 251.703 356.924 251.063 357.152 250.419C360.214 250.931 363.558 248.671 366.485 249.552C368.088 250.084 371.332 251.401 371.621 253.226C372.013 255.697 368.907 257.352 366.377 257.957Z" fill="#0EABEB"/>
<path d="M353.219 253.199C351.764 252.356 350.503 251.364 349.653 250.056C348.802 248.753 348.355 247.12 348.374 245.027C348.373 244.141 348.597 243.236 348.997 242.57C349.385 241.902 349.994 241.469 350.829 241.444C351.955 241.428 353.181 242.213 353.908 243.237C354.563 244.162 355.002 245.393 355.19 246.708C355.364 248.056 355.272 249.506 354.885 250.643C354.564 251.668 353.868 252.416 353.219 253.199Z" fill="#0EABEB"/>
<path d="M363.208 242.846C361.274 245.739 358.949 248.371 356.423 250.776C353.862 253.16 351.081 255.32 348.141 257.254" stroke="#0EABEB" stroke-width="2.31625" stroke-miterlimit="10"/>
<path d="M346.209 272.355C343.976 272.108 341.605 271.003 340.06 269.472C338.509 267.939 337.772 266.009 338.643 264.082C338.926 263.445 339.338 262.898 339.76 262.361C342.539 263.733 346.365 262.741 348.757 264.667C350.05 265.738 352.52 268.169 352.226 269.94C351.821 272.304 348.641 272.658 346.209 272.355Z" fill="#0EABEB"/>
<path d="M335.152 263.957C332.739 261.592 331.244 258.918 332.714 254.761C333.344 253.009 334.871 251.372 336.637 251.805C337.802 252.081 338.719 253.226 339.044 254.442C339.34 255.542 339.33 256.894 339.046 258.2C338.764 259.579 338.192 260.921 337.494 261.93C336.872 262.813 336.003 263.381 335.152 263.957Z" fill="#0EABEB"/>
<path d="M348.141 257.256C342.254 261.126 335.812 264.16 329.202 266.773" stroke="#0EABEB" stroke-width="2.31625" stroke-miterlimit="10"/>
<path d="M325.291 281.191C323.344 280.592 321.269 279.253 319.858 277.624C318.453 275.993 317.727 274.048 318.729 272.173C319.057 271.563 319.518 271.044 319.998 270.545C322.65 272.142 326.475 271.789 328.447 274.143C329.517 275.433 331.413 278.308 330.907 279.956C330.221 282.145 327.42 281.848 325.291 281.191Z" fill="#0EABEB"/>
<path d="M315.204 271.923C312.832 269.544 310.995 266.961 313.223 262.581C314.164 260.741 316.35 259.063 318.264 259.636C319.536 260.013 320.296 261.268 320.417 262.531C320.528 263.678 320.268 265.022 319.783 266.318C319.279 267.674 318.533 268.979 317.727 269.95C317.015 270.811 316.091 271.339 315.204 271.923Z" fill="#0EABEB"/>
<path d="M329.201 266.77C322.604 269.393 315.672 271.58 309.229 275.149" stroke="#0EABEB" stroke-width="2.31625" stroke-miterlimit="10"/>
<path d="M309.762 289.413C308.071 289.215 305.883 288.621 303.95 287.716C302.059 286.811 300.411 285.469 300.537 283.34C300.568 282.635 300.811 281.988 301.066 281.319C302.627 281.55 304.217 281.286 305.763 281.282C307.298 281.263 308.752 281.472 309.902 282.449C311.194 283.509 313.409 286.085 313.5 287.636C313.653 289.678 311.622 289.582 309.762 289.413Z" fill="#0EABEB"/>
<path d="M297.241 284.775C295.598 284.342 294.037 283.896 292.868 282.842C291.713 281.791 290.94 280.086 291.264 277.262C291.509 274.866 293.516 271.835 295.902 271.476C297.477 271.216 298.61 272.194 299.047 273.397C299.444 274.488 299.513 275.939 299.417 277.385C299.324 278.925 299.052 280.466 298.692 281.745C298.357 282.857 297.76 283.798 297.241 284.775Z" fill="#0EABEB"/>
<path d="M309.23 275.152C306.014 276.937 302.959 279.088 300.302 281.716C297.653 284.335 295.397 287.479 294.072 291.074" stroke="#0EABEB" stroke-width="2.31625" stroke-miterlimit="10"/>
<path d="M271.688 396.237C271.348 396.314 259.772 396.314 259.431 396.237C250.936 394.37 220.767 384.459 247.958 352.357H282.767C309.945 384.446 280.184 394.37 271.688 396.237Z" fill="white" stroke="#263238" stroke-width="2.31625" stroke-miterlimit="10"/>
<path d="M282.762 352.57C282.762 353.092 281.978 353.585 280.601 354.007C277.625 353.072 271.875 352.449 265.26 352.449C258.656 352.449 252.906 353.072 249.93 354.007C248.553 353.585 247.769 353.092 247.769 352.57C247.769 350.921 255.6 349.584 265.26 349.584C274.931 349.584 282.762 350.921 282.762 352.57Z" fill="white" stroke="#263238" stroke-width="2.31625" stroke-miterlimit="10"/>
<path d="M280.6 354.005C277.624 354.93 271.874 355.553 265.26 355.553C258.655 355.553 252.905 354.93 249.93 354.005C252.905 353.071 258.655 352.447 265.26 352.447C271.874 352.447 277.624 353.071 280.6 354.005Z" fill="#263238" stroke="#263238" stroke-width="2.31625" stroke-miterlimit="10"/>
<path d="M278.667 361.653C279.889 361.404 281.093 361.123 282.272 360.812L278.667 361.653Z" fill="white"/>
<path d="M278.667 361.653C279.889 361.404 281.093 361.123 282.272 360.812" stroke="#263238" stroke-width="2.31625" stroke-miterlimit="10"/>
<path d="M248.645 360.301C256.949 363.269 266.692 363.607 275.712 362.184L248.645 360.301Z" fill="white"/>
<path d="M248.645 360.301C256.949 363.269 266.692 363.607 275.712 362.184" stroke="#263238" stroke-width="2.31625" stroke-miterlimit="10"/>
<path d="M290.631 303.241C286.663 303.571 281.156 301.087 281.332 297.196C281.36 296.557 281.534 295.969 281.718 295.385C284.588 296.059 287.61 294.466 290.333 295.781C291.814 296.525 294.763 298.299 295.061 299.962C295.438 302.209 292.798 303.06 290.631 303.241Z" fill="#0EABEB"/>
<path d="M278.278 297.877C275.359 296.309 273.007 294.296 272.961 290.018C272.939 288.211 273.846 286.299 275.545 286.322C276.681 286.332 277.855 287.201 278.528 288.256C279.14 289.213 279.546 290.449 279.732 291.717C279.919 293.042 279.873 294.401 279.601 295.477C279.365 296.43 278.8 297.142 278.278 297.877Z" fill="#0EABEB"/>
<path d="M287.46 289.143C283.452 293.69 278.771 297.7 274.279 302.022" stroke="#0EABEB" stroke-width="2.31625" stroke-miterlimit="10"/>
<path d="M278.049 315.526C276.324 315.594 274.066 315.207 272.109 314.394C270.225 313.571 268.478 312.325 268.309 310.371C268.249 309.737 268.334 309.11 268.473 308.51C271.393 308.799 274.271 307.235 276.914 308.709C278.36 309.504 281.117 311.497 281.529 313.013C282.061 315.017 279.957 315.429 278.049 315.526Z" fill="#0EABEB"/>
<path d="M265.397 311.671C263.762 311.249 262.232 310.804 260.999 309.836C259.749 308.858 258.882 307.385 258.784 304.782C258.684 302.637 259.732 300.198 261.71 299.817C263.01 299.576 264.237 300.37 264.925 301.433C265.553 302.401 265.956 303.678 266.187 304.99C266.432 306.371 266.479 307.77 266.346 308.921C266.205 309.905 265.789 310.817 265.397 311.671Z" fill="#0EABEB"/>
<path d="M274.279 302.02C272.04 304.189 269.839 306.439 267.828 308.883C266.83 310.092 265.864 311.421 265.013 312.787C264.617 313.487 264.179 314.168 263.821 314.887L262.779 317.055" stroke="#0EABEB" stroke-width="2.31625" stroke-miterlimit="10"/>
<path d="M272.073 327.326C270.598 328.137 268.403 328.86 266.286 329.058C264.205 329.258 262.118 328.873 261.062 327.241C260.716 326.706 260.519 326.117 260.344 325.515C261.69 324.962 262.879 324.021 264.02 323.237C265.217 322.468 266.449 321.892 267.926 322.02C269.55 322.13 272.876 322.926 273.919 323.979C274.637 324.695 274.591 325.289 274.138 325.818C273.703 326.362 272.907 326.893 272.073 327.326Z" fill="#0EABEB"/>
<path d="M259.044 329.68C255.782 330.269 252.628 330.519 250.035 326.605C248.965 324.95 248.721 322.188 250.357 320.867C251.415 319.996 252.869 320.144 253.963 320.795C254.957 321.386 255.903 322.372 256.696 323.444C257.512 324.567 258.269 325.796 258.65 326.87C258.979 327.818 259.017 328.755 259.044 329.68Z" fill="#0EABEB"/>
<path d="M262.779 317.053C261.503 319.991 260.608 323.056 259.956 326.152C259.305 329.25 258.903 332.39 258.74 335.533" stroke="#0EABEB" stroke-width="2.31625" stroke-miterlimit="10"/>
<path d="M270.767 342.758C269.57 344.057 267.634 345.389 265.665 346.14C263.679 346.884 261.612 347.02 260.132 345.724C259.637 345.299 259.317 344.784 258.991 344.255C261.326 342.471 262.287 339.312 265.236 338.588C266.834 338.172 270.205 337.753 271.547 338.534C273.305 339.544 272.082 341.313 270.767 342.758Z" fill="#0EABEB"/>
<path d="M258.793 348.584C255.826 349.959 252.767 350.904 249.32 347.914C247.841 346.654 246.948 344.226 248.093 342.644C248.877 341.591 250.317 341.317 251.545 341.606C252.667 341.866 253.822 342.507 254.912 343.284C256.049 344.099 257.026 345.074 257.708 345.993C258.314 346.805 258.526 347.704 258.793 348.584Z" fill="#0EABEB"/>
<path d="M258.739 335.541C258.372 341.83 258.82 348.129 259.886 354.318" stroke="#0EABEB" stroke-width="2.31625" stroke-miterlimit="10"/>
<path d="M296.417 334.44C292.438 335.66 286.493 334.284 286.091 330.281C286.022 329.622 286.109 328.989 286.209 328.357C289.207 328.429 292.008 326.148 294.962 326.879C296.574 327.31 299.834 328.462 300.394 330.095C301.128 332.293 298.584 333.814 296.417 334.44Z" fill="#0EABEB"/>
<path d="M283.104 331.611C279.925 330.612 277.259 329.041 276.555 324.728C276.259 322.906 276.852 320.798 278.58 320.456C279.718 320.23 281.026 320.865 281.877 321.79C282.653 322.628 283.26 323.799 283.633 325.047C284.04 326.352 284.192 327.745 284.082 328.896C283.991 329.916 283.522 330.756 283.104 331.611Z" fill="#0EABEB"/>
<path d="M290.985 320.748C287.738 326.282 283.591 331.358 279.649 336.629" stroke="#0EABEB" stroke-width="2.31625" stroke-miterlimit="10"/>
<path d="M284.955 349.974C283.136 350.411 280.791 350.403 278.712 349.858C276.645 349.306 274.903 348.188 274.542 346.203C274.426 345.556 274.455 344.898 274.535 344.26C277.538 344.135 280.284 341.978 283.161 342.986C284.727 343.529 287.793 345.028 288.376 346.539C289.145 348.539 286.922 349.484 284.955 349.974Z" fill="#0EABEB"/>
<path d="M271.688 347.864C268.411 347.259 265.4 346.309 264.485 341.614C264.306 340.641 264.398 339.505 264.774 338.519C265.156 337.556 265.822 336.765 266.763 336.444C268.017 336.04 269.349 336.661 270.17 337.62C270.917 338.489 271.481 339.716 271.867 341.017C272.265 342.369 272.459 343.792 272.431 344.987C272.389 346.03 272.012 346.94 271.688 347.864Z" fill="#0EABEB"/>
<path d="M279.651 336.627C275.702 341.888 271.857 347.381 269.068 353.512" stroke="#0EABEB" stroke-width="2.31625" stroke-miterlimit="10"/>
<path d="M364.962 221.522C364.517 219.17 365.099 216.158 366.25 214.699C366.398 214.511 368.624 211.805 369.37 211.876C369.865 211.924 372.292 213.665 373.183 215.782C373.676 216.955 374.669 218.841 374.322 221.569C374.085 223.437 372.229 227.005 369.718 227.159C367.083 227.321 365.29 223.248 364.962 221.522Z" fill="#0EABEB"/>
<path d="M303.662 41.6777H110.653V298.226H303.662V41.6777Z" fill="white"/>
<path d="M303.661 298.732H110.654C110.376 298.732 110.151 298.506 110.151 298.229V41.6804C110.151 41.4029 110.376 41.1777 110.654 41.1777H303.661C303.939 41.1777 304.164 41.4029 304.164 41.6804V298.229C304.164 298.507 303.94 298.732 303.661 298.732ZM111.156 297.726H303.158V42.183H111.156V297.726Z" fill="#263238"/>
<path d="M183.744 291.301C183.744 291.301 175.159 295.473 151.113 297.724L111.155 297.726" stroke="#263238" stroke-width="2.31625" stroke-miterlimit="10" stroke-linecap="round" stroke-linejoin="round"/>
<path d="M299.482 151.622C300.969 149.391 301.863 146.824 302.097 144.154C302.39 140.791 302.612 136.884 302.682 134.502L303.065 121.346V149.652L299.482 151.622Z" fill="#263238"/>
<path d="M301.942 148.468C301.942 149.694 290.703 179.329 269.814 211.849C268.528 213.85 267.211 215.86 265.844 217.881C258.576 228.697 250.252 239.644 240.953 249.828C239.084 251.868 237.174 253.879 235.224 255.859C220.497 270.797 203.528 283.514 184.519 290.802C185.604 290.249 202.161 281.895 205.77 255.859C206.041 253.949 206.232 251.939 206.343 249.828C206.825 241.022 205.88 230.466 202.683 217.881C202.191 215.92 201.638 213.91 201.025 211.849C196.381 196.157 188.399 177.56 175.682 155.565L172.405 148.428L193.817 154.439C289.447 176.645 301.932 148.428 301.932 148.428C301.932 148.438 301.942 148.448 301.942 148.468Z" fill="#EAECF7" stroke="#263238" stroke-width="2.31625" stroke-miterlimit="10" stroke-linecap="round" stroke-linejoin="round"/>
<path d="M219.662 237.924C219.748 241.483 219.54 243.263 219.54 243.263L219.662 237.924Z" fill="white"/>
<path d="M219.662 237.924C219.748 241.483 219.54 243.263 219.54 243.263" stroke="#263238" stroke-width="2.31625" stroke-miterlimit="10" stroke-linecap="round" stroke-linejoin="round"/>
<path d="M196.66 169.482C210.55 187.474 217.558 217.881 219.389 232.309L196.66 169.482Z" fill="white"/>
<path d="M196.66 169.482C210.55 187.474 217.558 217.881 219.389 232.309" stroke="#263238" stroke-width="2.31625" stroke-miterlimit="10" stroke-linecap="round" stroke-linejoin="round"/>
<path d="M133.943 69.6463C128.37 69.6463 123.836 65.1116 123.836 59.5385C123.836 53.9653 128.37 49.4316 133.943 49.4316C134.776 49.4316 135.451 50.1062 135.451 50.9395C135.451 51.7729 134.776 52.4474 133.943 52.4474C130.032 52.4474 126.852 55.628 126.852 59.5385C126.852 63.4489 130.033 66.6305 133.943 66.6305C137.853 66.6305 141.035 63.4489 141.035 59.5385C141.035 58.7051 141.709 58.0306 142.543 58.0306C143.376 58.0306 144.051 58.7051 144.051 59.5385C144.05 65.1116 139.516 69.6463 133.943 69.6463Z" fill="#263238"/>
<path d="M133.702 65.4706C124.464 65.4706 123.959 45.5133 123.951 41.5134V41.3847C123.951 37.3627 124.422 17.2988 133.702 17.2988C142.956 17.2988 143.627 38.96 143.673 41.4299L135.632 41.5807C135.519 35.4678 134.578 30.721 133.64 27.8389C132.792 30.6295 131.993 35.2496 131.993 41.3847V41.5053C132.004 47.7188 132.837 52.3671 133.699 55.1185C133.793 54.8259 133.888 54.5042 133.985 54.1504L134.621 51.965L140.226 53.5995C141.395 53.9403 142.066 55.1637 141.725 56.3328C140.08 62.3734 137.374 65.4706 133.702 65.4706Z" fill="#EAECF7" stroke="#263238" stroke-width="2.31625" stroke-miterlimit="10" stroke-linecap="round" stroke-linejoin="round"/>
<path d="M142.542 61.0463C141.709 61.0463 141.034 60.3718 141.034 59.5385C141.034 55.628 137.852 52.4474 133.942 52.4474C133.109 52.4474 132.434 51.7729 132.434 50.9395C132.434 50.1062 133.109 49.4316 133.942 49.4316C139.515 49.4316 144.05 53.9653 144.05 59.5385C144.05 60.3718 143.375 61.0463 142.542 61.0463Z" fill="#263238"/>
<path d="M181.599 69.6463C176.026 69.6463 171.491 65.1116 171.491 59.5385C171.491 53.9653 176.026 49.4316 181.599 49.4316C182.432 49.4316 183.107 50.1062 183.107 50.9395C183.107 51.7729 182.432 52.4474 181.599 52.4474C177.689 52.4474 174.507 55.628 174.507 59.5385C174.507 63.4489 177.689 66.6305 181.599 66.6305C185.509 66.6305 188.69 63.4489 188.69 59.5385C188.69 58.7051 189.365 58.0306 190.198 58.0306C191.031 58.0306 191.706 58.7051 191.706 59.5385C191.706 65.1116 187.172 69.6463 181.599 69.6463Z" fill="#263238"/>
<path d="M181.357 65.4706C172.119 65.4706 171.614 45.5133 171.606 41.5134V41.3847C171.606 37.3627 172.077 17.2988 181.357 17.2988C190.612 17.2988 191.283 38.96 191.329 41.4299L183.287 41.5797C183.174 35.4668 182.233 30.72 181.295 27.8379C180.448 30.6285 179.648 35.2486 179.648 41.3837V41.5043C179.66 47.7178 180.492 52.3661 181.354 55.1175C181.448 54.8249 181.543 54.5032 181.64 54.1494L182.276 51.964L187.881 53.5985C189.05 53.9393 189.721 55.1627 189.38 56.3318C187.735 62.3734 185.03 65.4706 181.357 65.4706Z" fill="#EAECF7" stroke="#263238" stroke-width="2.31625" stroke-miterlimit="10" stroke-linecap="round" stroke-linejoin="round"/>
<path d="M190.198 61.0463C189.365 61.0463 188.69 60.3718 188.69 59.5385C188.69 55.628 185.51 52.4474 181.599 52.4474C180.766 52.4474 180.091 51.7729 180.091 50.9395C180.091 50.1062 180.766 49.4316 181.599 49.4316C187.172 49.4316 191.706 53.9653 191.706 59.5385C191.706 60.3718 191.031 61.0463 190.198 61.0463Z" fill="#263238"/>
<path d="M229.254 69.6463C223.681 69.6463 219.146 65.1116 219.146 59.5385C219.146 53.9653 223.681 49.4316 229.254 49.4316C230.086 49.4316 230.762 50.1062 230.762 50.9395C230.762 51.7729 230.086 52.4474 229.254 52.4474C225.343 52.4474 222.162 55.628 222.162 59.5385C222.162 63.4489 225.343 66.6305 229.254 66.6305C233.164 66.6305 236.346 63.4489 236.346 59.5385C236.346 58.7051 237.021 58.0306 237.854 58.0306C238.686 58.0306 239.362 58.7051 239.362 59.5385C239.361 65.1116 234.827 69.6463 229.254 69.6463Z" fill="#263238"/>
<path d="M229.012 65.4706C219.773 65.4706 219.269 45.5133 219.261 41.5134V41.3847C219.261 37.3627 219.732 17.2988 229.012 17.2988C238.267 17.2988 238.938 38.96 238.983 41.4299L230.942 41.5797C230.829 35.4668 229.888 30.72 228.95 27.8379C228.102 30.6285 227.303 35.2486 227.303 41.3837V41.5043C227.314 47.7178 228.147 52.3661 229.009 55.1175C229.103 54.8249 229.198 54.5032 229.295 54.1494L229.931 51.964L235.536 53.5985C236.705 53.9393 237.376 55.1627 237.035 56.3318C235.39 62.3734 232.684 65.4706 229.012 65.4706Z" fill="#EAECF7" stroke="#263238" stroke-width="2.31625" stroke-miterlimit="10" stroke-linecap="round" stroke-linejoin="round"/>
<path d="M237.854 61.0463C237.022 61.0463 236.346 60.3718 236.346 59.5385C236.346 55.628 233.164 52.4474 229.254 52.4474C228.422 52.4474 227.746 51.7729 227.746 50.9395C227.746 50.1062 228.422 49.4316 229.254 49.4316C234.827 49.4316 239.362 53.9653 239.362 59.5385C239.362 60.3718 238.687 61.0463 237.854 61.0463Z" fill="#263238"/>
<path d="M276.909 69.6463C271.336 69.6463 266.801 65.1116 266.801 59.5385C266.801 53.9653 271.336 49.4316 276.909 49.4316C277.741 49.4316 278.417 50.1062 278.417 50.9395C278.417 51.7729 277.741 52.4474 276.909 52.4474C272.999 52.4474 269.817 55.628 269.817 59.5385C269.817 63.4489 272.999 66.6305 276.909 66.6305C280.82 66.6305 284 63.4489 284 59.5385C284 58.7051 284.676 58.0306 285.508 58.0306C286.34 58.0306 287.016 58.7051 287.016 59.5385C287.016 65.1116 282.482 69.6463 276.909 69.6463Z" fill="#263238"/>
<path d="M276.667 65.4706C267.429 65.4706 266.925 45.5133 266.917 41.5134V41.3847C266.917 37.3627 267.387 17.2988 276.667 17.2988C285.922 17.2988 286.593 38.96 286.639 41.4299L278.598 41.5797C278.484 35.4668 277.543 30.72 276.605 27.8379C275.758 30.6285 274.959 35.2486 274.959 41.3837V41.5043C274.97 47.7178 275.802 52.3661 276.664 55.1175C276.758 54.8249 276.853 54.5032 276.95 54.1494L277.586 51.964L283.192 53.5985C284.361 53.9393 285.031 55.1627 284.69 56.3318C283.045 62.3734 280.34 65.4706 276.667 65.4706Z" fill="#EAECF7" stroke="#263238" stroke-width="2.31625" stroke-miterlimit="10" stroke-linecap="round" stroke-linejoin="round"/>
<path d="M285.508 61.0463C284.676 61.0463 284 60.3718 284 59.5385C284 55.628 280.82 52.4474 276.909 52.4474C276.077 52.4474 275.401 51.7729 275.401 50.9395C275.401 50.1062 276.077 49.4316 276.909 49.4316C282.482 49.4316 287.016 53.9653 287.016 59.5385C287.016 60.3718 286.341 61.0463 285.508 61.0463Z" fill="#263238"/>
<path d="M329.386 295.308C334.056 274.998 321.377 254.748 301.068 250.078C280.758 245.408 260.508 258.087 255.838 278.396C251.168 298.706 263.847 318.956 284.156 323.626C304.466 328.296 324.716 315.617 329.386 295.308Z" fill="#0EABEB" stroke="#263238" stroke-width="2.31625" stroke-miterlimit="10"/>
<g clip-path="url(#clip0_729_75068)">
<path d="M304.524 263.689H273.425C271.279 263.692 269.54 265.431 269.538 267.577V292.456C269.537 294.229 270.737 295.777 272.454 296.22L272.843 294.715C272.342 294.586 271.898 294.294 271.581 293.885C271.264 293.476 271.092 292.973 271.093 292.456V267.577C271.093 266.289 272.137 265.244 273.425 265.244H304.524C305.812 265.244 306.856 266.289 306.856 267.577V268.354H308.411V267.577C308.408 265.431 306.669 263.692 304.524 263.689Z" fill="white"/>
<path d="M272.647 266.801H274.202V268.356H272.647V266.801ZM275.757 266.801H277.312V268.356H275.757V266.801ZM278.867 266.801H280.422V268.356H278.867V266.801ZM315.18 306.679L307.806 299.305C308.193 298.614 308.503 297.881 308.73 297.122H309.966V295.567H309.064C309.357 293.685 309.131 291.759 308.411 289.996V282.35H306.856V287.301C306.394 286.711 305.873 286.17 305.301 285.687V279.24H303.746V284.6C303.248 284.312 302.728 284.063 302.191 283.858V276.13H300.636V283.386C300.124 283.275 299.604 283.202 299.081 283.167V277.685H297.526V283.167C297.003 283.202 296.484 283.275 295.971 283.386V280.795H294.417V283.858C293.879 284.063 293.359 284.312 292.862 284.6V280.018H291.307V285.687C290.734 286.17 290.213 286.711 289.752 287.301V281.573H288.197V289.996C287.477 291.759 287.251 293.685 287.544 295.567H277.312V297.122H287.878C289.583 302.873 295.628 306.154 301.379 304.448C302.513 304.112 303.584 303.594 304.55 302.913L311.749 310.111C311.894 310.257 312.092 310.339 312.298 310.339C312.504 310.339 312.702 310.257 312.848 310.111L315.18 307.779C315.326 307.633 315.408 307.435 315.408 307.229C315.408 307.023 315.326 306.825 315.18 306.679ZM298.304 303.342C293.154 303.336 288.98 299.162 288.974 294.012C288.974 288.86 293.151 284.683 298.304 284.683C303.456 284.683 307.633 288.86 307.633 294.012C307.633 299.165 303.456 303.342 298.304 303.342ZM312.298 308.462L305.758 301.922C306.182 301.522 306.573 301.088 306.928 300.626L313.531 307.229L312.298 308.462Z" fill="white"/>
<path d="M298.304 286.236C294.01 286.236 290.529 289.717 290.529 294.011C290.529 298.305 294.01 301.786 298.304 301.786C302.598 301.786 306.079 298.305 306.079 294.011C306.074 289.719 302.596 286.241 298.304 286.236ZM298.304 300.231C297.214 300.229 296.143 299.941 295.199 299.395C294.255 298.85 293.471 298.065 292.925 297.121H303.682C303.137 298.065 302.353 298.85 301.409 299.395C300.465 299.941 299.394 300.229 298.304 300.231ZM292.289 295.566C291.663 293.199 292.498 290.685 294.417 289.163V294.011H295.972V288.249C296.47 288.047 296.993 287.912 297.526 287.845V294.011H299.081V287.845C299.615 287.912 300.138 288.047 300.636 288.249V294.011H302.191V289.163C304.109 290.685 304.945 293.199 304.319 295.566H292.289Z" fill="white"/>
<path d="M309.189 269.908H278.09C275.944 269.911 274.205 271.65 274.203 273.796V298.674C274.205 300.82 275.944 302.559 278.09 302.562H288.197V301.007H278.09C276.802 301.007 275.758 299.963 275.758 298.674V273.796C275.758 272.507 276.802 271.463 278.09 271.463H309.189C310.477 271.463 311.521 272.507 311.521 273.796V298.674C311.521 299.242 311.314 299.791 310.938 300.217L312.104 301.246C312.731 300.536 313.076 299.621 313.076 298.674V273.796C313.073 271.65 311.334 269.911 309.189 269.908Z" fill="white"/>
<path d="M277.312 273.02H278.867V274.574H277.312V273.02ZM280.422 273.02H281.977V274.574H280.422V273.02ZM283.532 273.02H285.087V274.574H283.532V273.02ZM278.867 289.346H280.422V294.011H278.867V289.346ZM281.977 284.682H283.532V294.011H281.977V284.682ZM285.087 287.014H286.642V294.011H285.087V287.014Z" fill="white"/>
</g>
<path d="M111.728 163.507C111.728 163.507 114.824 181.297 114.232 183.509C113.639 185.722 111.251 187.394 111.251 187.394L118.178 203.876V190.976C118.178 190.976 120.089 161.117 120.328 147.74C120.516 137.207 119.552 127.854 119.552 127.854L116.268 128.391C116.268 128.391 112.445 156.34 111.728 163.507Z" fill="white" stroke="#263238" stroke-width="2.31625" stroke-miterlimit="10" stroke-linecap="round" stroke-linejoin="round"/>
<path d="M97.215 379.763L95.2849 365.562L82.4629 364.535L83.9587 380.048C83.9587 380.048 90.1571 385.449 97.215 379.763Z" fill="white" stroke="#263238" stroke-width="2.31625" stroke-miterlimit="10" stroke-linecap="round" stroke-linejoin="round"/>
<path d="M83.1302 378.27C82.705 381.776 82.2939 385.449 83.3041 388.794C84.3144 392.138 87.2487 394.965 90.1469 394.147C90.8144 393.96 91.4427 393.593 92.1222 393.475C93.4069 393.252 94.6685 393.935 95.8718 394.528C103.191 398.133 122.28 396.589 123.778 395.791C123.978 395.685 124.176 395.525 124.37 395.322C125.781 393.845 125.267 391.779 123.422 390.906C114.664 386.76 115.226 387.802 100.77 379.613C98.1759 378.143 96.6358 378.842 95.331 380.192C91.7684 383.877 85.567 382.778 83.1302 378.27Z" fill="#263238"/>
<path d="M96.3647 347.711C89.8205 355.843 81.6297 366.253 81.6297 366.253L75.7178 353.533C75.7178 353.533 89.4526 337.231 96.4994 320.031C96.5094 323.399 96.7678 327.107 96.8573 329.168C97.0995 335.481 96.4652 341.348 96.3647 347.711Z" fill="#263238"/>
<path d="M82.4747 382.121C82.3843 382.653 82.2737 383.216 81.8716 383.568C80.7457 384.573 79.4992 382.754 78.5542 381.568C75.7094 377.959 73.0957 373.576 70.7233 369.394L69.9895 362.85L67.8382 363.745L67.5668 363.765C67.3557 363.393 67.1446 363.031 66.9436 362.669C62.1787 354.345 67.8684 352.727 73.9301 352.998C74.6237 353.029 76.0713 353.179 78.4034 357.653C79.6299 360.015 79.4992 359.412 80.0822 360.859C82.7763 367.564 83.6107 374.993 82.4747 382.121Z" fill="#263238"/>
<path d="M119.901 210.826C119.66 209.187 119.7 204.432 119.801 199.979C119.941 194.269 117.388 188.821 112.925 185.252C112.925 185.252 107.657 192.339 92.6086 192.339C92.3573 192.339 92.106 192.329 91.8547 192.329C85.1195 192.168 78.4748 191.052 72.1115 189.052C69.3973 188.187 66.7435 187.172 64.1499 185.996C64.1499 185.996 64.4515 206.051 65.0848 224.789C65.6276 239.616 69.4476 306.236 71.8602 327.405C73.8717 345.057 79.8389 362.491 80.5556 370.015C80.8944 373.571 88.9073 372.459 92.7383 371.09C97.7545 369.299 98.1124 368.223 98.1124 368.223C98.4441 362.755 96.9915 353.169 97.082 347.711C110.794 330.662 132.125 303.58 132.728 299.409C137.413 266.999 120.404 214.183 119.901 210.826ZM106.783 294.221C106.431 296.413 101.877 307.893 96.7302 320.428C96.7141 314.882 99.188 309.103 99.9037 300.145C101.283 282.908 97.7837 263.976 98.2782 250.111C101.063 262.053 107.426 290.15 106.783 294.221Z" fill="#263238"/>
<path d="M128.306 304.506C126.116 306.365 123.538 307.769 120.781 308.575" stroke="#EAECF7" stroke-width="2.31625" stroke-miterlimit="10" stroke-linecap="round" stroke-linejoin="round"/>
<path d="M131.382 301.258C130.95 301.831 130.486 302.38 129.996 302.902" stroke="#EAECF7" stroke-width="2.31625" stroke-miterlimit="10" stroke-linecap="round" stroke-linejoin="round"/>
<path d="M101.38 198.408C102.764 205.738 102.979 215.638 99.9714 222.463C99.4909 223.552 97.3125 225.629 97.3125 225.629" stroke="#EAECF7" stroke-width="2.31625" stroke-miterlimit="10" stroke-linecap="round" stroke-linejoin="round"/>
<path d="M77.6358 197.629C76.8226 201.15 75.3579 206.949 73.4459 210.015C71.5329 213.081 68.6016 215.661 65.0752 216.448" stroke="#EAECF7" stroke-width="2.31625" stroke-miterlimit="10" stroke-linecap="round" stroke-linejoin="round"/>
<path d="M96.1958 205.043C97.2543 216.934 97.2111 228.461 98.333 248.43" stroke="#EAECF7" stroke-width="2.31625" stroke-miterlimit="10" stroke-linecap="round" stroke-linejoin="round"/>
<path d="M95.5508 198.918C95.6654 199.86 95.7719 200.791 95.8705 201.715" stroke="white" stroke-width="2.31625" stroke-miterlimit="10" stroke-linecap="round" stroke-linejoin="round"/>
<path d="M106.837 291.012C107.515 295.9 108.902 300.69 110.941 305.185" stroke="#EAECF7" stroke-width="2.31625" stroke-miterlimit="10" stroke-linecap="round" stroke-linejoin="round"/>
<path d="M107.701 295.621C106.805 302.584 107.198 309.702 108.819 316.537" stroke="#EAECF7" stroke-width="2.31625" stroke-miterlimit="10" stroke-linecap="round" stroke-linejoin="round"/>
<path d="M68.1743 215.238C70.0079 242.643 72.5602 263.496 74.6049 284.298" stroke="#EAECF7" stroke-width="2.31625" stroke-miterlimit="10" stroke-linecap="round" stroke-linejoin="round"/>
<path d="M74.6753 291.534C74.6944 290.67 74.7024 289.801 74.7014 288.928" stroke="#EAECF7" stroke-width="2.31625" stroke-miterlimit="10" stroke-linecap="round" stroke-linejoin="round"/>
<path d="M86.4397 371.926C85.0183 367.532 75.2231 333.686 74.7607 319.697C74.4531 310.405 74.0812 303.778 74.5546 294.787" stroke="#EAECF7" stroke-width="2.31625" stroke-miterlimit="10" stroke-linecap="round" stroke-linejoin="round"/>
<path d="M97.5458 317.305L97.1899 347.574" stroke="#EAECF7" stroke-width="2.31625" stroke-miterlimit="10" stroke-linecap="round" stroke-linejoin="round"/>
<path d="M117.461 109.044C115.11 97.0311 107.093 95.4086 105.274 94.8356C92.7384 90.885 84.1435 90.2215 74.2518 94.5642C62.6411 99.6709 60.3089 99.8518 56.7302 113.101C54.77 120.349 58.6704 144.757 61.0227 155.382C62.9025 163.836 62.43 185.741 66.0389 189.249C72.754 195.753 82.2737 194.818 91.4818 193.19C99.4535 191.772 112.762 189.886 115.788 182.377C116.225 181.295 116.185 176.752 116.027 170.194C115.55 150.368 116.877 138.986 116.673 126.29L119.372 125.049C119.372 125.049 119.61 120.031 117.461 109.044Z" fill="#0EABEB"/>
<mask id="mask0_729_75068" style="mask-type:luminance" maskUnits="userSpaceOnUse" x="56" y="91" width="64" height="104">
<path d="M117.461 109.038C115.11 97.0252 107.093 95.4028 105.274 94.8298C92.7384 90.8791 84.1435 90.2157 74.2518 94.5584C62.6411 99.665 60.3089 99.846 56.7302 113.095C54.77 120.343 58.6704 144.751 61.0227 155.376C62.9025 163.83 62.43 185.735 66.0389 189.243C72.754 195.747 82.2737 194.812 91.4818 193.184C99.4535 191.766 112.762 189.88 115.788 182.371C116.225 181.29 116.185 176.746 116.027 170.189C115.55 150.362 116.877 138.98 116.673 126.284L119.372 125.043C119.372 125.043 119.61 120.025 117.461 109.038Z" fill="white"/>
</mask>
<g mask="url(#mask0_729_75068)">
<path opacity="0.2" d="M59.4382 134.829C59.791 138.929 58.3877 143.334 60.2062 147.025C61.2175 149.077 63.3968 150.677 65.6717 150.439C67.0982 150.289 68.4412 149.46 69.8677 149.604C71.7012 149.789 72.9598 151.466 74.0264 152.968C76.4149 156.331 79.0738 159.599 82.5258 161.856C85.9779 164.112 90.3547 165.251 94.3023 164.06C93.2147 166.012 90.7659 168.998 90.785 168.918C92.9764 168.103 97.8137 164.581 102.071 164.555C106.583 164.527 111.094 164.499 115.606 164.471C116.481 161.632 114.449 158.529 111.759 157.269C109.069 156.008 105.944 156.171 103.002 156.577C100.059 156.983 97.0849 157.607 94.1455 157.182C90.223 156.615 86.7569 154.203 84.1503 151.217C81.5437 148.231 79.684 144.683 77.8494 141.169C77.1196 142.553 75.0859 142.725 73.7168 141.969C72.3476 141.213 71.466 139.831 70.5613 138.557C67.8773 134.773 62.7384 128.455 58.0097 127.43C57.2266 129.454 59.2462 132.599 59.4382 134.829Z" fill="#202020"/>
</g>
<mask id="mask1_729_75068" style="mask-type:luminance" maskUnits="userSpaceOnUse" x="56" y="91" width="64" height="104">
<path d="M117.461 109.038C115.11 97.0252 107.093 95.4028 105.274 94.8298C92.7384 90.8791 84.1435 90.2157 74.2518 94.5584C62.6411 99.665 60.3089 99.846 56.7302 113.095C54.77 120.343 58.6704 144.751 61.0227 155.376C62.9025 163.83 62.43 185.735 66.0389 189.243C72.754 195.747 82.2737 194.812 91.4818 193.184C99.4535 191.766 112.762 189.88 115.788 182.371C116.225 181.29 116.185 176.746 116.027 170.189C115.55 150.362 116.877 138.98 116.673 126.284L119.372 125.043C119.372 125.043 119.61 120.025 117.461 109.038Z" fill="white"/>
</mask>
<g mask="url(#mask1_729_75068)">
<path opacity="0.2" d="M101.065 154.962C106.31 152.915 109.833 147.749 111.342 142.324C112.253 139.046 114.291 130.042 112.022 127.197C110.325 131.911 109.146 136.797 107.303 141.485C106.363 143.875 105.35 146.237 104.267 148.565C103.75 149.674 102.164 154.533 101.065 154.962Z" fill="#202020"/>
</g>
<mask id="mask2_729_75068" style="mask-type:luminance" maskUnits="userSpaceOnUse" x="56" y="91" width="64" height="104">
<path d="M117.461 109.038C115.11 97.0252 107.093 95.4028 105.274 94.8298C92.7384 90.8791 84.1435 90.2157 74.2518 94.5584C62.6411 99.665 60.3089 99.846 56.7302 113.095C54.77 120.343 58.6704 144.751 61.0227 155.376C62.9025 163.83 62.43 185.735 66.0389 189.243C72.754 195.747 82.2737 194.812 91.4818 193.184C99.4535 191.766 112.762 189.88 115.788 182.371C116.225 181.29 116.185 176.746 116.027 170.189C115.55 150.362 116.877 138.98 116.673 126.284L119.372 125.043C119.372 125.043 119.61 120.025 117.461 109.038Z" fill="white"/>
</mask>
<g mask="url(#mask2_729_75068)">
<path opacity="0.2" d="M63.1502 170.266C66.5208 178.378 74.2773 184.134 82.7044 186.614C91.1314 189.095 100.945 189.014 109.578 187.387C98.4477 193.686 83.6936 194.303 71.7833 189.646C69.6381 188.808 67.509 189.771 65.9297 188.095C62.3138 184.26 62.4747 176.316 62.8597 171.06C62.1892 171.088 61.5177 171.115 60.8472 171.143" fill="#202020"/>
</g>
<path opacity="0.2" d="M85.2956 106.805C85.7399 107.326 86.2345 107.877 86.906 108.013C87.675 108.17 88.4561 107.716 88.9597 107.113C89.4623 106.51 89.7619 105.768 90.1449 105.082C91.0918 103.391 92.6017 102.022 94.375 101.244C95.324 103.555 96.7725 105.658 98.594 107.367C98.8031 107.357 99.0122 107.348 99.2213 107.339C100.193 105.013 100.472 102.402 100.011 99.9241C99.8506 100.565 99.3922 101.125 98.7961 101.412C98.2734 100.422 97.7396 99.4144 96.9464 98.6243C96.1533 97.8342 95.0465 97.2793 93.9357 97.415C93.4592 97.4733 93.0048 97.6542 92.5736 97.8653C89.785 99.2285 87.8067 101.84 86.338 104.573C86.4144 104.431 80.5518 100.662 79.8501 100.366C81.5409 102.593 83.4781 104.676 85.2956 106.805Z" fill="#202020"/>
<path d="M117.461 109.044C115.11 97.0311 107.093 95.4086 105.274 94.8356C92.7384 90.885 84.1435 90.2215 74.2518 94.5642C62.6411 99.6709 60.3089 99.8518 56.7302 113.101C54.77 120.349 58.6704 144.757 61.0227 155.382C62.9025 163.836 62.43 185.741 66.0389 189.249C72.754 195.753 82.2737 194.818 91.4818 193.19C99.4535 191.772 112.762 189.886 115.788 182.377C116.225 181.295 116.185 176.752 116.027 170.194C115.55 150.368 116.877 138.986 116.673 126.29L119.372 125.049C119.372 125.049 119.61 120.031 117.461 109.044Z" stroke="#263238" stroke-width="2.31625" stroke-miterlimit="10"/>
<path d="M96.8677 92.1676C98.5897 92.1274 102.335 91.3584 103.785 87.3294C105.234 83.3003 105.911 70.4974 105.913 68.1702C105.914 65.8431 104.069 61.1325 103.692 58.4605C103.315 55.7885 101.716 50.2204 101.716 50.2204L96.8426 45.5078L90.1396 48.3436L80.644 49.5972C80.644 49.5972 78.8707 64.9906 76.4561 62.5177C74.0415 60.0448 66.7142 63.2234 67.1665 69.0579C67.6189 74.8924 75.0789 74.8079 75.0789 74.8079C75.0789 74.8079 76.9255 76.6244 78.0353 82.6811C78.7209 86.4518 78.745 90.314 78.1057 94.0927C80.5253 97.0763 84.3111 98.6023 88.123 98.1298C94.5476 97.3105 95.1739 92.9467 95.1739 92.9467C95.1739 92.9467 95.2463 92.2058 96.8677 92.1676Z" fill="white"/>
<path d="M75.1519 66.2927C73.7284 64.3325 68.5976 61.0222 67.3571 67.8348C66.1166 74.6474 72.9202 74.2181 76.4818 75.0666C79.1618 79.5219 84.5238 86.9959 89.0535 89.3372C91.8582 90.7978 95.3645 92.4916 98.6708 92.1046C101.978 91.7176 103.293 89.7473 103.94 86.619C104.83 82.422 105.409 78.1658 105.674 73.8834C105.832 71.1561 106.313 67.5041 105.202 64.9206C103.613 61.1901 103.96 56.9147 102.738 53.0726C101.516 49.2306 98.2224 46.4671 95.1735 44.0605" stroke="#263238" stroke-width="2.31625" stroke-linecap="round" stroke-linejoin="round"/>
<path d="M87.4113 63.7965C89.5052 62.5068 91.3207 61.9398 93.0779 63.8006C93.5735 63.7835 94.7074 61.8232 94.7074 61.8232C94.7074 61.8232 93.3775 59.8419 90.3105 60.5586C87.2434 61.2754 87.4113 63.7965 87.4113 63.7965Z" fill="#263238"/>
<path d="M92.0669 78.9297C93.5014 81.0015 95.0264 81.6368 97.7214 81.4046" stroke="#263238" stroke-width="2.31625" stroke-linecap="round" stroke-linejoin="round"/>
<path d="M91.0283 66.9726C91.4957 66.9283 91.9411 67.6742 92.0295 68.6212C92.118 69.5681 91.7943 70.3804 91.3269 70.4136C90.8594 70.4467 90.403 69.7119 90.3256 68.7649C90.2372 67.818 90.5608 67.0168 91.0283 66.9726Z" fill="#263238"/>
<path d="M101.227 65.6347C101.706 65.5905 102.162 66.3143 102.24 67.2723C102.317 68.2293 102.016 69.0425 101.537 69.0757C101.059 69.1089 100.613 68.3741 100.525 67.4271C100.447 66.4802 100.749 65.679 101.227 65.6347Z" fill="#263238"/>
<path d="M100.093 62.6897C100.124 62.6495 102.412 61.5648 103.333 62.3801C103.333 62.3801 104.001 60.079 102.25 59.5412C100.5 59.0034 99.8364 60.3997 99.8364 60.3997L99.9028 62.8847L100.093 62.6897Z" fill="#263238"/>
<path d="M95.3062 91.9697C95.3656 91.9767 94.874 95.7967 93.336 96.8663C91.7999 97.9057 91.3657 98.2043 89.514 98.2998C86.263 98.5762 79.8424 96.8803 78.1405 94.0958C78.7678 91.3484 78.8673 88.5076 78.4361 85.7241C78.1436 82.1162 77.4891 78.5455 76.4839 75.0684C76.4839 75.0684 84.8556 90.7151 95.3062 91.9697Z" stroke="#263238" stroke-width="2.31625" stroke-linecap="round" stroke-linejoin="round"/>
<path d="M78.8799 91.209C76.6633 91.7327 74.883 91.8534 74.3753 93.3713C74.0506 94.3434 74.7895 95.2632 75.5716 96.0915C78.5733 99.2731 82.3801 102.185 86.7068 104.585C89.0108 101.215 90.8514 99.443 93.2872 97.4034C88.5625 96.4836 83.8006 94.5122 79.9706 91.8202L78.8799 91.209Z" fill="white" stroke="#263238" stroke-width="2.31625" stroke-miterlimit="10" stroke-linecap="round" stroke-linejoin="round"/>
<path d="M95.365 92.2676C97.3956 92.5661 97.7505 93.0155 98.6451 94.0258C99.5981 95.1014 100.355 99.5114 99.388 102.32C97.2398 99.8251 95.9169 96.0574 92.8066 97.0325C95.2454 96.2685 95.365 92.2676 95.365 92.2676Z" fill="white" stroke="#263238" stroke-width="2.31625" stroke-miterlimit="10" stroke-linecap="round" stroke-linejoin="round"/>
<path d="M78.54 78.2598C78.54 78.2598 82.6274 93.2813 87.2576 94.7097C90.0401 95.4918 93.0227 94.575 94.8855 92.3655C86.3257 89.5659 78.54 78.2598 78.54 78.2598Z" fill="#263238"/>
<path d="M82.4074 60.9751C79.5816 62.6971 77.6294 67.843 79.66 70.53C81.6545 73.1698 79.6007 74.8295 78.6739 75.7382C78.5854 75.6659 77.3831 73.0271 76.7931 71.3061C76.1809 69.5187 76.2422 67.9515 75.2399 66.3492C74.6871 65.4645 72.1267 64.0532 71.1194 63.7818C69.6216 63.3766 68.0846 64.9971 67.6141 66.4748C67.1436 67.9536 67.4502 69.5529 67.7599 71.0729C65.7966 68.9126 65.5835 68.3064 65.3875 65.3942C65.2799 63.8049 65.4628 62.1914 65.1633 60.6263C64.8476 58.9787 64.0082 57.4547 63.7901 55.791C63.4071 52.8707 64.9683 50.0862 66.4731 47.5539C67.9207 45.1182 69.4075 42.6352 71.5667 40.7997C73.4154 39.2274 75.6682 38.2111 77.939 37.3557C83.09 35.4155 88.6601 34.1931 94.1015 35.0205C99.5429 35.8478 104.834 38.9962 107.204 43.9642C108.004 45.642 108.459 47.5781 107.956 49.3674C107.439 51.208 105.875 52.7159 104.015 53.1643C102.156 53.6126 100.077 52.9833 98.7779 51.58C99.8958 51.8212 101.109 51.78 102.126 51.2573C103.144 50.7346 103.92 49.672 103.908 48.528C103.891 46.988 102.207 45.6781 100.729 46.1114C99.2504 46.5447 98.5648 48.6527 99.559 49.8288C98.978 49.5383 98.396 49.2488 97.8149 48.9583C97.7305 49.3483 97.647 49.7374 97.5626 50.1274C96.8891 49.6529 96.2146 49.1774 95.541 48.703C95.4928 49.0387 95.4455 49.3735 95.3983 49.7092C94.4694 49.3443 87.9725 49.7464 85.7519 49.9555C84.6401 50.06 83.5393 50.2742 82.4707 50.5979C81.2634 50.9628 80.9136 51.0753 80.6985 52.343C80.0782 55.985 79.3062 58.9324 82.4074 60.9751Z" fill="#263238"/>
<path d="M83.1772 42.9766C82.364 43.6239 82.4876 45.1057 83.3974 45.6093" stroke="#EAECF7" stroke-width="2.31625" stroke-miterlimit="10" stroke-linecap="round" stroke-linejoin="round"/>
<path d="M85.2178 43.418C84.9464 43.7789 84.9323 44.3116 85.1846 44.6866" stroke="#EAECF7" stroke-width="2.31625" stroke-miterlimit="10" stroke-linecap="round" stroke-linejoin="round"/>
<path d="M87.3231 43.4062C87.2045 43.8244 87.0859 44.2426 86.9683 44.6608" stroke="#EAECF7" stroke-width="2.31625" stroke-miterlimit="10" stroke-linecap="round" stroke-linejoin="round"/>
<path d="M92.5883 42.377C91.777 42.9761 91.4001 44.103 91.6876 45.069" stroke="#EAECF7" stroke-width="2.31625" stroke-miterlimit="10" stroke-linecap="round" stroke-linejoin="round"/>
<path d="M93.9971 45.2772C93.8192 43.9965 94.7913 42.6635 96.0659 42.4434" stroke="#EAECF7" stroke-width="2.31625" stroke-miterlimit="10" stroke-linecap="round" stroke-linejoin="round"/>
<path d="M95.9189 45.4879C96.7613 43.6614 98.7266 42.4119 100.738 42.4239" stroke="#EAECF7" stroke-width="2.31625" stroke-miterlimit="10" stroke-linecap="round" stroke-linejoin="round"/>
<path d="M97.5747 46.3748C98.2573 45.1755 99.5309 44.3331 100.901 44.1713C102.271 44.0104 103.706 44.5342 104.648 45.5424" stroke="#EAECF7" stroke-width="2.31625" stroke-miterlimit="10" stroke-linecap="round" stroke-linejoin="round"/>
<path d="M77.6693 44.8945C77.0813 45.6796 77.4733 46.9895 78.3961 47.3222" stroke="#EAECF7" stroke-width="2.31625" stroke-miterlimit="10" stroke-linecap="round" stroke-linejoin="round"/>
<path d="M80.6757 41.8809C79.4372 43.7778 79.9921 46.6176 81.8548 47.9074" stroke="#EAECF7" stroke-width="2.31625" stroke-miterlimit="10" stroke-linecap="round" stroke-linejoin="round"/>
<path d="M75.1013 46.5938C74.8239 47.2602 75.418 48.1167 76.1388 48.0906" stroke="#EAECF7" stroke-width="2.31625" stroke-miterlimit="10" stroke-linecap="round" stroke-linejoin="round"/>
<path d="M72.8051 48.0156C72.6734 48.4519 72.9479 48.9676 73.3831 49.1023" stroke="#EAECF7" stroke-width="2.31625" stroke-miterlimit="10" stroke-linecap="round" stroke-linejoin="round"/>
<path d="M70.7785 49.4551C70.6679 49.7004 70.8499 50.0281 71.1173 50.0622" stroke="#EAECF7" stroke-width="2.31625" stroke-miterlimit="10" stroke-linecap="round" stroke-linejoin="round"/>
<path d="M112.592 124.09C113.085 141.368 111.011 159.448 90.4678 169.002" stroke="#263238" stroke-width="2.31625" stroke-miterlimit="10" stroke-linecap="round" stroke-linejoin="round"/>
<path d="M82.0605 176.889C90.9792 179.323 100.379 180.003 109.552 178.838" stroke="#263238" stroke-width="2.31625" stroke-miterlimit="10" stroke-linecap="round" stroke-linejoin="round"/>
<path d="M74.9756 174.541C76.1507 175.001 77.3389 175.431 78.5382 175.826" stroke="#263238" stroke-width="2.31625" stroke-miterlimit="10" stroke-linecap="round" stroke-linejoin="round"/>
<path d="M183.382 151.443C183.455 150.599 183.094 149.731 182.446 149.185C181.799 148.64 180.881 148.433 180.062 148.648C180.08 148.747 179.84 148.773 179.857 148.871C180.633 149.471 181.249 150.275 181.627 151.179C182.216 151.197 182.795 151.427 183.382 151.443Z" stroke="#263238" stroke-width="2.31625" stroke-miterlimit="10" stroke-linecap="round" stroke-linejoin="round"/>
<path d="M182.315 153.223C182.174 152.429 180.202 148.5 179.553 148.003C175.865 145.175 177.47 144.257 170.329 142.981C170.279 143.062 156.516 146.546 148.992 150.006C148.992 150.006 99.5441 144.155 99.5441 143.683L91.9042 133.65L70.4019 136.998C70.4019 136.998 81.8718 155.625 90.4667 160.4C90.4667 160.4 131.722 159.405 145.052 159.325C152.32 159.284 156.401 163.02 163.549 155.028C163.549 155.028 167.444 158.88 169.77 157.776C171.295 157.357 166.335 153.17 164.636 151.803C165.179 152.115 172.816 157.394 177.068 157.545C178.003 157.575 178.385 156.369 177.601 155.856C177.601 155.856 167.026 149.924 167.503 149.177C167.503 149.177 173.37 151.287 174.309 152.576C178.218 157.951 180.859 156.069 181.23 155.746C181.994 155.082 180.928 154.479 180.928 153.856C180.928 153.856 182.496 154.308 182.315 153.223Z" fill="white" stroke="#263238" stroke-width="2.31625" stroke-miterlimit="10" stroke-linecap="round" stroke-linejoin="round"/>
<path d="M171.207 146.549C173.296 147.376 176.238 148.682 177.634 150.443C180.343 153.858 180.929 153.858 180.929 153.858" stroke="#263238" stroke-width="2.31625" stroke-miterlimit="10" stroke-linecap="round" stroke-linejoin="round"/>
<path d="M61.6844 101.586C61.6844 101.586 55.0356 107.655 56.9074 123.562C57.8634 131.683 67.6566 145.18 67.6566 145.18L94.1711 136.76C94.1711 136.76 87.9004 122.607 81.2717 113.052" stroke="#263238" stroke-width="2.31625" stroke-miterlimit="10"/>
<path d="M85.5752 112.75C87.2902 116.709 88.2773 120.981 88.4723 125.292" stroke="#263238" stroke-width="2.31625" stroke-miterlimit="10" stroke-linecap="round" stroke-linejoin="round"/>
<path d="M100.511 62.1016C100.553 62.1609 97.9386 66.1708 98.7428 67.2294C101.933 71.4273 102.375 76.3973 100.977 76.6224C99.1248 76.921 97.7516 75.4282 96.9756 74.8904" stroke="#263238" stroke-width="2.31625" stroke-linecap="round" stroke-linejoin="round"/>
<path d="M59.773 139.443L65.0284 146.012L94.1707 136.756L90.588 129.41C90.588 129.41 59.2351 139.443 59.773 139.443Z" fill="white" stroke="#263238" stroke-width="2.31625" stroke-miterlimit="10" stroke-linecap="round" stroke-linejoin="round"/>
<path d="M94.7069 97.5227C94.6637 97.3487 98.2896 116.692 98.2896 116.692L95.9072 117.244" stroke="#263238" stroke-width="2.31625" stroke-miterlimit="10" stroke-linecap="round" stroke-linejoin="round"/>
<path d="M116.735 123.129L120.565 121.705L120.803 127.676L116.661 129.219L116.735 123.129Z" fill="white" stroke="#263238" stroke-width="2.31625" stroke-miterlimit="10" stroke-linecap="round" stroke-linejoin="round"/>
<path d="M114.626 112.748C115.462 117.168 116.265 121.891 116.744 129.053L114.626 112.748Z" fill="white"/>
<path d="M114.626 112.748C115.462 117.168 116.265 121.891 116.744 129.053" stroke="#263238" stroke-width="2.31625" stroke-miterlimit="10" stroke-linecap="round" stroke-linejoin="round"/>
<path d="M113.399 106.176C113.617 107.438 113.843 108.646 114.07 109.84L113.399 106.176Z" fill="white"/>
<path d="M113.399 106.176C113.617 107.438 113.843 108.646 114.07 109.84" stroke="#263238" stroke-width="2.31625" stroke-miterlimit="10" stroke-linecap="round" stroke-linejoin="round"/>
<path d="M110.008 463.242V486.525H108.257C107.987 486.525 107.76 486.477 107.576 486.379C107.403 486.282 107.225 486.125 107.041 485.909L93.8916 468.901C93.9132 469.193 93.9294 469.479 93.9402 469.76C93.9618 470.041 93.9726 470.306 93.9726 470.555V486.525H90.9407V463.242H92.7242C93.0268 463.242 93.2538 463.28 93.4051 463.356C93.5565 463.421 93.724 463.578 93.9078 463.826L107.09 480.851C107.057 480.537 107.03 480.234 107.008 479.943C106.998 479.64 106.992 479.359 106.992 479.099V463.242H110.008ZM121.633 469.793C122.844 469.793 123.936 469.993 124.908 470.393C125.892 470.782 126.724 471.349 127.405 472.095C128.097 472.83 128.627 473.722 128.994 474.77C129.362 475.808 129.546 476.975 129.546 478.273C129.546 479.57 129.362 480.742 128.994 481.791C128.627 482.839 128.097 483.731 127.405 484.466C126.724 485.201 125.892 485.769 124.908 486.169C123.936 486.558 122.844 486.752 121.633 486.752C120.412 486.752 119.309 486.558 118.326 486.169C117.353 485.769 116.521 485.201 115.829 484.466C115.137 483.731 114.602 482.839 114.224 481.791C113.856 480.742 113.672 479.57 113.672 478.273C113.672 476.975 113.856 475.808 114.224 474.77C114.602 473.722 115.137 472.83 115.829 472.095C116.521 471.349 117.353 470.782 118.326 470.393C119.309 469.993 120.412 469.793 121.633 469.793ZM121.633 484.288C123.19 484.288 124.352 483.764 125.119 482.715C125.887 481.667 126.27 480.191 126.27 478.289C126.27 476.386 125.887 474.911 125.119 473.862C124.352 472.803 123.19 472.273 121.633 472.273C120.055 472.273 118.877 472.803 118.099 473.862C117.331 474.911 116.948 476.386 116.948 478.289C116.948 480.191 117.331 481.667 118.099 482.715C118.877 483.764 120.055 484.288 121.633 484.288ZM162.241 474.884C162.241 476.624 161.96 478.208 161.398 479.635C160.847 481.061 160.063 482.288 159.047 483.315C158.031 484.331 156.815 485.12 155.399 485.682C153.983 486.244 152.41 486.525 150.681 486.525H141.925V463.242H150.681C152.41 463.242 153.983 463.523 155.399 464.086C156.815 464.648 158.031 465.442 159.047 466.469C160.063 467.485 160.847 468.712 161.398 470.149C161.96 471.576 162.241 473.154 162.241 474.884ZM158.707 474.884C158.707 473.5 158.517 472.263 158.139 471.171C157.761 470.068 157.22 469.139 156.518 468.382C155.826 467.615 154.983 467.031 153.988 466.631C153.005 466.231 151.902 466.031 150.681 466.031H145.395V483.737H150.681C151.902 483.737 153.005 483.537 153.988 483.137C154.983 482.737 155.826 482.158 156.518 481.402C157.22 480.634 157.761 479.705 158.139 478.613C158.517 477.521 158.707 476.278 158.707 474.884ZM174.387 479.213C173.101 479.256 172.009 479.359 171.112 479.521C170.214 479.672 169.485 479.878 168.923 480.137C168.361 480.397 167.955 480.705 167.707 481.061C167.458 481.407 167.334 481.796 167.334 482.229C167.334 482.639 167.399 482.996 167.528 483.299C167.669 483.591 167.853 483.834 168.08 484.028C168.317 484.212 168.593 484.347 168.907 484.434C169.22 484.52 169.561 484.564 169.928 484.564C170.414 484.564 170.858 484.515 171.258 484.418C171.668 484.32 172.052 484.185 172.409 484.012C172.765 483.829 173.106 483.607 173.43 483.347C173.754 483.088 174.073 482.791 174.387 482.456V479.213ZM165.113 472.355C166.031 471.479 167.026 470.825 168.096 470.393C169.177 469.96 170.36 469.744 171.647 469.744C172.587 469.744 173.419 469.901 174.144 470.214C174.868 470.517 175.479 470.944 175.976 471.495C176.473 472.047 176.846 472.706 177.095 473.473C177.354 474.241 177.484 475.089 177.484 476.019V486.525H176.073C175.76 486.525 175.522 486.477 175.36 486.379C175.197 486.271 175.068 486.077 174.971 485.796L174.63 484.353C174.208 484.742 173.792 485.088 173.382 485.39C172.971 485.682 172.538 485.936 172.084 486.152C171.641 486.358 171.166 486.515 170.658 486.623C170.15 486.731 169.588 486.785 168.971 486.785C168.323 486.785 167.712 486.698 167.139 486.525C166.577 486.342 166.085 486.066 165.664 485.698C165.242 485.331 164.907 484.872 164.659 484.32C164.421 483.769 164.302 483.126 164.302 482.391C164.302 481.742 164.475 481.121 164.821 480.526C165.177 479.921 165.75 479.381 166.539 478.905C167.339 478.429 168.377 478.04 169.652 477.738C170.939 477.435 172.517 477.262 174.387 477.219V476.019C174.387 474.776 174.122 473.846 173.592 473.23C173.063 472.614 172.284 472.306 171.258 472.306C170.566 472.306 169.982 472.392 169.506 472.565C169.042 472.738 168.636 472.933 168.29 473.149C167.955 473.354 167.658 473.544 167.399 473.717C167.15 473.889 166.891 473.976 166.62 473.976C166.404 473.976 166.215 473.916 166.053 473.798C165.902 473.679 165.777 473.538 165.68 473.376L165.113 472.355ZM186.65 486.785C185.321 486.785 184.294 486.412 183.57 485.666C182.856 484.92 182.5 483.856 182.5 482.472V472.614H180.587C180.403 472.614 180.246 472.56 180.116 472.452C179.997 472.333 179.938 472.16 179.938 471.933V470.652L182.613 470.279L183.327 465.366C183.37 465.183 183.451 465.042 183.57 464.945C183.7 464.837 183.862 464.783 184.056 464.783H185.661V470.312H190.331V472.614H185.661V482.261C185.661 482.91 185.818 483.396 186.132 483.72C186.456 484.034 186.867 484.191 187.364 484.191C187.656 484.191 187.904 484.153 188.11 484.077C188.326 484.001 188.51 483.92 188.661 483.834C188.812 483.737 188.942 483.65 189.05 483.574C189.158 483.499 189.256 483.461 189.342 483.461C189.45 483.461 189.531 483.488 189.585 483.542C189.65 483.585 189.715 483.661 189.78 483.769L190.72 485.293C190.201 485.769 189.585 486.136 188.872 486.396C188.158 486.655 187.418 486.785 186.65 486.785ZM202.096 479.213C200.81 479.256 199.718 479.359 198.821 479.521C197.924 479.672 197.194 479.878 196.632 480.137C196.07 480.397 195.664 480.705 195.416 481.061C195.167 481.407 195.043 481.796 195.043 482.229C195.043 482.639 195.108 482.996 195.237 483.299C195.378 483.591 195.562 483.834 195.789 484.028C196.027 484.212 196.302 484.347 196.616 484.434C196.929 484.52 197.27 484.564 197.637 484.564C198.124 484.564 198.567 484.515 198.967 484.418C199.377 484.32 199.761 484.185 200.118 484.012C200.474 483.829 200.815 483.607 201.139 483.347C201.464 483.088 201.782 482.791 202.096 482.456V479.213ZM192.822 472.355C193.74 471.479 194.735 470.825 195.805 470.393C196.886 469.96 198.069 469.744 199.356 469.744C200.296 469.744 201.128 469.901 201.853 470.214C202.577 470.517 203.188 470.944 203.685 471.495C204.182 472.047 204.555 472.706 204.804 473.473C205.063 474.241 205.193 475.089 205.193 476.019V486.525H203.782C203.469 486.525 203.231 486.477 203.069 486.379C202.907 486.271 202.777 486.077 202.68 485.796L202.339 484.353C201.918 484.742 201.501 485.088 201.091 485.39C200.68 485.682 200.248 485.936 199.794 486.152C199.35 486.358 198.875 486.515 198.367 486.623C197.859 486.731 197.297 486.785 196.68 486.785C196.032 486.785 195.421 486.698 194.848 486.525C194.286 486.342 193.794 486.066 193.373 485.698C192.951 485.331 192.616 484.872 192.368 484.32C192.13 483.769 192.011 483.126 192.011 482.391C192.011 481.742 192.184 481.121 192.53 480.526C192.886 479.921 193.459 479.381 194.248 478.905C195.048 478.429 196.086 478.04 197.361 477.738C198.648 477.435 200.226 477.262 202.096 477.219V476.019C202.096 474.776 201.831 473.846 201.301 473.23C200.772 472.614 199.993 472.306 198.967 472.306C198.275 472.306 197.691 472.392 197.216 472.565C196.751 472.738 196.345 472.933 195.999 473.149C195.664 473.354 195.367 473.544 195.108 473.717C194.859 473.889 194.6 473.976 194.329 473.976C194.113 473.976 193.924 473.916 193.762 473.798C193.611 473.679 193.486 473.538 193.389 473.376L192.822 472.355ZM221.745 466.047V473.846H231.085V476.651H221.745V486.525H218.276V463.242H232.706V466.047H221.745ZM241.558 469.793C242.769 469.793 243.86 469.993 244.833 470.393C245.817 470.782 246.649 471.349 247.33 472.095C248.022 472.83 248.552 473.722 248.919 474.77C249.287 475.808 249.47 476.975 249.47 478.273C249.47 479.57 249.287 480.742 248.919 481.791C248.552 482.839 248.022 483.731 247.33 484.466C246.649 485.201 245.817 485.769 244.833 486.169C243.86 486.558 242.769 486.752 241.558 486.752C240.337 486.752 239.234 486.558 238.251 486.169C237.278 485.769 236.445 485.201 235.754 484.466C235.062 483.731 234.527 482.839 234.148 481.791C233.781 480.742 233.597 479.57 233.597 478.273C233.597 476.975 233.781 475.808 234.148 474.77C234.527 473.722 235.062 472.83 235.754 472.095C236.445 471.349 237.278 470.782 238.251 470.393C239.234 469.993 240.337 469.793 241.558 469.793ZM241.558 484.288C243.115 484.288 244.277 483.764 245.044 482.715C245.812 481.667 246.195 480.191 246.195 478.289C246.195 476.386 245.812 474.911 245.044 473.862C244.277 472.803 243.115 472.273 241.558 472.273C239.98 472.273 238.802 472.803 238.024 473.862C237.256 474.911 236.872 476.386 236.872 478.289C236.872 480.191 237.256 481.667 238.024 482.715C238.802 483.764 239.98 484.288 241.558 484.288ZM266.7 470.052V486.525H264.803C264.371 486.525 264.09 486.315 263.96 485.893L263.733 484.239C263.377 484.618 263.004 484.963 262.615 485.277C262.225 485.59 261.809 485.861 261.366 486.088C260.923 486.304 260.453 486.471 259.955 486.59C259.458 486.72 258.923 486.785 258.35 486.785C257.442 486.785 256.642 486.633 255.951 486.331C255.27 486.028 254.697 485.607 254.232 485.066C253.767 484.515 253.416 483.856 253.178 483.088C252.94 482.321 252.821 481.472 252.821 480.543V470.052H255.999V480.543C255.999 481.721 256.27 482.639 256.81 483.299C257.35 483.947 258.177 484.272 259.291 484.272C260.101 484.272 260.858 484.083 261.561 483.704C262.263 483.315 262.923 482.785 263.539 482.115V470.052H266.7ZM274.081 472.338C274.437 471.96 274.81 471.614 275.199 471.301C275.589 470.987 275.999 470.722 276.432 470.506C276.875 470.279 277.345 470.106 277.842 469.987C278.35 469.858 278.891 469.793 279.464 469.793C280.372 469.793 281.166 469.944 281.847 470.247C282.539 470.549 283.117 470.976 283.582 471.528C284.047 472.068 284.398 472.722 284.636 473.49C284.874 474.257 284.993 475.105 284.993 476.035V486.525H281.815V476.035C281.815 474.857 281.544 473.944 281.004 473.295C280.463 472.636 279.637 472.306 278.523 472.306C277.713 472.306 276.951 472.5 276.237 472.89C275.535 473.268 274.881 473.787 274.275 474.446V486.525H271.114V470.052H273.011C273.454 470.052 273.729 470.263 273.837 470.685L274.081 472.338ZM299.879 474.041C299.36 473.36 298.798 472.884 298.193 472.614C297.598 472.344 296.928 472.209 296.182 472.209C294.734 472.209 293.61 472.733 292.81 473.781C292.021 474.819 291.626 476.338 291.626 478.337C291.626 479.386 291.713 480.283 291.886 481.029C292.069 481.764 292.329 482.369 292.664 482.845C293.01 483.31 293.431 483.656 293.929 483.883C294.426 484.099 294.988 484.207 295.615 484.207C296.534 484.207 297.328 484.001 297.998 483.591C298.668 483.18 299.295 482.602 299.879 481.856V474.041ZM303.057 462.594V486.525H301.144C300.701 486.525 300.425 486.315 300.317 485.893L300.041 483.996C299.339 484.828 298.539 485.499 297.642 486.007C296.755 486.504 295.728 486.752 294.561 486.752C293.621 486.752 292.767 486.569 291.999 486.201C291.243 485.834 290.594 485.299 290.054 484.596C289.513 483.883 289.097 483.002 288.805 481.953C288.513 480.905 288.367 479.699 288.367 478.337C288.367 477.116 288.529 475.981 288.854 474.933C289.178 473.884 289.648 472.976 290.264 472.209C290.88 471.441 291.626 470.841 292.502 470.409C293.377 469.966 294.366 469.744 295.469 469.744C296.463 469.744 297.306 469.906 297.998 470.231C298.701 470.555 299.328 471.014 299.879 471.609V462.594H303.057Z" fill="#4F4F4F"/>
<defs>
<clipPath id="clip0_729_75068">
<rect width="46.6478" height="46.6478" fill="white" transform="translate(269.149 263.689)"/>
</clipPath>
</defs>
</svg>
