<svg width="155" height="115" viewBox="0 0 155 115" fill="none" xmlns="http://www.w3.org/2000/svg">
<g opacity="0.5" clip-path="url(#clip0_813_114238)">
<path d="M42.75 -1.61719V42.5738H0C0 18.1804 19.152 -1.61719 42.75 -1.61719Z" fill="#3384FE"/>
<path d="M85.5 42.5742V86.7652H42.75C42.75 62.3718 61.902 42.5742 85.5 42.5742Z" fill="#55B794"/>
<path d="M85.5 -1.61719V42.5738H128.25C128.25 18.1804 109.098 -1.61719 85.5 -1.61719Z" fill="#55B794"/>
<path d="M85.5 86.7656V130.957H128.25C128.25 106.563 109.098 86.7656 85.5 86.7656Z" fill="#00D1FF"/>
<path d="M128.25 42.5742V86.7652C104.652 86.7652 85.5 66.9677 85.5 42.5742H128.25Z" fill="#00D1FF"/>
<path d="M85.5 86.7656V130.957C61.902 130.957 42.75 111.159 42.75 86.7656H85.5Z" fill="#3384FE"/>
<path d="M42.75 42.5742V86.7652C19.152 86.7652 0 66.9677 0 42.5742H42.75Z" fill="#00D1FF"/>
<path d="M171 -1.61719V42.5738C147.402 42.5738 128.25 22.7762 128.25 -1.61719H171Z" fill="#55B794"/>
<path d="M42.75 -1.61719V42.5738C66.348 42.5738 85.5 22.7762 85.5 -1.61719H42.75Z" fill="#00D1FF"/>
<path d="M128.25 86.7656V130.957C151.848 130.957 171 111.159 171 86.7656H128.25Z" fill="#55B794"/>
<path d="M128.25 42.5742C151.848 42.5742 171 62.3718 171 86.7652H128.25V42.5742Z" fill="#3384FE"/>
</g>
<defs>
<clipPath id="clip0_813_114238">
<rect width="171" height="220.955" fill="white" transform="translate(0 -90)"/>
</clipPath>
</defs>
</svg>
