<svg width="36" height="36" viewBox="0 0 36 36" fill="none" xmlns="http://www.w3.org/2000/svg">
<rect width="36" height="36" rx="5" fill="#F4F4F4"/>
<path d="M13.5149 25.0806C17.4333 25.0806 20.6099 21.904 20.6099 17.9856C20.6099 14.0671 17.4333 10.8906 13.5149 10.8906C9.59645 10.8906 6.41992 14.0671 6.41992 17.9856C6.41992 21.904 9.59645 25.0806 13.5149 25.0806Z" fill="#FF6041"/>
<path d="M22.4524 25.0806C26.3708 25.0806 29.5474 21.904 29.5474 17.9856C29.5474 14.0671 26.3708 10.8906 22.4524 10.8906C18.5339 10.8906 15.3574 14.0671 15.3574 17.9856C15.3574 21.904 18.5339 25.0806 22.4524 25.0806Z" fill="#FFD941"/>
<path fill-rule="evenodd" clip-rule="evenodd" d="M17.9839 12.5263C18.8029 13.1882 19.4635 14.0249 19.9173 14.9751C20.3712 15.9253 20.6067 16.965 20.6067 18.0181C20.6067 19.0711 20.3712 20.1108 19.9173 21.0611C19.4635 22.0113 18.8029 22.848 17.9839 23.5099C17.1587 22.8483 16.4927 22.0098 16.0351 21.0563C15.5774 20.1028 15.3398 19.0586 15.3398 18.001C15.3398 16.9434 15.5774 15.8993 16.0351 14.9458C16.4927 13.9923 17.1587 13.1879 17.9839 12.5263Z" fill="#FFD941"/>
<mask id="mask0_850_149467" style="mask-type:luminance" maskUnits="userSpaceOnUse" x="15" y="12" width="6" height="12">
<path d="M17.9839 12.5263C18.8029 13.1882 19.4635 14.0249 19.9173 14.9751C20.3712 15.9253 20.6067 16.965 20.6067 18.0181C20.6067 19.0711 20.3712 20.1108 19.9173 21.0611C19.4635 22.0113 18.8029 22.848 17.9839 23.5099C17.1587 22.8483 16.4927 22.0098 16.0351 21.0563C15.5774 20.1028 15.3398 19.0586 15.3398 18.001C15.3398 16.9434 15.5774 15.8993 16.0351 14.9458C16.4927 13.9923 17.1587 13.1879 17.9839 12.5263Z" fill="white"/>
</mask>
<g mask="url(#mask0_850_149467)">
<path fill-rule="evenodd" clip-rule="evenodd" d="M14.0605 13.8906H22.5199V14.8116H14.0605V13.8906ZM14.0605 15.6985H22.5199V16.6195H14.0605V15.6985ZM14.0605 17.5404H22.5199V18.4614H14.0605V17.5404ZM14.0605 19.3483H22.5199V20.2693H14.0605V19.3483ZM14.0605 21.1561H22.5199V22.0771H14.0605V21.1561Z" fill="#FF6041"/>
</g>
</svg>
