<svg width="50" height="50" viewBox="0 0 50 50" fill="none" xmlns="http://www.w3.org/2000/svg">
<circle opacity="0.1" cx="25" cy="25" r="25" fill="#34B6EB"/>
<path d="M30 15.3125C30 16.8625 28.7375 18.125 27.1875 18.125H22.8125C22.0375 18.125 21.3375 17.8125 20.825 17.3C20.3125 16.7875 20 16.0875 20 15.3125C20 13.7625 21.2625 12.5 22.8125 12.5H27.1875C27.9625 12.5 28.6625 12.8125 29.175 13.325C29.6875 13.8375 30 14.5375 30 15.3125Z" fill="#4BC0F0"/>
<path d="M33.5375 16.2889C33.25 16.0514 32.925 15.8639 32.575 15.7264C32.2125 15.5889 31.85 15.8764 31.775 16.2514C31.35 18.3889 29.4625 20.0014 27.1875 20.0014H22.8125C21.5625 20.0014 20.3875 19.5139 19.5 18.6264C18.85 17.9764 18.4 17.1514 18.225 16.2639C18.15 15.8889 17.775 15.5889 17.4125 15.7389C15.9625 16.3264 15 17.6514 15 20.3139V32.5014C15 36.2514 17.2375 37.5014 20 37.5014H30C32.7625 37.5014 35 36.2514 35 32.5014V20.3139C35 18.2764 34.4375 17.0264 33.5375 16.2889ZM20 25.3139H25C25.5125 25.3139 25.9375 25.7389 25.9375 26.2514C25.9375 26.7639 25.5125 27.1889 25 27.1889H20C19.4875 27.1889 19.0625 26.7639 19.0625 26.2514C19.0625 25.7389 19.4875 25.3139 20 25.3139ZM30 32.1889H20C19.4875 32.1889 19.0625 31.7639 19.0625 31.2514C19.0625 30.7389 19.4875 30.3139 20 30.3139H30C30.5125 30.3139 30.9375 30.7389 30.9375 31.2514C30.9375 31.7639 30.5125 32.1889 30 32.1889Z" fill="#4BC0F0"/>
</svg>
