<svg width="50" height="50" viewBox="0 0 50 50" fill="none" xmlns="http://www.w3.org/2000/svg">
<circle opacity="0.1" cx="25" cy="25" r="25" fill="#923AE3"/>
<g clip-path="url(#clip0_1002_130249)">
<path d="M27.5 28.75C27.5 29.0944 27.2194 29.375 26.875 29.375C26.5306 29.375 26.25 29.0944 26.25 28.75C26.25 28.4056 26.5306 28.125 26.875 28.125C27.2194 28.125 27.5 28.4056 27.5 28.75ZM23.125 20.625C22.7806 20.625 22.5 20.9056 22.5 21.25C22.5 21.5944 22.7806 21.875 23.125 21.875C23.4694 21.875 23.75 21.5944 23.75 21.25C23.75 20.9056 23.4694 20.625 23.125 20.625ZM21.25 26.25C20.9056 26.25 20.625 26.5306 20.625 26.875C20.625 27.2194 20.9056 27.5 21.25 27.5C21.5944 27.5 21.875 27.2194 21.875 26.875C21.875 26.5306 21.5944 26.25 21.25 26.25ZM28.75 22.5C28.4056 22.5 28.125 22.7806 28.125 23.125C28.125 23.4694 28.4056 23.75 28.75 23.75C29.0944 23.75 29.375 23.4694 29.375 23.125C29.375 22.7806 29.0944 22.5 28.75 22.5ZM39.375 25C39.375 26.3787 38.2537 27.5 36.875 27.5C35.7138 27.5 34.7431 26.7 34.4637 25.625H33.7181C33.5853 27.508 32.8436 29.2968 31.605 30.7212L32.5788 31.695C32.943 31.5142 33.3546 31.452 33.756 31.517C34.1574 31.582 34.5283 31.771 34.8169 32.0575C35.5775 32.8181 35.5775 34.0556 34.8169 34.8162C34.0562 35.5769 32.8188 35.5769 32.0581 34.8162C31.7717 34.5278 31.5826 34.157 31.5175 33.7558C31.4524 33.3545 31.5144 32.9429 31.695 32.5788L30.7212 31.605C29.2967 32.8436 27.508 33.5852 25.625 33.7181V34.4637C26.7 34.7431 27.5 35.7138 27.5 36.875C27.5 38.2537 26.3787 39.375 25 39.375C23.6213 39.375 22.5 38.2537 22.5 36.875C22.5 35.7138 23.3 34.7431 24.375 34.4637V33.7181C22.492 33.5853 20.7032 32.8436 19.2787 31.605L18.305 32.5788C18.4858 32.943 18.548 33.3546 18.483 33.756C18.418 34.1574 18.229 34.5283 17.9425 34.8169C17.1819 35.5775 15.9444 35.5775 15.1837 34.8169C14.4231 34.0562 14.4231 32.8188 15.1837 32.0581C15.4722 31.7717 15.843 31.5826 16.2442 31.5175C16.6455 31.4524 17.057 31.5144 17.4212 31.695L18.395 30.7212C17.1564 29.2968 16.4147 27.508 16.2819 25.625H15.5363C15.2569 26.7 14.2863 27.5 13.125 27.5C11.7462 27.5 10.625 26.3787 10.625 25C10.625 23.6213 11.7462 22.5 13.125 22.5C14.2863 22.5 15.2569 23.3 15.5363 24.375H16.2819C16.4147 22.492 17.1564 20.7032 18.395 19.2787L17.4212 18.305C17.057 18.4858 16.6454 18.548 16.244 18.483C15.8426 18.418 15.4717 18.229 15.1831 17.9425C14.4225 17.1819 14.4225 15.9444 15.1831 15.1837C15.9438 14.4231 17.1812 14.4231 17.9419 15.1837C18.2283 15.4722 18.4174 15.843 18.4825 16.2442C18.5476 16.6455 18.4856 17.057 18.305 17.4212L19.2787 18.395C20.7033 17.1564 22.492 16.4148 24.375 16.2819V15.5363C23.3 15.2569 22.5 14.2863 22.5 13.125C22.5 11.7462 23.6213 10.625 25 10.625C26.3787 10.625 27.5 11.7462 27.5 13.125C27.5 14.2863 26.7 15.2569 25.625 15.5363V16.2819C27.508 16.4147 29.2968 17.1564 30.7212 18.395L31.695 17.4212C31.5142 17.057 31.452 16.6454 31.517 16.244C31.582 15.8426 31.771 15.4717 32.0575 15.1831C32.8181 14.4225 34.0556 14.4225 34.8162 15.1831C35.5769 15.9438 35.5769 17.1812 34.8162 17.9419C34.5278 18.2283 34.157 18.4174 33.7558 18.4825C33.3545 18.5476 32.9429 18.4856 32.5788 18.305L31.605 19.2787C32.8436 20.7032 33.5853 22.492 33.7181 24.375H34.4637C34.7431 23.3 35.7138 22.5 36.875 22.5C38.2537 22.5 39.375 23.6213 39.375 25ZM23.125 26.875C23.125 25.8413 22.2837 25 21.25 25C20.2163 25 19.375 25.8413 19.375 26.875C19.375 27.9088 20.2163 28.75 21.25 28.75C22.2837 28.75 23.125 27.9088 23.125 26.875ZM25 21.25C25 20.2163 24.1587 19.375 23.125 19.375C22.0913 19.375 21.25 20.2163 21.25 21.25C21.25 22.2837 22.0913 23.125 23.125 23.125C24.1587 23.125 25 22.2837 25 21.25ZM28.75 28.75C28.75 27.7162 27.9088 26.875 26.875 26.875C25.8413 26.875 25 27.7162 25 28.75C25 29.7838 25.8413 30.625 26.875 30.625C27.9088 30.625 28.75 29.7838 28.75 28.75ZM30.625 23.125C30.625 22.0913 29.7838 21.25 28.75 21.25C27.7162 21.25 26.875 22.0913 26.875 23.125C26.875 24.1587 27.7162 25 28.75 25C29.7838 25 30.625 24.1587 30.625 23.125Z" fill="#B269F5"/>
</g>
<defs>
<clipPath id="clip0_1002_130249">
<rect width="30" height="30" fill="white" transform="translate(10 10)"/>
</clipPath>
</defs>
</svg>
