<svg width="50" height="50" viewBox="0 0 50 50" fill="none" xmlns="http://www.w3.org/2000/svg">
<circle cx="25" cy="25" r="25" fill="#E9F9FF"/>
<path d="M36.1981 19.7904V34.3737C36.1981 35.3737 35.3752 36.1966 34.3752 36.1966H32.5522V17.9674H34.3752C35.3752 17.9674 36.1981 18.7904 36.1981 19.7904ZM15.6252 17.9674C14.6252 17.9674 13.8022 18.7904 13.8022 19.7904V34.3737C13.8022 35.3737 14.6252 36.1966 15.6252 36.1966H17.4481V17.9674H15.6252ZM26.3022 30.207V36.1966H23.6981V30.207C23.6981 30.0612 23.8127 29.9466 23.9585 29.9466H26.0418C26.1877 29.9466 26.3022 30.0612 26.3022 30.207ZM30.9897 15.8841V35.4154C30.9897 35.8424 30.6356 36.1966 30.2085 36.1966H27.8647V30.207C27.8647 29.1966 27.0522 28.3841 26.0418 28.3841H23.9585C22.9481 28.3841 22.1356 29.1966 22.1356 30.207V36.1966H19.7918C19.3647 36.1966 19.0106 35.8424 19.0106 35.4154V15.8841C19.0106 14.7383 19.9481 13.8008 21.0939 13.8008H28.9064C30.0522 13.8008 30.9897 14.7383 30.9897 15.8841ZM27.8647 20.832C27.8647 20.4049 27.5106 20.0508 27.0835 20.0508H25.7814V18.7487C25.7814 18.3216 25.4272 17.9674 25.0002 17.9674C24.5731 17.9674 24.2189 18.3216 24.2189 18.7487V20.0508H22.9168C22.4897 20.0508 22.1356 20.4049 22.1356 20.832C22.1356 21.2591 22.4897 21.6133 22.9168 21.6133H24.2189V22.9154C24.2189 23.3424 24.5731 23.6966 25.0002 23.6966C25.4272 23.6966 25.7814 23.3424 25.7814 22.9154V21.6133H27.0835C27.5106 21.6133 27.8647 21.2591 27.8647 20.832Z" fill="#36AAD6"/>
</svg>
