<svg width="50" height="50" viewBox="0 0 50 50" fill="none" xmlns="http://www.w3.org/2000/svg">
<circle opacity="0.1" cx="25" cy="25" r="25" fill="#80CB0F"/>
<path d="M20.6021 36.6537H22.4173V30.1036H20.6741V36.1754C20.6741 36.3418 20.6488 36.5023 20.6021 36.6537ZM17.4263 36.6537H17.4909C17.4783 36.6127 17.468 36.5707 17.4586 36.5284C17.4492 36.5707 17.439 36.6127 17.4263 36.6537ZM14.2431 36.1754V30.1036H12.5V36.6537H14.3151C14.2673 36.4987 14.2431 36.3375 14.2431 36.1754ZM13.6041 20.3274C13.7957 20.1318 14.01 19.6867 14.0155 18.681C13.8609 18.7512 13.71 18.8292 13.5632 18.9146C13.4279 18.9748 13.3105 19.069 13.2224 19.1881C13.1343 19.3072 13.0785 19.447 13.0605 19.594C13.055 19.639 13.015 19.9714 12.9653 20.5306C12.9993 20.5255 13.0356 20.5226 13.0756 20.5235C13.2999 20.5288 13.4678 20.4665 13.6041 20.3274ZM14.2431 28.5446C14.2431 27.6472 14.9733 26.917 15.8707 26.917C16.6468 26.917 17.2968 27.4635 17.4586 28.1916C17.6204 27.4635 18.2704 26.917 19.0465 26.917C19.9439 26.917 20.6741 27.6472 20.6741 28.5446V29.0198C20.8317 29.1615 21.0364 29.2397 21.2484 29.2393C21.4692 29.2391 21.6815 29.154 21.8413 29.0016C22.0011 28.8492 22.0961 28.6412 22.1068 28.4206C22.3391 23.6059 21.8764 19.7556 21.8565 19.5939C21.8385 19.4469 21.7827 19.3071 21.6947 19.1881C21.6067 19.069 21.4893 18.9747 21.3541 18.9144C20.8969 18.6459 19.563 17.9883 17.4587 17.9883C17.0203 17.9883 16.6161 18.0173 16.2454 18.0649C16.2191 18.9741 16.1626 19.9753 15.5478 20.6444C14.6131 21.6619 13.6633 21.5548 13.2983 21.4615C13.1631 21.427 13.0216 21.3713 12.9033 21.2965C12.7858 22.8967 12.6682 25.4774 12.8102 28.4205C12.818 28.5828 12.8718 28.7396 12.9651 28.8727C13.0584 29.0058 13.1876 29.1097 13.3375 29.1724C13.4875 29.2351 13.6522 29.254 13.8124 29.2269C13.9727 29.1999 14.122 29.128 14.2431 29.0195V28.5446ZM20.318 21.7385C20.4087 23.1 20.4528 24.4641 20.4505 25.8286C20.2075 25.2878 19.9447 24.7712 19.8779 23.9824C19.8257 23.3702 20.0338 22.5422 20.318 21.7385ZM14.5992 21.7378C14.8836 22.5418 15.0918 23.3701 15.0397 23.9826C14.9726 24.7716 14.7097 25.2882 14.4667 25.8293C14.4642 24.4644 14.5084 23.0997 14.5992 21.7378Z" fill="#8BD024"/>
<path d="M14.5473 36.1764C14.5473 36.9072 15.1398 37.4996 15.8705 37.4996C16.6012 37.4996 17.1938 36.9072 17.1938 36.1764V28.5456C17.1938 27.8148 16.6012 27.2224 15.8705 27.2224C15.1398 27.2224 14.5473 27.8148 14.5473 28.5456V36.1764ZM17.7231 36.1764C17.7231 36.9072 18.3156 37.4996 19.0463 37.4996C19.777 37.4996 20.3695 36.9072 20.3695 36.1764V28.5456C20.3695 27.8148 19.777 27.2224 19.0463 27.2224C18.3156 27.2224 17.7231 27.8148 17.7231 28.5456V36.1764ZM15.3236 20.4397C16.0343 19.6661 15.9008 18.302 15.9715 17.2722C15.4712 17.0027 15.0524 16.6038 14.759 16.1172C14.4538 16.5954 14.2679 17.2775 14.3115 18.2579C14.4099 20.475 13.669 20.843 13.0681 20.8289C12.4673 20.8147 13.957 21.9272 15.3236 20.4397Z" fill="#8BD024"/>
<path d="M17.4587 17.3423C19.03 17.3423 20.3037 16.0686 20.3037 14.4973C20.3037 12.9261 19.03 11.6523 17.4587 11.6523C15.8875 11.6523 14.6138 12.9261 14.6138 14.4973C14.6138 16.0686 15.8875 17.3423 17.4587 17.3423Z" fill="#8BD024"/>
<path d="M30.4407 17.1743C30.9236 16.2496 31.0396 15.3138 31.0613 14.7709C30.7878 14.6935 30.5862 14.4447 30.5862 14.1463C30.5862 13.9734 30.6549 13.8076 30.7771 13.6854C30.8994 13.5632 31.0652 13.4945 31.2381 13.4945C31.4109 13.4945 31.5767 13.5632 31.699 13.6854C31.8212 13.8076 31.8899 13.9734 31.8899 14.1463C31.8899 14.4275 31.7108 14.6649 31.4613 14.7565C31.4442 15.3071 31.3365 16.2439 30.8707 17.2045C32.5114 17.2004 33.8403 15.8692 33.8403 14.2273C33.8403 12.5829 32.5073 11.25 30.863 11.25C29.2185 11.25 27.8857 12.5829 27.8857 14.2273C27.8859 15.7281 28.9963 16.9691 30.4407 17.1743ZM29.4186 29.9799H36.7626V36.5299H29.4186V29.9799Z" fill="#8BD024"/>
<path d="M32.4025 18.7151C32.6418 18.5261 32.9381 18.4236 33.2431 18.4245C33.665 18.4245 34.0562 18.6148 34.3161 18.9464C34.7799 19.5378 34.6762 20.3961 34.085 20.8599L31.7181 22.7162C31.8962 23.7287 32.0399 24.8126 32.0427 25.8654H30.9268C30.9633 25.7542 31.001 25.644 31.0398 25.5346C31.1352 25.2646 31.2368 24.9997 31.3449 24.7406C31.2788 24.1953 31.2425 23.6474 31.2303 23.0989L30.2489 23.8686C30.1823 23.9209 30.1107 23.9657 30.0361 24.0045C30.0103 24.264 29.9925 24.5241 29.9826 24.7847C30.1036 25.0377 30.2307 25.2878 30.3637 25.5347C30.4237 25.646 30.4851 25.7561 30.5471 25.8655H27.1801C26.3118 25.8655 25.5913 26.5369 25.5302 27.403L24.9568 35.5203C24.8925 36.4316 25.5789 37.2224 26.4902 37.2868C26.5299 37.2896 26.5693 37.2911 26.6085 37.2911C27.469 37.2911 28.1952 36.6251 28.2567 35.7535L28.7216 29.1736H33.7289C33.7965 29.1736 33.8627 29.1683 33.9282 29.1605C35.0659 29.126 36.3163 28.7751 36.6945 26.8294C37.0367 23.8898 36.8431 22.1522 35.9427 19.4827C35.2764 17.5451 33.6389 16.9316 32.5092 17.2133C32.0182 17.3357 31.6469 17.7031 31.415 18.1873C31.4038 18.1901 31.394 18.1972 31.3879 18.2071C31.1742 18.5433 30.9478 19.2118 30.7406 20.019L32.4025 18.7151ZM23.4241 21.1413C23.4229 20.9813 23.4499 20.8223 23.5038 20.6716C23.5153 20.6398 23.5281 20.6085 23.5417 20.5778C23.4387 20.5565 23.3434 20.5076 23.2658 20.4365C23.1883 20.3653 23.1315 20.2745 23.1014 20.1737C23.0713 20.0729 23.069 19.9658 23.0949 19.8638C23.1207 19.7618 23.1737 19.6687 23.2482 19.5943C23.3226 19.52 23.4158 19.4672 23.5179 19.4415C23.6199 19.4159 23.727 19.4183 23.8278 19.4486C23.9286 19.4788 24.0193 19.5358 24.0903 19.6135C24.1613 19.6911 24.21 19.7865 24.2312 19.8896C24.3813 19.8221 24.5424 19.7826 24.7067 19.7729C25.1108 19.6407 25.665 19.7306 26.2472 19.8258C26.6621 19.8937 27.1011 19.9654 27.5332 19.9654C28.0892 19.9654 28.6335 19.8465 29.0988 19.4469C29.5738 19.0392 29.9118 18.3677 30.1196 17.4231C29.9916 17.3936 29.8656 17.3564 29.7421 17.3117C29.5564 18.1787 29.2576 18.7873 28.8403 19.1457C28.1538 19.7351 27.2172 19.5822 26.3114 19.434C25.6481 19.3256 25.0169 19.2226 24.5113 19.4201C24.3113 19.104 23.9596 18.8933 23.5579 18.8933C23.2587 18.8933 22.9717 19.0122 22.7601 19.2238C22.5486 19.4354 22.4297 19.7223 22.4297 20.0215C22.4293 20.5994 22.864 21.0751 23.4241 21.1413Z" fill="#8BD024"/>
<path d="M23.7901 20.7762C23.695 21.0404 23.7088 21.3315 23.8283 21.5855C23.9479 21.8395 24.1635 22.0356 24.4276 22.1307L29.0493 23.7937C29.218 23.8544 29.3993 23.8713 29.5762 23.8428C29.7532 23.8143 29.92 23.7413 30.0611 23.6307L33.897 20.6221C34.1179 20.4488 34.2609 20.1948 34.2946 19.9161C34.3283 19.6374 34.2499 19.3567 34.0766 19.1358C33.9908 19.0264 33.8843 18.935 33.7632 18.8667C33.642 18.7985 33.5087 18.7548 33.3707 18.7381C33.2326 18.7214 33.0927 18.7321 32.9588 18.7695C32.8249 18.8069 32.6997 18.8703 32.5903 18.9561L29.2152 21.6034L25.1447 20.1385C25.0139 20.0914 24.875 20.0705 24.7362 20.0771C24.5973 20.0836 24.461 20.1175 24.3352 20.1767C24.2094 20.2359 24.0966 20.3193 24.003 20.4222C23.9095 20.5251 23.8371 20.6454 23.7901 20.7762Z" fill="#8BD024"/>
</svg>
