<svg width="50" height="50" viewBox="0 0 50 50" fill="none" xmlns="http://www.w3.org/2000/svg">
<circle opacity="0.1" cx="25" cy="25" r="25" fill="#33C6AC"/>
<path d="M21.0019 35.7498C21.3487 35.7498 21.7037 35.7477 22.0664 35.7477H28.9332C29.2954 35.7477 29.6504 35.7498 29.9972 35.7498C33.1744 35.7498 35.6022 35.5873 35.6022 32.2658C35.6022 28.7893 32.9434 25.9353 29.5479 25.625C29.5209 26.8412 25.5009 29.8428 25.5009 29.8428C25.5009 29.8428 21.4799 26.8415 21.4527 25.6252C18.0577 25.9352 15.3984 28.7893 15.3984 32.2658C15.3984 35.5873 17.8252 35.7498 21.0019 35.7498ZM28.5002 31.214C28.5002 31.115 28.5894 31.0352 28.7004 31.0352H29.7864V29.9498C29.7864 29.8398 29.8657 29.7495 29.9647 29.7495H31.0364C31.1349 29.7495 31.2147 29.839 31.2147 29.9498V31.0355H32.3002C32.4102 31.0355 32.5002 31.1153 32.5002 31.2143V32.2855C32.5002 32.3845 32.4109 32.4643 32.3002 32.4643H31.2144V33.5497C31.2144 33.6602 31.1344 33.7498 31.0357 33.7498H29.9644C29.8654 33.7498 29.7857 33.6605 29.7857 33.5497V32.464H28.7002C28.5897 32.464 28.4999 32.3842 28.4999 32.2852L28.5002 31.214Z" fill="#3AB49B"/>
<path d="M25.5021 26.498C28.5731 26.498 31.0624 21.8802 31.0624 18.8095C31.0624 15.7393 28.5731 13.25 25.5021 13.25C22.4316 13.25 19.9424 15.7393 19.9424 18.8095C19.9424 21.8802 22.4316 26.498 25.5021 26.498Z" fill="#3AB49B"/>
</svg>
