<svg width="76" height="49" viewBox="0 0 76 49" fill="none" xmlns="http://www.w3.org/2000/svg">
<path d="M19.9707 48.3357C16.8429 46.5848 13.8562 44.5423 11.1293 42.1441C9.75995 40.9515 8.48624 39.6414 7.29543 38.2482C6.10981 36.851 5.01815 35.3564 4.07542 33.7578L3.40609 32.5364L2.80646 31.2988C2.42764 30.4447 2.06353 29.5309 1.77822 28.6519C1.19288 26.8679 0.79263 25.0158 0.601702 23.1279C0.244092 19.3607 0.75518 15.4115 2.41919 11.8261L3.09523 10.5082L3.88059 9.24463L3.93016 9.16568L4.02325 9.03939L4.12239 8.90473L4.32046 8.63519L4.71682 8.09609C5.0569 7.7022 5.40087 7.2937 5.75091 6.91874C7.12485 5.47786 8.71418 4.25684 10.4314 3.27438C12.1481 2.28741 14.0024 1.55794 15.9147 1.06101C17.8287 0.569241 19.8096 0.311958 21.8014 0.333255C22.2991 0.341214 22.7972 0.376924 23.295 0.399942L24.7079 0.557192C25.2151 0.643886 25.7401 0.722194 26.2321 0.824806C26.7114 0.940111 27.198 1.03368 27.671 1.17071C29.5738 1.68679 31.4045 2.42831 33.1218 3.35914C36.5572 5.21907 39.5815 7.77298 41.967 10.8372L38.5214 10.5865C39.8441 9.34723 41.2985 8.26174 42.8472 7.34016C44.396 6.4203 46.0405 5.65899 47.7574 5.10828C51.1798 4.00536 54.8695 3.5678 58.4837 4.13809C58.9368 4.18369 59.3815 4.30158 59.8291 4.3872C60.2783 4.46873 60.7192 4.58985 61.1576 4.7215L61.8161 4.91187L61.8984 4.93576L61.9395 4.94781L62.0612 4.98975L62.2047 5.04418L62.4919 5.15281L63.0662 5.37008L63.3528 5.48023L63.6793 5.63059C64.1137 5.83689 64.5618 6.03997 64.9788 6.25832L66.1611 6.94541C66.9212 7.44427 67.6717 7.95648 68.3603 8.54333C71.1538 10.8378 73.3066 13.8646 74.5113 17.2553C75.1152 18.9478 75.48 20.7318 75.5575 22.5361L75.5451 23.89L75.5428 24.0589L75.5354 24.1884L75.5285 24.2646L75.4997 24.5687L75.4358 25.1795C75.3001 26.1174 75.1334 26.9876 74.8834 27.8308C74.3983 29.5273 73.703 31.1413 72.831 32.6308C71.9606 34.1212 70.9562 35.5164 69.8165 36.7798C67.5281 39.3038 64.8603 41.3793 62.0363 43.1132C59.2202 44.8643 56.277 46.3271 53.3166 47.743C56.03 45.9009 58.7743 44.1043 61.3208 42.1023C63.8568 40.0998 66.2369 37.9193 68.1042 35.3934C69.0276 34.1263 69.8652 32.8098 70.5334 31.4235C71.211 30.0429 71.7039 28.5936 72.0069 27.1295C72.1688 26.3953 72.2442 25.651 72.2996 24.9721L72.3178 24.3642L72.3288 24.0589L72.3316 23.9825L72.3332 23.9444C72.3357 23.893 72.3308 23.9931 72.3308 23.9767L72.3299 23.9597L72.3232 23.8233L72.2756 22.7346C72.1323 21.2862 71.7601 19.8623 71.1956 18.5146C70.6287 17.1684 69.8829 15.8893 68.9681 14.739C68.0466 13.5946 66.9904 12.562 65.8345 11.6697C65.2617 11.2145 64.6406 10.8305 64.0209 10.4521L63.0606 9.94139L62.1345 9.53267L61.9016 9.42984L61.6111 9.33023L61.031 9.12845L60.7409 9.02756L60.5959 8.97701L60.5777 8.97078C60.4961 8.94281 60.6684 9.00154 60.6448 8.99423L60.6119 8.98584L60.5461 8.96906L60.0198 8.83438C59.6709 8.73865 59.3202 8.65002 58.9598 8.59797C58.6011 8.54182 58.2495 8.45105 57.8846 8.42846C54.9973 8.05888 52.0067 8.46373 49.2209 9.40402C47.8219 9.87148 46.4938 10.5328 45.232 11.2818C43.9739 12.0401 42.7987 12.9279 41.7397 13.9284L39.886 15.6804L38.2939 13.6778C36.2712 11.1336 33.7508 8.95529 30.9016 7.4004C29.4772 6.62575 27.9797 5.99544 26.4356 5.54584C26.0514 5.4258 25.6576 5.34793 25.2693 5.24489C24.8868 5.15884 24.5259 5.10226 24.1533 5.02417L22.9002 4.86219C22.5043 4.84089 22.1092 4.80345 21.7122 4.79033C18.5329 4.69116 15.2901 5.43268 12.4641 6.91895C11.0497 7.65854 9.7409 8.58915 8.60724 9.69035L7.83704 10.4895L7.04345 11.4621L6.3633 12.4351L5.76324 13.4657C5.01447 14.8739 4.47546 16.4111 4.14447 18.0084C3.81002 19.6063 3.69399 21.2628 3.74335 22.9237C3.78751 24.5862 4.0187 26.2568 4.42415 27.8915C4.63001 28.7244 4.8703 29.4866 5.15214 30.2862L5.62968 31.4932L6.1609 32.6594C6.90015 34.2036 7.77664 35.6967 8.77457 37.1193C9.76753 38.5466 10.8914 39.8907 12.0704 41.1971C14.4448 43.7981 17.1436 46.1378 19.9707 48.3357Z" fill="#0EABEB"/>
</svg>
